<svg xmlns="http://www.w3.org/2000/svg" width="64" height="64" viewBox="0 0 64 64">
  <g id="Grupo_1095879" data-name="Grupo 1095879" transform="translate(-458 -2718)">
    <circle id="Elipse_9672" data-name="Elipse 9672" cx="32" cy="32" r="32" transform="translate(458 2718)" fill="#ffce00"/>
    <g id="Page-1" transform="translate(472 2732)">
      <g id="_028---Web-Targets" data-name="028---Web-Targets">
        <path id="Shape" d="M26.6,5.2h3.595a.6.6,0,1,0,0-1.2H26.6a.6.6,0,0,0,0,1.2Z" transform="translate(-10.424 -1.604)" fill="#12263f"/>
        <path id="Shape-2" data-name="Shape" d="M43.6,5.2h6.59a.6.6,0,0,0,0-1.2H43.6a.6.6,0,1,0,0,1.2Z" transform="translate(-17.239 -1.604)" fill="#12263f"/>
        <path id="Shape-3" data-name="Shape" d="M32.95,0H3A3,3,0,0,0,0,3V32.95a3,3,0,0,0,3,3H32.95a3,3,0,0,0,3-3V3A3,3,0,0,0,32.95,0ZM3,1.2H32.95a1.8,1.8,0,0,1,1.8,1.8v1.8H1.2V3A1.8,1.8,0,0,1,3,1.2ZM32.95,34.747H3a1.8,1.8,0,0,1-1.8-1.8V5.991H34.747V32.95A1.8,1.8,0,0,1,32.95,34.747Z" fill="#12263f"/>
        <circle id="Oval" cx="1" cy="1" r="1" transform="translate(1.973 1.973)" fill="#12263f"/>
        <ellipse id="Oval-2" data-name="Oval" cx="0.5" cy="1" rx="0.5" ry="1" transform="translate(4.973 1.973)" fill="#12263f"/>
        <ellipse id="Oval-3" data-name="Oval" cx="0.5" cy="1" rx="0.5" ry="1" transform="translate(6.973 1.973)" fill="#12263f"/>
        <path id="Shape-4" data-name="Shape" d="M5.2,14.4V13.2H6.4a.6.6,0,1,0,0-1.2H4.6a.6.6,0,0,0-.6.6v1.8a.6.6,0,0,0,1.2,0Z" transform="translate(-1.604 -4.811)" fill="#12263f"/>
        <path id="Shape-5" data-name="Shape" d="M53.4,51a.6.6,0,0,0-.6.6v1.2H51.6a.6.6,0,1,0,0,1.2h1.8a.6.6,0,0,0,.6-.6V51.6A.6.6,0,0,0,53.4,51Z" transform="translate(-20.446 -20.446)" fill="#12263f"/>
        <path id="Shape-6" data-name="Shape" d="M21.982,14A12.022,12.022,0,0,0,10,25.837a.6.6,0,0,0,.592.606H10.6a.6.6,0,0,0,.6-.592A10.784,10.784,0,1,1,21.982,36.765a10.526,10.526,0,0,1-2.25-.24.6.6,0,0,0-.256,1.171,11.756,11.756,0,0,0,2.507.267,11.982,11.982,0,1,0,0-23.964Z" transform="translate(-4.009 -5.613)" fill="#12263f"/>
        <path id="Shape-7" data-name="Shape" d="M22.473,36.254a.6.6,0,0,0,.527.664,8.879,8.879,0,0,0,1.015.055,8.986,8.986,0,1,0-8.941-9.917.6.6,0,0,0,1.192.123,7.791,7.791,0,1,1,6.871,8.545.6.6,0,0,0-.663.529Z" transform="translate(-6.042 -7.617)" fill="#12263f"/>
        <path id="Shape-8" data-name="Shape" d="M26.147,34.784c-.09,0-.18,0-.271,0a.6.6,0,0,0-.069,1.2c.113.007.226.007.34.007a5.991,5.991,0,1,0-5.731-7.728.6.6,0,1,0,1.147.348,4.793,4.793,0,1,1,4.585,6.18Z" transform="translate(-8.174 -9.623)" fill="#12263f"/>
        <path id="Shape-9" data-name="Shape" d="M27.574,30.547a1.8,1.8,0,1,1,1.334,3.219.6.6,0,1,0,.172,1.186,3,3,0,1,0-2.212-5.372.6.6,0,1,0,.707.967Z" transform="translate(-10.668 -11.623)" fill="#12263f"/>
        <path id="Shape-10" data-name="Shape" d="M18.955,34.961a1.2,1.2,0,0,0-1.425-1.425L9.769,35.223a1.2,1.2,0,0,0-.592,2.018l.918.918L5.859,42.4a1.2,1.2,0,0,0,0,1.694L8.4,46.631a1.2,1.2,0,0,0,1.694,0L14.33,42.4l.919.919a1.2,1.2,0,0,0,2.018-.593ZM16.1,42.467l-.919-.918a1.2,1.2,0,0,0-1.695,0L9.248,45.785,6.706,43.243l4.236-4.236a1.2,1.2,0,0,0,0-1.695l-.918-.918,7.761-1.688Z" transform="translate(-2.208 -13.434)" fill="#12263f"/>
      </g>
    </g>
  </g>
</svg>
