<svg xmlns="http://www.w3.org/2000/svg" xmlns:xlink="http://www.w3.org/1999/xlink" width="119" height="119" viewBox="0 0 119 119">
  <defs>
    <filter id="Trazado_822180" x="0" y="0" width="119" height="119" filterUnits="userSpaceOnUse">
      <feOffset input="SourceAlpha"/>
      <feGaussianBlur stdDeviation="5.5" result="blur"/>
      <feFlood flood-color="#fff" flood-opacity="0.659"/>
      <feComposite operator="in" in2="blur"/>
      <feComposite in="SourceGraphic"/>
    </filter>
  </defs>
  <g id="Grupo_1094143" data-name="Grupo 1094143" transform="translate(16.5 16.5)">
    <g transform="matrix(1, 0, 0, 1, -16.5, -16.5)" filter="url(#Trazado_822180)">
      <path id="Trazado_822180-2" data-name="Trazado 822180" d="M43,0A43,43,0,1,1,0,43,43,43,0,0,1,43,0Z" transform="translate(16.5 16.5)" fill="#ffce00"/>
    </g>
    <g id="descuento" transform="translate(15.031 14.595)">
      <g id="Grupo_1094141" data-name="Grupo 1094141" transform="translate(0.844 0.844)">
        <g id="Grupo_1094138" data-name="Grupo 1094138" transform="translate(0 8.538)">
          <g id="Grupo_1094137" data-name="Grupo 1094137" transform="translate(0 17.739)">
            <path id="Trazado_836961" data-name="Trazado 836961" d="M126.41,256.042c2.575,0,6.673-6.873,5.878-7.026l-.582-.307a2.307,2.307,0,0,1-1.229-2.04v-5.6h-8.135v5.6a2.307,2.307,0,0,1-1.229,2.04l-.582.307C119.736,249.169,123.834,256.042,126.41,256.042Z" transform="translate(-108.169 -241.066)" fill="#f9eae2"/>
            <path id="Trazado_836962" data-name="Trazado 836962" d="M34.968,309l-4.216,4.133a1.544,1.544,0,0,1-2.161,0L24.376,309s-12.945,1.879-12.945,13.066v5.178a3.749,3.749,0,0,0,3.749,3.749H45.772a2.141,2.141,0,0,0,2.141-2.141v-6.787C47.913,310.88,34.968,309,34.968,309Z" transform="translate(-11.431 -301.358)" fill="#04bb2f"/>
            <path id="Trazado_836963" data-name="Trazado 836963" d="M122.841,309l-4.216,4.133a1.543,1.543,0,0,1-2.161,0L112.248,309s-.3.043-.8.155a1.283,1.283,0,0,0-.819,1.914c.88,1.465,2.115,3.5,2.115,3.5a1.534,1.534,0,0,0,1.706.681l3.1-1.681,3.1,1.681a1.534,1.534,0,0,0,1.706-.681s1.234-2.04,2.115-3.5a1.283,1.283,0,0,0-.819-1.914c-.5-.112-.8-.155-.8-.155Z" transform="translate(-99.304 -301.358)" fill="#019825"/>
          </g>
          <path id="Trazado_836964" data-name="Trazado 836964" d="M102.088,107.846H101.6l0-.617.006-1.474c.018-4.4-3.588-6.022-7.579-6.084h-.1c-3.99.062-7.6,1.687-7.579,6.084l.006,1.474,0,.617h-.492a1.981,1.981,0,0,0-1.98,1.982v1.8a1.981,1.981,0,0,0,1.982,1.979h.508a7.2,7.2,0,0,0,2.422,5.283,7.708,7.708,0,0,0,10.352,0,7.2,7.2,0,0,0,2.422-5.283h.509a1.981,1.981,0,0,0,1.982-1.979v-1.8A1.981,1.981,0,0,0,102.088,107.846Z" transform="translate(-75.737 -97.839)" fill="#f9eae2"/>
          <path id="Trazado_836965" data-name="Trazado 836965" d="M163.016,109.48h-.492l0-.617.006-1.474c.015-3.574-2.365-5.316-5.4-5.877a5.907,5.907,0,0,1,.666,2.887l-.029,10.838a7.2,7.2,0,0,1-2.422,5.283,8.2,8.2,0,0,1-2.81,1.61,7.626,7.626,0,0,0,7.543-1.61,7.2,7.2,0,0,0,2.422-5.283h.509a1.981,1.981,0,0,0,1.982-1.979v-1.8a1.981,1.981,0,0,0-1.98-1.982Z" transform="translate(-136.664 -99.473)" fill="#f5dbcc"/>
          <path id="Trazado_836966" data-name="Trazado 836966" d="M91.273,94.764a.9.9,0,0,0,1.237-.837V90.707a1.648,1.648,0,0,1,2.082-1.591l2.928.6a6.6,6.6,0,0,0,3.476,0l2.928-.6a1.648,1.648,0,0,1,2.082,1.591v3.219a.9.9,0,0,0,1.237.837l.646-.259a1.257,1.257,0,0,0,.79-1.167V89.672A6.282,6.282,0,0,0,102.4,83.39H96.119a6.282,6.282,0,0,0-6.282,6.282v3.666a1.257,1.257,0,0,0,.79,1.167Z" transform="translate(-81.016 -83.39)" fill="#407093"/>
          <path id="Trazado_836967" data-name="Trazado 836967" d="M178.254,83.391H175.31a5.292,5.292,0,0,1,2.7,4.926l0,1.161,1.775-.361a1.648,1.648,0,0,1,2.082,1.591v3.219a.9.9,0,0,0,1.237.837l.646-.259a1.257,1.257,0,0,0,.79-1.167V89.673a6.282,6.282,0,0,0-6.282-6.282Z" transform="translate(-156.874 -83.391)" fill="#365e7d"/>
        </g>
        <g id="Grupo_1094139" data-name="Grupo 1094139" transform="translate(6.692 47.33)">
          <path id="Trazado_836968" data-name="Trazado 836968" d="M168.233,453.171h-.815a2.437,2.437,0,0,1-2.227-1.448.853.853,0,0,0-1.031-.469l-3.871,1.195v3.832a.929.929,0,0,1-.9.928h8.849a2.02,2.02,0,0,0,0-4.039Z" transform="translate(-149.431 -448.629)" fill="#f9eae2"/>
          <path id="Trazado_836969" data-name="Trazado 836969" d="M80.843,429.936H72.638a1.722,1.722,0,0,1-1.722-1.722v3.915a1.722,1.722,0,0,0,1.722,1.722h8.205a.93.93,0,0,1,.93.93v-3.915A.93.93,0,0,0,80.843,429.936Z" transform="translate(-70.916 -428.214)" fill="#019825"/>
        </g>
        <g id="Grupo_1094140" data-name="Grupo 1094140" transform="translate(21.712 33.919)">
          <path id="Trazado_836970" data-name="Trazado 836970" d="M374,318.486l1.547-4.752a.853.853,0,0,1,.978-.573,2.437,2.437,0,0,0,2.467-.986l.47-.666a2.02,2.02,0,1,1,3.3,2.328l-5.1,7.232Z" transform="translate(-354.925 -310.467)" fill="#f9eae2"/>
          <path id="Trazado_836971" data-name="Trazado 836971" d="M226.929,318.329l-4.087-2.882a.93.93,0,0,0-1.3.224l-2.621,3.717C217.067,310.574,206.253,309,206.253,309l-1.826,1.79c3.54,1.749,7.5,5.089,7.5,11.276v6.787A2.141,2.141,0,0,1,209.786,331h7.271a4.506,4.506,0,0,0,3.412-1.891l6.684-9.479A.93.93,0,0,0,226.929,318.329Z" transform="translate(-204.427 -309.002)" fill="#019825"/>
        </g>
        <path id="Trazado_836972" data-name="Trazado 836972" d="M337.691,33.662H325.369a3.914,3.914,0,0,1-3.914-3.914V11.414A3.914,3.914,0,0,1,325.369,7.5h12.323a3.914,3.914,0,0,1,3.914,3.914V29.748a3.914,3.914,0,0,1-3.914,3.914Z" transform="translate(-286.577 -7.5)" fill="#e8e8e8"/>
        <path id="Trazado_836973" data-name="Trazado 836973" d="M408.854,7.5h-7.216a3.914,3.914,0,0,1,3.914,3.914V29.748a3.914,3.914,0,0,1-3.914,3.914h7.216a3.914,3.914,0,0,0,3.914-3.914V11.414A3.914,3.914,0,0,0,408.854,7.5Z" transform="translate(-357.74 -7.5)" fill="#afafaf"/>
      </g>
      <g id="Grupo_1094142" data-name="Grupo 1094142">
        <path id="Trazado_836974" data-name="Trazado 836974" d="M385.372,53.063a.844.844,0,0,0-1.1.451l-5.849,13.938a.844.844,0,1,0,1.556.653l5.849-13.938A.844.844,0,0,0,385.372,53.063Z" transform="translate(-336.23 -47.035)"/>
        <path id="Trazado_836975" data-name="Trazado 836975" d="M348.856,47.226a3.873,3.873,0,1,0,3.428,3.847A3.66,3.66,0,0,0,348.856,47.226Zm0,6.007a2.21,2.21,0,1,1,1.741-2.16A1.987,1.987,0,0,1,348.856,53.233Z" transform="translate(-307.01 -41.913)"/>
        <path id="Trazado_836976" data-name="Trazado 836976" d="M415.648,135.778a3.451,3.451,0,1,0,3.428-3.847A3.66,3.66,0,0,0,415.648,135.778Zm3.428-2.16a2.21,2.21,0,1,1-1.741,2.16A1.987,1.987,0,0,1,419.076,133.619Z" transform="translate(-369.33 -117.089)"/>
        <path id="Trazado_836977" data-name="Trazado 836977" d="M54.326,101.981a2.867,2.867,0,0,0-3.99.69l-.47.666a1.6,1.6,0,0,1-1.613.645,1.7,1.7,0,0,0-1.944,1.139l-.9,2.765-.021-.015a1.772,1.772,0,0,0-2.471.427L41.3,110.584a13.729,13.729,0,0,0-6.97-7.333,21.391,21.391,0,0,0-5.733-1.943,1.459,1.459,0,0,1-.675-1.232V99.052a9.87,9.87,0,0,0,.817-.633,7.979,7.979,0,0,0,2.655-5.09,2.829,2.829,0,0,0,2.549-2.809v-1.8a2.8,2.8,0,0,0-.68-1.838c.006-.067.011-.135.011-.2V83.016a7.133,7.133,0,0,0-7.125-7.125H19.877a7.133,7.133,0,0,0-7.125,7.125v3.666c0,.069,0,.136.011.2a2.8,2.8,0,0,0-.68,1.838v1.8a2.828,2.828,0,0,0,2.549,2.809,7.978,7.978,0,0,0,2.655,5.09,9.888,9.888,0,0,0,.817.633v1.024a1.459,1.459,0,0,1-.674,1.232,21.171,21.171,0,0,0-6.913,2.6.844.844,0,1,0,.873,1.444,19.81,19.81,0,0,1,6.05-2.325l3.9,3.827a2.4,2.4,0,0,0,3.343,0l3.9-3.827c1.878.379,9.78,2.37,11.487,9.3l-3.741,5.305a.844.844,0,0,0,1.379.972l6.579-9.33a.086.086,0,0,1,.12-.021l4.087,2.882a.086.086,0,0,1,.021.12l-6.684,9.479a3.624,3.624,0,0,1-2.959,1.534h-6a2.861,2.861,0,0,0-2.61-4.039h-.816A1.6,1.6,0,0,1,28,118.28a1.7,1.7,0,0,0-2.051-.933l-2.778.858v-.026a1.775,1.775,0,0,0-1.773-1.773H13.189a.879.879,0,0,1-.878-.878.844.844,0,0,0-1.687,0,2.568,2.568,0,0,0,2.565,2.565h8.205a.086.086,0,0,1,.086.086v5.087H8.524a2.909,2.909,0,0,1-2.906-2.906v-5.178a10.646,10.646,0,0,1,3.227-7.88.844.844,0,0,0-1.183-1.2,12.277,12.277,0,0,0-3.732,9.084v5.178a4.6,4.6,0,0,0,4.593,4.593H38.88a5.315,5.315,0,0,0,4.338-2.249l11.8-16.733a2.862,2.862,0,0,0-.69-3.99ZM14.439,83.016a5.444,5.444,0,0,1,5.438-5.438h6.278a5.444,5.444,0,0,1,5.438,5.438v3.666a.412.412,0,0,1-.26.384l-.646.259a.058.058,0,0,1-.08-.054V84.053a2.491,2.491,0,0,0-3.118-2.414l-2.9.59a5.628,5.628,0,0,1-3.14,0l-2.9-.59a2.491,2.491,0,0,0-3.118,2.413v3.219a.058.058,0,0,1-.08.054l-.646-.259a.412.412,0,0,1-.26-.384V83.016Zm1.822,9.46a.844.844,0,0,0-.844-.822h-.51a1.138,1.138,0,0,1-1.137-1.136v-1.8a1.135,1.135,0,0,1,.024-.225,2.145,2.145,0,0,0,.278.136l.646.259a1.745,1.745,0,0,0,2.394-1.621v-3.22a.808.808,0,0,1,1.07-.763l2.9.59a7.444,7.444,0,0,0,3.865,0c2.161-.44,2.914-.591,2.956-.6a.8.8,0,0,1,1.016.777v3.219a1.746,1.746,0,0,0,2.394,1.621l.646-.259a2.138,2.138,0,0,0,.278-.136,1.136,1.136,0,0,1,.024.225v1.8a1.138,1.138,0,0,1-1.137,1.136h-.51a.844.844,0,0,0-.844.822,6.359,6.359,0,0,1-2.131,4.666,6.876,6.876,0,0,1-9.249,0,6.358,6.358,0,0,1-2.131-4.666Zm7.245,13.169a.7.7,0,0,1-.98,0l-3.537-3.468a3.245,3.245,0,0,0,.8-2.2,8.376,8.376,0,0,0,6.447,0,3.238,3.238,0,0,0,.8,2.2Zm-.339,14.325,3.276-1.011a.01.01,0,0,1,.011.005,3.284,3.284,0,0,0,3,1.949h.816a1.176,1.176,0,0,1,0,2.352h-7.1ZM53.637,105l-4.095,5.807c-.023-.018-.044-.036-.068-.053L46.852,108.9l1.062-3.26a.009.009,0,0,1,.011-.006,3.283,3.283,0,0,0,3.321-1.327l.47-.666A1.176,1.176,0,1,1,53.637,105Z" transform="translate(-3.931 -67.353)"/>
        <path id="Trazado_836978" data-name="Trazado 836978" d="M331.034,0H318.712a4.763,4.763,0,0,0-4.758,4.758V7.219a.844.844,0,0,0,1.688,0V4.758a3.074,3.074,0,0,1,3.07-3.07h12.323a3.074,3.074,0,0,1,3.07,3.07V23.092a3.074,3.074,0,0,1-3.07,3.07H318.712a3.074,3.074,0,0,1-3.07-3.07V11.1a.844.844,0,0,0-1.687,0V23.092a4.763,4.763,0,0,0,4.758,4.758h12.323a4.763,4.763,0,0,0,4.758-4.758V4.758A4.763,4.763,0,0,0,331.034,0Z" transform="translate(-279.076)"/>
      </g>
    </g>
  </g>
</svg>
