<svg xmlns="http://www.w3.org/2000/svg" xmlns:xlink="http://www.w3.org/1999/xlink" width="127" height="105" viewBox="0 0 127 105">
  <defs>
    <linearGradient id="linear-gradient" x1="0.5" y1="-0.056" x2="0.5" y2="1" gradientUnits="objectBoundingBox">
      <stop offset="0" stop-color="#3ee2a8"/>
      <stop offset="0.56" stop-color="#3ee2a8"/>
      <stop offset="1" stop-color="#1682fb"/>
    </linearGradient>
  </defs>
  <g id="Grupo_1095138" data-name="Grupo 1095138" transform="translate(-1205 -7126)">
    <path id="Trazado_837139" data-name="Trazado 837139" d="M15,0h97a15,15,0,0,1,15,15V90a15,15,0,0,1-15,15H15A15,15,0,0,1,0,90V15A15,15,0,0,1,15,0Z" transform="translate(1205 7126)" fill="url(#linear-gradient)"/>
    <g id="cuestionario-en-linea" transform="translate(1231.002 7140.998)">
      <g id="Grupo_1094171" data-name="Grupo 1094171" transform="translate(2.129 2.133)">
        <g id="Grupo_1094167" data-name="Grupo 1094167" transform="translate(0 14.696)">
          <path id="Trazado_837115" data-name="Trazado 837115" d="M149.069,434.943l-22.415.287-4.98,8.545a.523.523,0,0,0,.452.787h31.638a.523.523,0,0,0,.452-.787Z" transform="translate(-105.684 -389.432)" fill="#003748" fill-rule="evenodd"/>
          <path id="Trazado_837116" data-name="Trazado 837116" d="M300.185,434.943l-2.593.033,5.128,8.8a.523.523,0,0,1-.452.787h2.612a.523.523,0,0,0,.452-.787Z" transform="translate(-256.799 -389.432)" fill="#00242f" fill-rule="evenodd"/>
          <path id="Trazado_837117" data-name="Trazado 837117" d="M70.155,112.968a3.379,3.379,0,0,1,3.369,3.369V155.58a3.379,3.379,0,0,1-3.369,3.369H12.369A3.379,3.379,0,0,1,9,155.58V116.337a3.378,3.378,0,0,1,3.369-3.369Z" transform="translate(-9 -112.968)" fill="#e6f8ff" fill-rule="evenodd"/>
          <path id="Trazado_837118" data-name="Trazado 837118" d="M417.846,112.968a3.379,3.379,0,0,1,3.369,3.369V155.58a3.379,3.379,0,0,1-3.369,3.369h-3.919a3.379,3.379,0,0,0,3.369-3.369V116.337a3.379,3.379,0,0,0-3.369-3.369Z" transform="translate(-356.69 -112.968)" fill="#d0f1ff" fill-rule="evenodd"/>
          <path id="Trazado_837119" data-name="Trazado 837119" d="M73.524,407.6H9v2.272a3.378,3.378,0,0,0,3.369,3.369H70.155a3.378,3.378,0,0,0,3.369-3.369Z" transform="translate(-9 -365.952)" fill="#004960" fill-rule="evenodd"/>
          <path id="Trazado_837120" data-name="Trazado 837120" d="M421.215,407.6H417.3v2.272a3.378,3.378,0,0,1-3.368,3.369h3.918a3.378,3.378,0,0,0,3.369-3.369Z" transform="translate(-356.691 -365.952)" fill="#003748" fill-rule="evenodd"/>
        </g>
        <g id="Grupo_1094168" data-name="Grupo 1094168" transform="translate(11.001)">
          <path id="Trazado_837121" data-name="Trazado 837121" d="M127.468,61.741H88.71a1.886,1.886,0,0,1-1.882-1.882V19.537a1.818,1.818,0,0,1,.551-1.331l8.655-8.655A1.818,1.818,0,0,1,97.365,9h30.1a1.886,1.886,0,0,1,1.882,1.882V59.859A1.886,1.886,0,0,1,127.468,61.741Z" transform="translate(-86.828 -9)" fill="#ffda2d" fill-rule="evenodd"/>
          <path id="Trazado_837122" data-name="Trazado 837122" d="M127.468,61.741H88.71a1.886,1.886,0,0,1-1.882-1.882v-.945h37.813a1.886,1.886,0,0,0,1.882-1.882V9h.945a1.886,1.886,0,0,1,1.882,1.882V59.859A1.886,1.886,0,0,1,127.468,61.741Z" transform="translate(-86.828 -9)" fill="#ffc700" fill-rule="evenodd"/>
          <path id="Trazado_837123" data-name="Trazado 837123" d="M102.7,12.465l2.914-2.914A1.818,1.818,0,0,1,106.942,9h.634v8.059a1.7,1.7,0,0,1-1.7,1.7h-7.9a3.162,3.162,0,0,1,.388-.551Z" transform="translate(-96.405 -9)" fill="#ffc700" fill-rule="evenodd"/>
          <path id="Trazado_837124" data-name="Trazado 837124" d="M132.3,82.056h6.661a.6.6,0,0,1,.6.6v6.661a.6.6,0,0,1-.6.6H132.3a.6.6,0,0,1-.6-.6V82.653A.6.6,0,0,1,132.3,82.056Zm0-33.782h6.661a.6.6,0,0,1,.6.6v6.661a.6.6,0,0,1-.6.6H132.3a.6.6,0,0,1-.6-.6V48.871A.6.6,0,0,1,132.3,48.274Zm0,11.261h6.661a.6.6,0,0,1,.6.6v6.661a.6.6,0,0,1-.6.6H132.3a.6.6,0,0,1-.6-.6V60.132A.6.6,0,0,1,132.3,59.535Zm0,11.261h6.661a.6.6,0,0,1,.6.6v6.661a.6.6,0,0,1-.6.6H132.3a.6.6,0,0,1-.6-.6V71.392A.6.6,0,0,1,132.3,70.8Z" transform="translate(-125.363 -42.723)" fill="#64b5f6" fill-rule="evenodd"/>
          <path id="Trazado_837125" data-name="Trazado 837125" d="M132.3,82.056h6.661a.6.6,0,0,1,.6.6v.817h-5.845a.6.6,0,0,0-.6.6v5.845H132.3a.6.6,0,0,1-.6-.6V82.653a.6.6,0,0,1,.6-.6Zm0-33.782h6.661a.6.6,0,0,1,.6.6v.817h-5.845a.6.6,0,0,0-.6.6v5.845H132.3a.6.6,0,0,1-.6-.6V48.871A.6.6,0,0,1,132.3,48.274Zm0,11.261h6.661a.6.6,0,0,1,.6.6v.817h-5.845a.6.6,0,0,0-.6.6V67.39H132.3a.6.6,0,0,1-.6-.6V60.132A.6.6,0,0,1,132.3,59.535Zm0,11.261h6.661a.6.6,0,0,1,.6.6v.817h-5.845a.6.6,0,0,0-.6.6v5.845H132.3a.6.6,0,0,1-.6-.6V71.392A.6.6,0,0,1,132.3,70.8Z" transform="translate(-125.363 -42.723)" fill="#42a5f5" fill-rule="evenodd"/>
          <path id="Trazado_837126" data-name="Trazado 837126" d="M131.707,52.48h3.128a1.7,1.7,0,0,0,1.7-1.7V48.274H132.3a.6.6,0,0,0-.6.6Z" transform="translate(-125.363 -42.723)" fill="#42a5f5" fill-rule="evenodd"/>
          <path id="Trazado_837127" data-name="Trazado 837127" d="M131.707,52.48h1.414v-2.2a.6.6,0,0,1,.6-.6h2.817V48.274H132.3a.6.6,0,0,0-.6.6Z" transform="translate(-125.363 -42.723)" fill="#2d90f1" fill-rule="evenodd"/>
          <path id="Trazado_837128" data-name="Trazado 837128" d="M147.071,169.16a1.128,1.128,0,0,1,1.6,1.59l-1.9,1.922a1.128,1.128,0,0,1-1.586.013l-1.062-1.035a1.128,1.128,0,0,1,1.573-1.617l.262.255Zm0-22.522a1.128,1.128,0,0,1,1.6,1.59l-1.9,1.922a1.128,1.128,0,0,1-1.586.013l-1.062-1.035a1.128,1.128,0,0,1,1.573-1.617l.262.255Z" transform="translate(-135.727 -126.898)" fill="#42a5f5" fill-rule="evenodd"/>
          <path id="Trazado_837129" data-name="Trazado 837129" d="M97.024,10.542,88.369,19.2a1.888,1.888,0,0,0-.388.551h7.9a1.7,1.7,0,0,0,1.7-1.7v-7.9a1.888,1.888,0,0,0-.551.388Z" transform="translate(-87.818 -9.991)" fill="#eff4f7" fill-rule="evenodd"/>
        </g>
        <g id="Grupo_1094170" data-name="Grupo 1094170" transform="translate(38.265 29.332)">
          <path id="Trazado_837130" data-name="Trazado 837130" d="M309.29,237.525c-.043-.072-13.255,7.223-13.3,7.153-2.928-4.78-5.4-4.006-13.5-8.719-4.253-2.475-3.314-7.6.706-5.98l6.168,2.482-7.225-12.515a2.292,2.292,0,0,1,3.966-2.3l5.3,9.185a2.292,2.292,0,1,1,3.969-2.292l.438.759a2.292,2.292,0,0,1,3.974-2.283l.583,1.009a2.292,2.292,0,1,1,3.969-2.292l1.772,3.069C307.465,227.146,310.256,232.772,309.29,237.525Z" transform="translate(-279.711 -216.511)" fill="#ffd6bd" fill-rule="evenodd"/>
          <g id="Grupo_1094169" data-name="Grupo 1094169" transform="translate(0 0)">
            <path id="Trazado_837131" data-name="Trazado 837131" d="M302.261,232.462l-7.225-12.515a2.289,2.289,0,0,1,2.67-3.33,2.273,2.273,0,0,0-.41.185,2.3,2.3,0,0,0-.839,3.13l7.666,13.277Z" transform="translate(-292.607 -216.512)" fill="#f9c6aa" fill-rule="evenodd"/>
            <path id="Trazado_837132" data-name="Trazado 837132" d="M297.07,324.065c-.664.355-1.069.566-1.077.553-2.928-4.78-5.4-4.006-13.5-8.719-3.994-2.324-3.409-6.983.007-6.2-2.063.645-1.937,4.238,1.414,6.188C291.692,320.413,294.283,319.878,297.07,324.065Z" transform="translate(-279.712 -296.451)" fill="#f9c6aa" fill-rule="evenodd"/>
            <path id="Trazado_837133" data-name="Trazado 837133" d="M360.74,268.9l-.127-.22a2.289,2.289,0,0,1,2.67-3.33,2.291,2.291,0,0,0-1.249,3.316l.567.982Z" transform="translate(-348.915 -258.356)" fill="#f9c6aa" fill-rule="evenodd"/>
            <path id="Trazado_837134" data-name="Trazado 837134" d="M391.956,258.117l-.127-.22a2.289,2.289,0,0,1,2.67-3.33,2.291,2.291,0,0,0-1.249,3.316l.567.982Z" transform="translate(-375.719 -249.098)" fill="#f9c6aa" fill-rule="evenodd"/>
            <path id="Trazado_837135" data-name="Trazado 837135" d="M424.159,249.043l-.127-.22a2.289,2.289,0,0,1,2.67-3.33,2.273,2.273,0,0,0-.41.185,2.3,2.3,0,0,0-.839,3.13l.567.982Z" transform="translate(-403.37 -241.306)" fill="#f9c6aa" fill-rule="evenodd"/>
          </g>
          <path id="Trazado_837136" data-name="Trazado 837136" d="M406.418,354.894l-13.159,7.6a.438.438,0,0,0-.16.6l1.511,2.617a.438.438,0,0,0,.6.16l13.159-7.6a.438.438,0,0,0,.16-.6l-1.511-2.617A.438.438,0,0,0,406.418,354.894Z" transform="translate(-377.022 -335.284)" fill="#64b5f6" fill-rule="evenodd"/>
          <path id="Trazado_837137" data-name="Trazado 837137" d="M393.848,375.893l-.589.34a.438.438,0,0,0-.16.6l1.511,2.617a.438.438,0,0,0,.6.16l13.159-7.6a.438.438,0,0,0,.16-.6l-.331-.573-12.57,7.258a.438.438,0,0,1-.6-.16Z" transform="translate(-377.022 -349.025)" fill="#42a5f5" fill-rule="evenodd"/>
        </g>
      </g>
      <path id="Trazado_837138" data-name="Trazado 837138" d="M70.412,53.7,69.6,52.3,57.718,59.166l.807,1.4Zm-4.887,7.045a2.243,2.243,0,0,1-2.241,2.237H58.857l5.855-3.378h.813ZM45.9,65.246H22.882l-3.254,5.583H49.152ZM5.5,62.984H57.4a1.105,1.105,0,0,1-.265-.309l-1.5-2.6-.007,0c-.1-.163-.2-.318-.3-.466H3.26v1.141A2.24,2.24,0,0,0,5.5,62.984ZM3.26,20.2V57.344H53.3A12.532,12.532,0,0,0,51.026,56H15.011A3.016,3.016,0,0,1,12,52.991V17.959H5.5A2.239,2.239,0,0,0,3.26,20.2Zm12.6-9.437h5.329a.569.569,0,0,0,.568-.568V4.863Zm5.329,2.262a2.833,2.833,0,0,0,2.829-2.83V8.815H26.2v5.594H20.6V13.021ZM53.77,3.263a.752.752,0,0,1,.751.751V37.228A3.406,3.406,0,0,0,51.4,38.39l-3.671-6.36a3.418,3.418,0,0,0-4.361-1.392H32.485a1.131,1.131,0,0,0,0,2.261h9a3.4,3.4,0,0,0,.3,2.469h-9.3a1.131,1.131,0,0,0,0,2.261h10.6l4.291,7.433-2.951-1.187A1.13,1.13,0,0,0,43.68,41.9H32.485a1.131,1.131,0,0,0,0,2.261h7.88a3.037,3.037,0,0,0-.747.967,3.619,3.619,0,0,0-.351,1.5H32.485a1.131,1.131,0,0,0,0,2.262h7.3a6.9,6.9,0,0,0,2.8,2.9c1.349.785,2.54,1.417,3.605,1.95H15.011a.752.752,0,0,1-.751-.751V13.021h4.083v1.921a1.729,1.729,0,0,0,1.727,1.727h6.661a1.73,1.73,0,0,0,1.728-1.727V8.281a1.73,1.73,0,0,0-1.728-1.727H24.018V3.263Zm3.012,14.7V36.077a3.386,3.386,0,0,1,2.5-.289,3.449,3.449,0,0,1,.713.277,3.383,3.383,0,0,1,1.229-1.215,3.421,3.421,0,0,1,4.3.741V20.2a2.242,2.242,0,0,0-2.241-2.237Zm12.1,32.146L56.439,57.294c-1.688-2.1-3.461-2.9-6.084-4.091a67.56,67.56,0,0,1-6.627-3.365c-1.979-1.152-2.479-2.9-2.079-3.717.33-.673,1.264-.418,1.791-.206l6.136,2.469a1.131,1.131,0,0,0,1.4-1.615L43.789,34.318a1.149,1.149,0,0,1,1.987-1.155l5.977,10.354a1.131,1.131,0,0,0,1.959-1.131l-.7-1.214h0A1.149,1.149,0,1,1,55,40.021l.437.756A1.131,1.131,0,0,0,57.4,39.65a1.146,1.146,0,0,1,1.295-1.677,1.137,1.137,0,0,1,.7.533l.577,1s0,0,0,0a1.131,1.131,0,0,0,1.959-1.131,1.151,1.151,0,0,1,1.993-1.149l1.76,3.054c.966,1.673,3.133,5.859,3.2,9.822Zm4.167,4.3a1.148,1.148,0,0,1-.533.687L67.785,57.83v2.916a4.506,4.506,0,0,1-4.5,4.5H48.516L51.638,70.6a1.63,1.63,0,0,1,.01,1.651,1.665,1.665,0,0,1-1.439.836H18.572a1.664,1.664,0,0,1-1.439-.837,1.628,1.628,0,0,1,.01-1.651l3.121-5.357H5.5a4.5,4.5,0,0,1-4.5-4.5V20.2a4.5,4.5,0,0,1,4.5-4.5H12V12.67a2.956,2.956,0,0,1,.882-2.131l8.655-8.655A2.959,2.959,0,0,1,23.667,1h30.1a3.016,3.016,0,0,1,3.012,3.013V15.7h6.5a4.506,4.506,0,0,1,4.5,4.5V39.4c1.147,2.029,3.413,6.627,3.367,11.06l1.787,3.091A1.168,1.168,0,0,1,73.052,54.408ZM26.2,20.075V25.67H20.6V20.075Zm2.262-.534V26.2a1.73,1.73,0,0,1-1.728,1.727H20.071A1.729,1.729,0,0,1,18.343,26.2V19.541a1.729,1.729,0,0,1,1.727-1.727h6.661A1.73,1.73,0,0,1,28.46,19.541Zm-6.269,5.1-1.061-1.035a1.131,1.131,0,1,1,1.579-1.62l.259.253,1.114-1.125a1.131,1.131,0,0,1,1.607,1.592l-1.9,1.921a1.13,1.13,0,0,1-1.593.014ZM26.2,31.336V36.93H20.6V31.336ZM28.46,30.8v6.662a1.73,1.73,0,0,1-1.728,1.727H20.071a1.729,1.729,0,0,1-1.727-1.727V30.8a1.729,1.729,0,0,1,1.727-1.727h6.661A1.73,1.73,0,0,1,28.46,30.8ZM26.2,42.6v5.593H20.6V42.6Zm2.262-.534v6.661a1.73,1.73,0,0,1-1.728,1.727H20.071a1.729,1.729,0,0,1-1.727-1.727V42.064a1.73,1.73,0,0,1,1.727-1.728h6.661A1.73,1.73,0,0,1,28.46,42.064ZM21.129,46.13a1.131,1.131,0,1,1,1.579-1.619l.259.252,1.114-1.125a1.131,1.131,0,0,1,1.607,1.591l-1.9,1.922a1.132,1.132,0,0,1-1.593.013Z" fill-rule="evenodd"/>
      <g id="Grupo_1094172" data-name="Grupo 1094172" transform="translate(-1272.476 -7386.186)">
        <path id="Trazado_837099" data-name="Trazado 837099" d="M32.453,23a9.453,9.453,0,1,0,9.453,9.453A9.453,9.453,0,0,0,32.453,23Z" transform="translate(1281.849 7370.344)" fill="#f44335"/>
        <path id="Trazado_837100" data-name="Trazado 837100" d="M40.266,23c-.266,0-.525.018-.788.04a9.445,9.445,0,0,1-.024,18.828c.268.023.538.038.811.038a9.453,9.453,0,1,0,0-18.906Z" transform="translate(1274.035 7370.344)" fill="#c81e1e"/>
        <g id="Grupo_1094172-2" data-name="Grupo 1094172" transform="translate(1309.05 7394.919)">
          <path id="Trazado_837101" data-name="Trazado 837101" d="M41.453,31.726a4.745,4.745,0,0,1-3.676,4.611v.116a1.05,1.05,0,0,1-2.1,0V35.4a1.053,1.053,0,0,1,1.05-1.05A2.626,2.626,0,1,0,34.1,31.726a1.05,1.05,0,1,1-2.1,0,4.726,4.726,0,0,1,9.453,0Z" transform="translate(-31.475 -26.475)" fill="#ffdc00"/>
          <circle id="Elipse_11191" data-name="Elipse 11191" cx="1.05" cy="1.05" r="1.05" transform="translate(4.201 13.129)" fill="#ffdc00"/>
          <path id="Trazado_837113" data-name="Trazado 837113" d="M36.252,26A5.257,5.257,0,0,0,31,31.252a1.575,1.575,0,0,0,3.151,0,2.1,2.1,0,1,1,2.1,2.1,1.575,1.575,0,0,0-1.575,1.575v1.05a1.575,1.575,0,0,0,3.124.294A5.252,5.252,0,0,0,36.252,26Zm.933,9.351a.525.525,0,0,0-.408.512v.116a.525.525,0,0,1-1.05,0v-1.05a.525.525,0,0,1,.525-.525A3.151,3.151,0,1,0,33.1,31.252a.525.525,0,1,1-1.05,0,4.2,4.2,0,1,1,5.134,4.1Z" transform="translate(-31 -26)"/>
          <path id="Trazado_837114" data-name="Trazado 837114" d="M39.575,50a1.575,1.575,0,1,0,1.575,1.575A1.575,1.575,0,0,0,39.575,50Zm0,2.1a.525.525,0,1,1,.525-.525A.525.525,0,0,1,39.575,52.1Z" transform="translate(-34.324 -37.396)"/>
        </g>
      </g>
    </g>
  </g>
</svg>
