<svg xmlns="http://www.w3.org/2000/svg" xmlns:xlink="http://www.w3.org/1999/xlink" width="127" height="105" viewBox="0 0 127 105">
  <defs>
    <linearGradient id="linear-gradient" x1="0.5" x2="0.5" y2="1" gradientUnits="objectBoundingBox">
      <stop offset="0" stop-color="#3ee2a8"/>
      <stop offset="0.56" stop-color="#3ee2a8"/>
      <stop offset="1" stop-color="#1682fb"/>
    </linearGradient>
  </defs>
  <g id="Grupo_1093764" data-name="Grupo 1093764" transform="translate(-1173 -1559)">
    <rect id="Rectángulo_386924" data-name="Rectángulo 386924" width="127" height="105" rx="15" transform="translate(1173 1559)" fill="url(#linear-gradient)"/>
    <g id="Grupo_1093760" data-name="Grupo 1093760" transform="translate(-9.644 -11.755)">
      <g id="equipo_1_" data-name="equipo (1)" transform="translate(1206.534 1583.644)">
        <path id="Trazado_835975" data-name="Trazado 835975" d="M82.08,306.642H9.821A2.321,2.321,0,0,1,7.5,304.321h0A2.321,2.321,0,0,1,9.821,302H82.08a2.321,2.321,0,0,1,2.321,2.321h0A2.321,2.321,0,0,1,82.08,306.642Z" transform="translate(-6.34 -255.272)" fill="#b5fcff"/>
        <path id="Trazado_835976" data-name="Trazado 835976" d="M464.142,302H459.5a2.321,2.321,0,1,1,0,4.642h4.642a2.321,2.321,0,0,0,0-4.642Z" transform="translate(-388.402 -255.272)" fill="#71f6fc"/>
        <rect id="Rectángulo_386930" data-name="Rectángulo 386930" width="68.39" height="26.691" transform="translate(5.416 51.37)" fill="#dcdfe8"/>
        <rect id="Rectángulo_386931" data-name="Rectángulo 386931" width="4.642" height="26.691" transform="translate(69.164 51.37)" fill="#cbcdd9"/>
        <g id="Grupo_1093753" data-name="Grupo 1093753" transform="translate(8.587 1.16)">
          <g id="Grupo_1093750" data-name="Grupo 1093750" transform="translate(0 10.404)">
            <ellipse id="Elipse_11139" data-name="Elipse 11139" cx="3.641" cy="4.023" rx="3.641" ry="4.023" fill="#d98868"/>
            <ellipse id="Elipse_11140" data-name="Elipse 11140" cx="3.641" cy="4.023" rx="3.641" ry="4.023" transform="translate(19.951)" fill="#d98868"/>
          </g>
          <path id="Trazado_835977" data-name="Trazado 835977" d="M84.5,32.836V26.1a8.6,8.6,0,0,1,8.6-8.6h1.062a8.6,8.6,0,0,1,8.6,8.6v6.738a9.111,9.111,0,0,1-9.111,9.111h-.037A9.111,9.111,0,0,1,84.5,32.836Z" transform="translate(-80.014 -15.953)" fill="#ebad88"/>
          <path id="Trazado_835978" data-name="Trazado 835978" d="M131.37,17.5h-1.095a8.587,8.587,0,0,0-1.773.185,8.609,8.609,0,0,1,6.808,8.429v6.7a9.126,9.126,0,0,1-6.808,8.837,9.077,9.077,0,0,0,2.285.291h.071a9.111,9.111,0,0,0,9.093-9.128v-6.7A8.6,8.6,0,0,0,131.37,17.5Z" transform="translate(-117.206 -15.953)" fill="#e8916f"/>
          <g id="Grupo_1093751" data-name="Grupo 1093751" transform="translate(3.559)">
            <path id="Trazado_835979" data-name="Trazado 835979" d="M98.165,20.112a1.091,1.091,0,0,1-1.668.476c-1.658-1.276-2.012-4.994-2.012-4.994-2.774-1.591-3.235-3.34-3.235-3.34-1.6,2.656-8.621,3.34-8.621,3.34s-.353,3.718-2.011,4.994a1.091,1.091,0,0,1-1.668-.476,9.547,9.547,0,0,1-.308-4.518s.283-6.788,6.4-7.8c6.486-1.073,7.613,1.147,7.613,1.147,6.086.293,5.82,6.654,5.82,6.654A9.556,9.556,0,0,1,98.165,20.112Z" transform="translate(-78.499 -7.499)" fill="#8c4a37"/>
          </g>
          <g id="Grupo_1093752" data-name="Grupo 1093752" transform="translate(10.755 0.001)">
            <path id="Trazado_835980" data-name="Trazado 835980" d="M137.786,15.6s.266-6.361-5.82-6.654c0,0-1.051-2.067-6.956-1.247a4.559,4.559,0,0,1,1.862.771,3.033,3.033,0,0,0,1.354.57c4.317.708,4.853,4.826,4.913,6.15.2.137.423.274.661.41,0,0,.355,3.718,2.012,4.994a1.091,1.091,0,0,0,1.668-.476A9.559,9.559,0,0,0,137.786,15.6Z" transform="translate(-125.01 -7.505)" fill="#804231"/>
          </g>
        </g>
        <path id="Trazado_835981" data-name="Trazado 835981" d="M72.97,180.281h-26.3a2.166,2.166,0,0,1-2.166-2.166V160.166A2.166,2.166,0,0,1,46.666,158h26.3a2.166,2.166,0,0,1,2.166,2.166v17.949A2.166,2.166,0,0,1,72.97,180.281Z" transform="translate(-37.615 -133.553)" fill="#685c79"/>
        <circle id="Elipse_11141" data-name="Elipse 11141" cx="3.095" cy="3.095" r="3.095" transform="translate(19.378 32.797)" fill="#ffd659"/>
        <g id="Grupo_1093757" data-name="Grupo 1093757" transform="translate(43.402 1.16)">
          <g id="Grupo_1093754" data-name="Grupo 1093754" transform="translate(0 10.404)">
            <ellipse id="Elipse_11142" data-name="Elipse 11142" cx="3.641" cy="4.023" rx="3.641" ry="4.023" fill="#d98868"/>
            <ellipse id="Elipse_11143" data-name="Elipse 11143" cx="3.641" cy="4.023" rx="3.641" ry="4.023" transform="translate(19.951)" fill="#d98868"/>
          </g>
          <path id="Trazado_835982" data-name="Trazado 835982" d="M309.5,32.836V26.1a8.6,8.6,0,0,1,8.6-8.6h1.062a8.6,8.6,0,0,1,8.6,8.6v6.738a9.111,9.111,0,0,1-9.111,9.111h-.037A9.111,9.111,0,0,1,309.5,32.836Z" transform="translate(-305.014 -15.953)" fill="#ebad88"/>
          <path id="Trazado_835983" data-name="Trazado 835983" d="M356.37,17.5h-1.095a8.586,8.586,0,0,0-1.773.185,8.609,8.609,0,0,1,6.808,8.429v6.7a9.126,9.126,0,0,1-6.808,8.837,9.077,9.077,0,0,0,2.285.291h.071a9.111,9.111,0,0,0,9.093-9.128v-6.7A8.6,8.6,0,0,0,356.37,17.5Z" transform="translate(-342.206 -15.953)" fill="#e8916f"/>
          <g id="Grupo_1093755" data-name="Grupo 1093755" transform="translate(3.559)">
            <path id="Trazado_835984" data-name="Trazado 835984" d="M323.165,20.112a1.091,1.091,0,0,1-1.668.476c-1.657-1.276-2.012-4.994-2.012-4.994-2.774-1.591-3.235-3.34-3.235-3.34-1.6,2.656-8.621,3.34-8.621,3.34s-.353,3.718-2.011,4.994a1.091,1.091,0,0,1-1.668-.476,9.547,9.547,0,0,1-.308-4.518s.283-6.788,6.4-7.8c6.486-1.073,7.613,1.147,7.613,1.147,6.086.293,5.82,6.654,5.82,6.654A9.557,9.557,0,0,1,323.165,20.112Z" transform="translate(-303.499 -7.499)" fill="#8c4a37"/>
          </g>
          <g id="Grupo_1093756" data-name="Grupo 1093756" transform="translate(10.755 0.001)">
            <path id="Trazado_835985" data-name="Trazado 835985" d="M362.786,15.6s.266-6.361-5.82-6.654c0,0-1.051-2.067-6.956-1.247a4.559,4.559,0,0,1,1.862.771,3.033,3.033,0,0,0,1.354.57c4.317.708,4.853,4.826,4.913,6.15.2.137.423.274.661.41,0,0,.355,3.718,2.012,4.994a1.091,1.091,0,0,0,1.668-.476A9.559,9.559,0,0,0,362.786,15.6Z" transform="translate(-350.01 -7.505)" fill="#804231"/>
          </g>
        </g>
        <path id="Trazado_835986" data-name="Trazado 835986" d="M297.97,180.281h-26.3a2.166,2.166,0,0,1-2.166-2.166V160.166A2.166,2.166,0,0,1,271.666,158h26.3a2.166,2.166,0,0,1,2.166,2.166v17.949A2.166,2.166,0,0,1,297.97,180.281Z" transform="translate(-227.8 -133.553)" fill="#685c79"/>
        <circle id="Elipse_11144" data-name="Elipse 11144" cx="3.095" cy="3.095" r="3.095" transform="translate(54.192 32.797)" fill="#ffd659"/>
        <path id="Trazado_835987" data-name="Trazado 835987" d="M181.463,388.378h-18.29A6.173,6.173,0,0,1,157,382.2v-.032A6.173,6.173,0,0,1,163.173,376h18.29a6.173,6.173,0,0,1,6.173,6.173v.032A6.173,6.173,0,0,1,181.463,388.378Z" transform="translate(-132.707 -317.822)" fill="#ffb70d"/>
        <g id="Grupo_1093758" data-name="Grupo 1093758" transform="translate(0 0)">
          <path id="Trazado_835988" data-name="Trazado 835988" d="M75.74,45.567h-2.4a3.311,3.311,0,0,0,.156-1.006V26.613a3.33,3.33,0,0,0-3.327-3.327h-4.3a10.15,10.15,0,0,0,1.069-2.518l.052,0a5.009,5.009,0,0,0,4.8-5.183,5.163,5.163,0,0,0-3.568-5.007A11.709,11.709,0,0,0,68.1,9.165a9.251,9.251,0,0,0-.134-1.545,1.16,1.16,0,0,0-2.289.386,13,13,0,0,1,.12,1.462,8.551,8.551,0,0,1-.212,3.788c-.858-.772-1.361-2.908-1.479-4.113a1.161,1.161,0,0,0-.578-.9A5.629,5.629,0,0,1,60.83,5.605a1.125,1.125,0,0,0-.934-.863,1.17,1.17,0,0,0-1.179.571c-.9,1.484-5.066,2.522-7.74,2.785a1.16,1.16,0,0,0-1.043,1.045c-.1,1.016-.581,3.3-1.477,4.112a6.226,6.226,0,0,1-.321-1.71s0,0,0,0,0-.021,0-.031a9.725,9.725,0,0,1,.108-2.041,1.21,1.21,0,0,0,.019-.165c.011-.239.337-5.865,5.427-6.708,4.858-.8,6.207.362,6.4.57a.946.946,0,0,0,.964.591,5.04,5.04,0,0,1,2.685.821,1.16,1.16,0,0,0,1.329-1.9,7.094,7.094,0,0,0-3.374-1.2C60.849.64,58.654-.576,53.31.307a8.244,8.244,0,0,0-6.357,4.942,11.785,11.785,0,0,0-1,3.868,11.541,11.541,0,0,0-.139,1.462,5.163,5.163,0,0,0-3.568,5.007,5.009,5.009,0,0,0,4.8,5.183l.052,0a10.155,10.155,0,0,0,1.069,2.518h-4.3a3.33,3.33,0,0,0-3.327,3.327V44.561a3.311,3.311,0,0,0,.156,1.006H38.526a3.311,3.311,0,0,0,.156-1.006V26.613a3.33,3.33,0,0,0-3.327-3.327h-4.3a10.15,10.15,0,0,0,1.069-2.518l.052,0a5.009,5.009,0,0,0,4.8-5.183,5.163,5.163,0,0,0-3.568-5.007,11.711,11.711,0,0,0-.132-1.416,9.545,9.545,0,0,0-.722-3.583,6.554,6.554,0,0,0-5.676-4.1C26.034.64,23.839-.576,18.5.307A8.244,8.244,0,0,0,12.139,5.25a11.786,11.786,0,0,0-1,3.868,11.541,11.541,0,0,0-.139,1.462,5.163,5.163,0,0,0-3.567,5.007,5.009,5.009,0,0,0,4.8,5.183l.052,0a10.155,10.155,0,0,0,1.069,2.518h-4.3a3.33,3.33,0,0,0-3.327,3.327V38.334a1.16,1.16,0,0,0,2.321,0V26.613a1.007,1.007,0,0,1,1.006-1.006h26.3a1.007,1.007,0,0,1,1.006,1.006V44.561a1.007,1.007,0,0,1-1.006,1.006H9.052a1.007,1.007,0,0,1-1.006-1.006V43.324a1.16,1.16,0,1,0-2.321,0v1.238a3.311,3.311,0,0,0,.156,1.006h-2.4a3.481,3.481,0,1,0,0,6.963h.774V78.061a1.16,1.16,0,0,0,1.16,1.16h68.39a1.16,1.16,0,0,0,1.16-1.16V74.347a1.16,1.16,0,1,0-2.321,0V76.9H6.576V52.53H72.645V69.4a1.16,1.16,0,0,0,2.321,0V52.53h.774a3.481,3.481,0,1,0,0-6.963ZM34.659,15.587a2.755,2.755,0,0,1-2.174,2.838c.013-.366,0-.272.007-3.572A4.016,4.016,0,0,0,33.234,13,2.932,2.932,0,0,1,34.659,15.587ZM13.428,9.47a1.21,1.21,0,0,0,.019-.165c.011-.239.337-5.865,5.427-6.708,4.858-.8,6.207.362,6.4.57a.946.946,0,0,0,.964.591A4.351,4.351,0,0,1,30.4,6.43a8.038,8.038,0,0,1,.581,3.038,8.548,8.548,0,0,1-.212,3.788c-.858-.772-1.361-2.908-1.479-4.113a1.161,1.161,0,0,0-.578-.9,5.629,5.629,0,0,1-2.693-2.641,1.125,1.125,0,0,0-.934-.863,1.169,1.169,0,0,0-1.179.571c-.9,1.484-5.066,2.522-7.74,2.785A1.16,1.16,0,0,0,15.12,9.144c-.1,1.016-.581,3.3-1.477,4.112a6.226,6.226,0,0,1-.321-1.71s0,0,0,0,0-.021,0-.031A9.706,9.706,0,0,1,13.428,9.47Zm-3.68,6.116A2.932,2.932,0,0,1,11.174,13a4.1,4.1,0,0,0,.74,1.849c0,3.261-.006,3.214.007,3.574A2.755,2.755,0,0,1,9.748,15.587Zm4.487-.047a2.2,2.2,0,0,0,.737-.373c1.477-1.137,2.091-3.525,2.327-4.869,1.708-.241,5.24-.907,7.35-2.474a9.262,9.262,0,0,0,2.4,2.133c.188,1.238.772,3.969,2.382,5.209a2.209,2.209,0,0,0,.738.373c-.023,2.4.4,5.045-1.974,7.747H16.209C13.882,20.636,14.26,18.083,14.235,15.54Zm55.238.047A2.755,2.755,0,0,1,67.3,18.425c.013-.366,0-.272.007-3.572a2.215,2.215,0,0,0,.4-.665A7.306,7.306,0,0,0,68.048,13,2.932,2.932,0,0,1,69.474,15.587Zm-24.911,0A2.932,2.932,0,0,1,45.988,13a7.3,7.3,0,0,0,.339,1.186,2.215,2.215,0,0,0,.4.663c0,3.261-.006,3.214.007,3.574A2.755,2.755,0,0,1,44.562,15.587Zm4.487-.047a2.2,2.2,0,0,0,.737-.373c1.477-1.137,2.091-3.525,2.327-4.869,1.708-.241,5.24-.907,7.35-2.474a9.263,9.263,0,0,0,2.4,2.133c.188,1.238.772,3.969,2.382,5.209a2.209,2.209,0,0,0,.738.373c-.023,2.4.4,5.045-1.974,7.747H51.023C48.294,20.178,49.24,16.829,49.049,15.54ZM42.86,44.561V26.613a1.007,1.007,0,0,1,1.006-1.006h26.3a1.007,1.007,0,0,1,1.006,1.006V44.561a1.007,1.007,0,0,1-1.006,1.006h-26.3A1.007,1.007,0,0,1,42.86,44.561Zm32.88,5.648H3.481a1.16,1.16,0,1,1,0-2.321H75.74a1.16,1.16,0,1,1,0,2.321Z" transform="translate(0 0)"/>
          <path id="Trazado_835989" data-name="Trazado 835989" d="M126.25,208.72A4.255,4.255,0,1,0,122,212.975,4.26,4.26,0,0,0,126.25,208.72Zm-6.189,0A1.934,1.934,0,1,1,122,210.654,1.936,1.936,0,0,1,120.061,208.72Z" transform="translate(-99.522 -172.828)"/>
          <path id="Trazado_835990" data-name="Trazado 835990" d="M347,204.465a4.255,4.255,0,1,0,4.255,4.255A4.26,4.26,0,0,0,347,204.465Zm0,6.189a1.934,1.934,0,1,1,1.934-1.934A1.936,1.936,0,0,1,347,210.654Z" transform="translate(-289.708 -172.828)"/>
          <path id="Trazado_835991" data-name="Trazado 835991" d="M156.834,368.5a7.342,7.342,0,0,0-7.334,7.334v.032a7.342,7.342,0,0,0,7.334,7.334h18.29a7.342,7.342,0,0,0,7.334-7.334v-.032a7.342,7.342,0,0,0-7.334-7.334Zm23.3,7.334v.032a5.019,5.019,0,0,1-5.013,5.013h-18.29a5.019,5.019,0,0,1-5.013-5.013v-.032a5.019,5.019,0,0,1,5.013-5.013h18.29A5.019,5.019,0,0,1,180.136,375.834Z" transform="translate(-126.368 -311.482)"/>
        </g>
      </g>
      <g id="Grupo_1093761" data-name="Grupo 1093761" transform="translate(1239.438 1644.205)">
        <path id="Trazado_835994" data-name="Trazado 835994" d="M336.495,105.022a.863.863,0,0,0-1.22,0l-2.129,2.129a.863.863,0,0,0,0,1.22l2.129,2.129a.863.863,0,1,0,1.22-1.22l-1.519-1.519,1.519-1.519A.863.863,0,0,0,336.495,105.022Z" transform="translate(-332.893 -103.803)"/>
        <path id="Trazado_835995" data-name="Trazado 835995" d="M414.1,110.752c.617,0,.668-.423,2.739-2.382a.862.862,0,0,0,0-1.22l-2.129-2.129a.863.863,0,1,0-1.22,1.22l1.519,1.519-1.519,1.519A.864.864,0,0,0,414.1,110.752Z" transform="translate(-403.991 -103.803)"/>
        <path id="Trazado_835996" data-name="Trazado 835996" d="M373.559,96.94l-2.391,6.569a.863.863,0,1,0,1.621.59l2.391-6.569a.863.863,0,1,0-1.621-.59Z" transform="translate(-366.719 -96.373)"/>
      </g>
    </g>
  </g>
</svg>
