<svg xmlns="http://www.w3.org/2000/svg" width="64" height="64" viewBox="0 0 64 64">
  <g id="Grupo_1095880" data-name="Grupo 1095880" transform="translate(-1077 -2718.25)">
    <g id="Grupo_1073002" data-name="Grupo 1073002" transform="translate(341 -930.75)">
      <circle id="Elipse_9673" data-name="Elipse 9673" cx="32" cy="32" r="32" transform="translate(736 3649)" fill="#ffce00"/>
    </g>
    <path id="contenido-generado-por-el-usuario" d="M42.55,78.406V69.168a1.708,1.708,0,0,0-1.706-1.706h-.439a7.23,7.23,0,0,0-2.827-3.118,8.071,8.071,0,0,0-1.641-.751,4.32,4.32,0,1,0-5.587.022,7.592,7.592,0,0,0-4.458,3.847h-.459a1.708,1.708,0,0,0-1.706,1.706v9.223a2.152,2.152,0,0,0,.307,4.282h18.12a2.152,2.152,0,0,0,.4-4.267ZM33.132,57.469a2.843,2.843,0,1,1-2.844,2.844A2.846,2.846,0,0,1,33.132,57.469Zm.046,7.164h.029a6.483,6.483,0,0,1,5.519,2.828H27.587a6.6,6.6,0,0,1,5.591-2.829Zm-7.744,4.306h15.41a.232.232,0,0,1,.229.229v9.2H25.2v-9.2A.235.235,0,0,1,25.434,68.939ZM42.154,81.2H24.035a.675.675,0,0,1,0-1.349h18.12a.675.675,0,1,1,0,1.349ZM33.14,75.529a2.363,2.363,0,1,0-2.363-2.363A2.365,2.365,0,0,0,33.14,75.529Zm0-3.248a.885.885,0,1,1-.885.885A.886.886,0,0,1,33.14,72.281ZM52.152,50.063H40.384A1.734,1.734,0,0,0,38.651,51.8v7.437a1.734,1.734,0,0,0,1.732,1.733h1.678v3.126a.739.739,0,0,0,1.276.507l3.432-3.634h5.382a1.736,1.736,0,0,0,1.735-1.733V51.8a1.736,1.736,0,0,0-1.735-1.732Zm.258,9.17a.26.26,0,0,1-.258.255h-5.7a.739.739,0,0,0-.537.231l-2.375,2.514V60.227a.739.739,0,0,0-.739-.739H40.384a.258.258,0,0,1-.255-.255V51.8a.258.258,0,0,1,.255-.255H52.152a.26.26,0,0,1,.258.255v7.437ZM41.735,53.284a.739.739,0,0,1,.739-.739h4.158a.739.739,0,1,1,0,1.478H42.473A.739.739,0,0,1,41.735,53.284Zm9.069,0a.739.739,0,0,1-.739.739H49a.739.739,0,1,1,0-1.478h1.064A.739.739,0,0,1,50.8,53.284Zm0,2.126a.739.739,0,0,1-.739.739H45.907a.739.739,0,1,1,0-1.478h4.158A.739.739,0,0,1,50.8,55.41Zm-9.069.112a.739.739,0,0,1,.739-.739h1.064a.739.739,0,0,1,0,1.478H42.473A.739.739,0,0,1,41.735,55.522Zm3.028,2.126a.739.739,0,0,1-.739.739H42.473a.739.739,0,0,1,0-1.478h1.551A.739.739,0,0,1,44.763,57.648Zm2.788,0a.739.739,0,0,1-.739.739h-.4a.739.739,0,1,1,0-1.478h.4A.739.739,0,0,1,47.55,57.648ZM23.361,66.683V59.246a1.736,1.736,0,0,0-1.735-1.733H9.858a1.734,1.734,0,0,0-1.732,1.733v7.437a1.734,1.734,0,0,0,1.732,1.732h5.385l3.432,3.634a.739.739,0,0,0,1.276-.507V68.416h1.675a1.736,1.736,0,0,0,1.735-1.732Zm-1.478,0a.26.26,0,0,1-.258.255H19.213a.739.739,0,0,0-.739.739v2.007L16.1,67.17a.739.739,0,0,0-.537-.231h-5.7a.258.258,0,0,1-.255-.255V59.246a.258.258,0,0,1,.255-.255H21.626a.26.26,0,0,1,.258.255v7.437ZM19.854,60.1a.738.738,0,0,0-.736,0l-1.832,1.039A1.426,1.426,0,0,0,15.891,60h-3.2a1.426,1.426,0,0,0-1.424,1.424v3.081a1.426,1.426,0,0,0,1.424,1.424h3.2a1.426,1.426,0,0,0,1.394-1.135l1.832,1.039a.739.739,0,0,0,1.1-.643V60.739a.739.739,0,0,0-.367-.638Zm-7.109,4.35V61.478h3.094v2.973Zm6-.529-1.428-.81v-.3l1.428-.81Zm-.375-9.6h5.385l3.432,3.634a.739.739,0,0,0,1.276-.507V54.321h1.675a1.734,1.734,0,0,0,1.732-1.733V45.151a1.736,1.736,0,0,0-1.732-1.735H18.368a1.736,1.736,0,0,0-1.732,1.735v7.437a1.734,1.734,0,0,0,1.732,1.733Zm11.768-1.478H27.722a.739.739,0,0,0-.739.739v2.007l-2.375-2.514a.739.739,0,0,0-.537-.231h-5.7a.258.258,0,0,1-.255-.255v-.244l3.253-2.456,2.7,1.748a.739.739,0,0,0,.969-.148L27.525,48.5l2.866,2.627v1.461a.258.258,0,0,1-.255.255Zm-11.768-7.95H30.136a.26.26,0,0,1,.255.258v3.972l-2.439-2.236a.739.739,0,0,0-1.067.072L24.32,50.04l-2.585-1.673a.739.739,0,0,0-.847.031l-2.775,2.1V45.151a.26.26,0,0,1,.255-.258ZM20.089,48.1a1.451,1.451,0,1,0-1.45-1.453A1.454,1.454,0,0,0,20.089,48.1Zm0-1.478a.025.025,0,0,1,.027.025.027.027,0,0,1-.027.027.025.025,0,0,1-.025-.027A.023.023,0,0,1,20.089,46.625Z" transform="translate(1078.011 2689.689)" fill="#12263f"/>
  </g>
</svg>
