<svg xmlns="http://www.w3.org/2000/svg" xmlns:xlink="http://www.w3.org/1999/xlink" width="119" height="119" viewBox="0 0 119 119">
  <defs>
    <filter id="Trazado_826199" x="0" y="0" width="119" height="119" filterUnits="userSpaceOnUse">
      <feOffset input="SourceAlpha"/>
      <feGaussianBlur stdDeviation="5.5" result="blur"/>
      <feFlood flood-color="#fff" flood-opacity="0.659"/>
      <feComposite operator="in" in2="blur"/>
      <feComposite in="SourceGraphic"/>
    </filter>
  </defs>
  <g id="Grupo_1093898" data-name="Grupo 1093898" transform="translate(-797.5 -4085.5)">
    <g transform="matrix(1, 0, 0, 1, 797.5, 4085.5)" filter="url(#Trazado_826199)">
      <path id="Trazado_826199-2" data-name="Trazado 826199" d="M43,0A43,43,0,1,1,0,43,43,43,0,0,1,43,0Z" transform="translate(16.5 16.5)" fill="#ffce00"/>
    </g>
    <g id="coding_644615" transform="translate(831.974 4121.497)">
      <path id="Trazado_836134" data-name="Trazado 836134" d="M45.056,7.582H10.546a2.983,2.983,0,0,0-2.984,2.984v34.51a2.984,2.984,0,0,0,2.984,2.984h34.51a2.984,2.984,0,0,0,2.984-2.984V10.566A2.984,2.984,0,0,0,45.056,7.582Z" transform="translate(-6.769 -6.811)" fill="#70b5e8"/>
      <path id="Trazado_836135" data-name="Trazado 836135" d="M10.614,45.076c0-37.422-.125-34.934.294-35.8a2.985,2.985,0,0,1,2.69-1.69H10.546a2.984,2.984,0,0,0-2.984,2.984v34.51a2.984,2.984,0,0,0,2.984,2.984H13.6A2.984,2.984,0,0,1,10.614,45.076Z" transform="translate(-6.769 -6.811)" fill="#52a5d8"/>
      <g id="Grupo_1093861" data-name="Grupo 1093861" transform="translate(38.443 25.128)">
        <path id="Trazado_836136" data-name="Trazado 836136" d="M440.756,257.89l1.872-3.168a1.373,1.373,0,0,0-2.378-1.373l-1.821,3.079A11.561,11.561,0,0,1,440.756,257.89Z" transform="translate(-432.249 -252.09)" fill="#666"/>
        <path id="Trazado_836137" data-name="Trazado 836137" d="M380.429,250.6v-3.586h-2.746V250.6a9.725,9.725,0,0,1,2.746,0Z" transform="translate(-377.682 -247.019)" fill="#666"/>
      </g>
      <path id="Trazado_836138" data-name="Trazado 836138" d="M304.553,301.825a9.243,9.243,0,1,0,12.626,3.383A9.254,9.254,0,0,0,304.553,301.825Z" transform="translate(-269.399 -270.011)" fill="#ccc"/>
      <path id="Trazado_836139" data-name="Trazado 836139" d="M304.367,316.791a9.259,9.259,0,0,1,1.877-11.543,9.243,9.243,0,1,0,9.058,15.689A9.259,9.259,0,0,1,304.367,316.791Z" transform="translate(-269.398 -274.197)" fill="#bcbbb8"/>
      <path id="Trazado_836140" data-name="Trazado 836140" d="M390.716,300.338h0v9.22h9.243A9.253,9.253,0,0,0,390.716,300.338Z" transform="translate(-350.947 -269.786)" fill="#dc9609"/>
      <path id="Trazado_836141" data-name="Trazado 836141" d="M390.717,300.338h0v9.22h3.027v-8.71A9.2,9.2,0,0,0,390.717,300.338Z" transform="translate(-350.948 -269.786)" fill="#f4a403"/>
      <path id="Trazado_836142" data-name="Trazado 836142" d="M48.04,10.487A2.984,2.984,0,0,0,45.056,7.5H14.876c-4.409.03-4.886-.17-5.877.432a2.982,2.982,0,0,0-1.437,2.552v5.082H48.04V10.487Z" transform="translate(-6.769 -6.732)" fill="#666"/>
      <path id="Trazado_836143" data-name="Trazado 836143" d="M13.551,7.544c-3.269,0-3.351-.04-3.9.124A2.991,2.991,0,0,0,7.662,9.6c-.2.6-.146.5-.147,6.007h3.052V10.528A2.984,2.984,0,0,1,13.551,7.544Z" transform="translate(-6.723 -6.773)" fill="#535454"/>
      <path id="Trazado_836144" data-name="Trazado 836144" d="M377.862,358.418a1.2,1.2,0,0,0-.2,1.73,1.538,1.538,0,0,0,.152.179,1.564,1.564,0,0,0,.179.152,1.2,1.2,0,0,0,1.73-.2l2.647-4.134a.278.278,0,0,0-.372-.372Z" transform="translate(-338.973 -319.548)" fill="#f94a46"/>
      <path id="Trazado_836145" data-name="Trazado 836145" d="M364.122,224.723h-3.815a1.377,1.377,0,0,1-1.373-1.373h0a1.377,1.377,0,0,1,1.373-1.373h3.815a1.377,1.377,0,0,1,1.373,1.373h0A1.377,1.377,0,0,1,364.122,224.723Z" transform="translate(-322.398 -199.396)" fill="#7e7f7f"/>
      <path id="Trazado_836146" data-name="Trazado 836146" d="M362.214,223.35a1.377,1.377,0,0,1,1.373-1.373h-3.281a1.373,1.373,0,1,0,0,2.746h3.281A1.377,1.377,0,0,1,362.214,223.35Z" transform="translate(-322.397 -199.396)" fill="#666"/>
      <path id="Trazado_836147" data-name="Trazado 836147" d="M295.167,299.405a11.528,11.528,0,1,1,4.22-15.748A11.541,11.541,0,0,1,295.167,299.405Zm-10.155-17.589a8.782,8.782,0,1,0,12,3.214A8.792,8.792,0,0,0,285.012,281.816Z" transform="translate(-249.586 -249.626)" fill="#7e7f7f"/>
      <path id="Trazado_836148" data-name="Trazado 836148" d="M281.8,302a11.545,11.545,0,0,1,3.072-14.99,11.528,11.528,0,1,0,11.446,19.826A11.545,11.545,0,0,1,281.8,302Z" transform="translate(-249.586 -257.81)" fill="#6f7070"/>
      <path id="Trazado_836149" data-name="Trazado 836149" d="M122.178,123.147a.789.789,0,0,0-1.116,0l-3.58,3.579a.789.789,0,0,0,0,1.116c3.652,3.536,3.552,3.811,4.137,3.811a.79.79,0,0,0,.558-1.347l-3.022-3.022,3.022-3.022A.789.789,0,0,0,122.178,123.147Z" transform="translate(-105.301 -110.413)"/>
      <path id="Trazado_836150" data-name="Trazado 836150" d="M245.794,131.653c.584,0,.49-.279,4.137-3.811a.789.789,0,0,0,0-1.116l-3.58-3.579a.789.789,0,1,0-1.116,1.116l3.022,3.022-3.022,3.022A.79.79,0,0,0,245.794,131.653Z" transform="translate(-220.058 -110.413)"/>
      <path id="Trazado_836151" data-name="Trazado 836151" d="M182.77,122.654l3.394-9.324a.789.789,0,1,0-1.483-.54l-3.394,9.324a.789.789,0,0,0,1.483.54Z" transform="translate(-162.779 -100.85)"/>
      <path id="Trazado_836152" data-name="Trazado 836152" d="M44.89,40.047a.694.694,0,0,0-.095-.116.771.771,0,0,0-.689-.209.7.7,0,0,0-.142.044.716.716,0,0,0-.132.07.737.737,0,0,0-.116.095.748.748,0,0,0-.095.116.756.756,0,0,0-.128.423.818.818,0,0,0,.014.15.761.761,0,0,0,.044.142.772.772,0,0,0,.07.131.708.708,0,0,0,.095.116.793.793,0,0,0,.116.1.775.775,0,0,0,.132.07.855.855,0,0,0,.142.044.817.817,0,0,0,.15.014.764.764,0,0,0,.763-.763A.736.736,0,0,0,45,40.322a.772.772,0,0,0-.114-.275Z" transform="translate(-39.045 -35.669)"/>
      <path id="Trazado_836153" data-name="Trazado 836153" d="M69.967,41.176a.814.814,0,0,0,.131-.07.753.753,0,0,0,.116-.1.654.654,0,0,0,.095-.116.7.7,0,0,0,.07-.131.777.777,0,0,0,.044-.142.745.745,0,0,0,.015-.15.736.736,0,0,0-.015-.149.807.807,0,0,0-.044-.143.748.748,0,0,0-.07-.131.744.744,0,0,0-.211-.211.767.767,0,0,0-.275-.114.772.772,0,0,0-.689.209.76.76,0,0,0-.223.539.762.762,0,0,0,.763.763.807.807,0,0,0,.149-.014A.9.9,0,0,0,69.967,41.176Z" transform="translate(-61.878 -35.67)"/>
      <path id="Trazado_836154" data-name="Trazado 836154" d="M94.463,40.886a.654.654,0,0,0,.095.116.743.743,0,0,0,.116.1.763.763,0,0,0,.846,0,.781.781,0,0,0,.212-.212.746.746,0,0,0,.113-.274.744.744,0,0,0,.015-.15.736.736,0,0,0-.015-.149.8.8,0,0,0-.043-.143.813.813,0,0,0-.07-.131.759.759,0,0,0-.1-.116.658.658,0,0,0-.116-.095.692.692,0,0,0-.131-.07.7.7,0,0,0-.142-.044.736.736,0,0,0-.3,0,.765.765,0,0,0-.275.114.74.74,0,0,0-.211.211.734.734,0,0,0-.07.131.816.816,0,0,0-.044.143.729.729,0,0,0-.015.149.754.754,0,0,0,.015.15.769.769,0,0,0,.044.142A.7.7,0,0,0,94.463,40.886Z" transform="translate(-84.714 -35.662)"/>
      <path id="Trazado_836155" data-name="Trazado 836155" d="M144.516,41.228a.763.763,0,0,0,0-1.526H126.325a.763.763,0,1,0,0,1.526Z" transform="translate(-112.766 -35.663)"/>
      <path id="Trazado_836156" data-name="Trazado 836156" d="M334.641,41.228a.763.763,0,0,0,0-1.526h-3.12a.763.763,0,0,0,0,1.526Z" transform="translate(-297.089 -35.663)"/>
      <path id="Trazado_836157" data-name="Trazado 836157" d="M370.494,354.1l.012.012a2.3,2.3,0,0,0,.267.226,2.18,2.18,0,0,0,1.266.418,1.96,1.96,0,0,0,.367-.034,1.787,1.787,0,0,0,1.185-.793l2.647-4.134a1.039,1.039,0,0,0-1.426-1.426l-4.134,2.647a1.787,1.787,0,0,0-.793,1.185,2.133,2.133,0,0,0,.383,1.633A2.328,2.328,0,0,0,370.494,354.1Zm.889-1.614a.269.269,0,0,1,.117-.186l2.239-1.434-1.434,2.24a.27.27,0,0,1-.186.117.616.616,0,0,1-.456-.123.686.686,0,0,1-.157-.158A.613.613,0,0,1,371.384,352.483Z" transform="translate(-332.203 -312.788)"/>
      <path id="Trazado_836158" data-name="Trazado 836158" d="M51.762,236.947H50.428a.763.763,0,1,0,0,1.526h1.333a.763.763,0,0,0,0-1.526Z" transform="translate(-44.589 -212.843)"/>
      <path id="Trazado_836159" data-name="Trazado 836159" d="M51.762,272.945H50.428a.763.763,0,0,0,0,1.526h1.333a.763.763,0,0,0,0-1.526Z" transform="translate(-44.589 -245.18)"/>
      <path id="Trazado_836160" data-name="Trazado 836160" d="M51.762,308.944H50.428a.763.763,0,0,0,0,1.526h1.333a.763.763,0,0,0,0-1.526Z" transform="translate(-44.589 -277.517)"/>
      <path id="Trazado_836161" data-name="Trazado 836161" d="M51.762,344.942H50.428a.763.763,0,1,0,0,1.526h1.333a.763.763,0,0,0,0-1.526Z" transform="translate(-44.589 -309.853)"/>
      <path id="Trazado_836162" data-name="Trazado 836162" d="M117.867,237.71a.763.763,0,0,0-.763-.763H95.983a.763.763,0,0,0,0,1.526H117.1A.763.763,0,0,0,117.867,237.71Z" transform="translate(-85.51 -212.843)"/>
      <path id="Trazado_836163" data-name="Trazado 836163" d="M116.849,273.708a.763.763,0,0,0-.763-.763h-20.1a.763.763,0,0,0,0,1.526h20.1A.763.763,0,0,0,116.849,273.708Z" transform="translate(-85.51 -245.18)"/>
      <path id="Trazado_836164" data-name="Trazado 836164" d="M112.338,309.707a.763.763,0,0,0-.763-.763H95.983a.763.763,0,0,0,0,1.526h15.592A.763.763,0,0,0,112.338,309.707Z" transform="translate(-85.51 -277.517)"/>
      <path id="Trazado_836165" data-name="Trazado 836165" d="M95.983,344.942a.763.763,0,1,0,0,1.526h14.575a.763.763,0,1,0,0-1.526Z" transform="translate(-85.51 -309.853)"/>
      <path id="Trazado_836166" data-name="Trazado 836166" d="M48.026,30.656l1.453-2.517A2.136,2.136,0,1,0,45.779,26L44.4,28.39a12.177,12.177,0,0,0-2.452-.7V26.074a2.134,2.134,0,0,0,.081-4.234V17.4a.763.763,0,1,0-1.526,0v4.415h-2.6a2.136,2.136,0,0,0-.229,4.26v1.613a12.3,12.3,0,0,0-10.134,12.8H3.773a2.224,2.224,0,0,1-2.221-2.221V9.6H6.016a.763.763,0,0,0,0-1.526H1.552a43.059,43.059,0,0,1,.04-4.74A2.224,2.224,0,0,1,2.3,2.1c.891-.8-1.023-.563,35.988-.565A2.224,2.224,0,0,1,40.5,3.752V8.072H9.577a.763.763,0,0,0,0,1.526H40.5V13.84a.763.763,0,0,0,1.526,0V3.752A3.751,3.751,0,0,0,38.283.005C1.561.011,3.621-.037,3.043.077A3.751,3.751,0,0,0,.026,3.753v34.51a3.751,3.751,0,0,0,3.747,3.747H27.724a12.227,12.227,0,0,0,1.707,4.355.763.763,0,0,0,1.288-.818,10.791,10.791,0,1,1,2.2,2.5.763.763,0,1,0-.979,1.17A12.285,12.285,0,0,0,48.026,30.656Zm-7.6-3.14c-.413-.02-.809-.02-1.221,0V26.087h1.221Zm-2.518-2.955a.61.61,0,1,1,0-1.221H41.72a.61.61,0,1,1,0,1.221ZM46.818,29.7c-.331-.23-.672-.444-1.036-.647,1.33-2.193,1.264-2.453,1.69-2.567a.61.61,0,0,1,.686.893Z" transform="translate(0 0)"/>
      <path id="Trazado_836167" data-name="Trazado 836167" d="M306.861,316.433a9.545,9.545,0,1,0-9.545-9.545A9.556,9.556,0,0,0,306.861,316.433Zm-7.68-10.33h-.3a8.032,8.032,0,0,1,7.217-7.2v.279a.763.763,0,0,0,1.526,0v-.279a8.032,8.032,0,0,1,7.217,7.2h-.3a.763.763,0,0,0,0,1.526h.3a8.031,8.031,0,0,1-7.22,7.242v-.325a.763.763,0,0,0-1.526,0v.325a8.031,8.031,0,0,1-7.221-7.242h.3a.763.763,0,0,0,0-1.526Z" transform="translate(-267.048 -267.096)"/>
    </g>
  </g>
</svg>
