<svg xmlns="http://www.w3.org/2000/svg" xmlns:xlink="http://www.w3.org/1999/xlink" width="119" height="119" viewBox="0 0 119 119">
  <defs>
    <filter id="Trazado_826199" x="0" y="0" width="119" height="119" filterUnits="userSpaceOnUse">
      <feOffset input="SourceAlpha"/>
      <feGaussianBlur stdDeviation="5.5" result="blur"/>
      <feFlood flood-color="#fff" flood-opacity="0.659"/>
      <feComposite operator="in" in2="blur"/>
      <feComposite in="SourceGraphic"/>
    </filter>
  </defs>
  <g id="Grupo_1093899" data-name="Grupo 1093899" transform="translate(-1112.5 -4085.5)">
    <g transform="matrix(1, 0, 0, 1, 1112.5, 4085.5)" filter="url(#Trazado_826199)">
      <path id="Trazado_826199-2" data-name="Trazado 826199" d="M43,0A43,43,0,1,1,0,43,43,43,0,0,1,43,0Z" transform="translate(16.5 16.5)" fill="#ffce00"/>
    </g>
    <g id="Page-1" transform="translate(1147.799 4118.799)">
      <g id="_035---Comupter-Efficiency" data-name="035---Comupter-Efficiency" transform="translate(0 0)">
        <g id="Cartoony" transform="translate(0.84 1.515)">
          <path id="Shape" d="M40.321,56.4H5.04A5.04,5.04,0,0,1,0,51.36V48.84A.84.84,0,0,1,.84,48H44.521a.84.84,0,0,1,.84.84v2.52A5.04,5.04,0,0,1,40.321,56.4Z" transform="translate(0 -8.354)" fill="#607d8b"/>
          <path id="Shape-2" data-name="Shape" d="M51.72,48H49.2a.84.84,0,0,1,.84.84v2.52A5.04,5.04,0,0,1,45,56.4h2.52a5.04,5.04,0,0,0,5.04-5.04V48.84A.84.84,0,0,0,51.72,48Z" transform="translate(-7.199 -8.354)" fill="#37474f"/>
          <path id="Shape-3" data-name="Shape" d="M18,48H33.12v1.68A2.52,2.52,0,0,1,30.6,52.2H20.52A2.52,2.52,0,0,1,18,49.68Z" transform="translate(-2.88 -8.354)" fill="#7f8e94"/>
          <path id="Shape-4" data-name="Shape" d="M32.52,48v1.68A2.52,2.52,0,0,1,30,52.2h2.52a2.52,2.52,0,0,0,2.52-2.52V48Z" transform="translate(-4.799 -8.354)" fill="#545c60"/>
          <path id="Shape-5" data-name="Shape" d="M44,34.705v7.216H2V13.36A3.36,3.36,0,0,1,5.36,10H40.641A3.36,3.36,0,0,1,44,13.36Z" transform="translate(-0.32 -2.274)" fill="#00bcd4"/>
          <path id="Shape-6" data-name="Shape" d="M47.52,10H45a3.36,3.36,0,0,1,3.36,3.36V41.921h2.52V13.36A3.36,3.36,0,0,0,47.52,10Z" transform="translate(-7.199 -2.274)" fill="#00838f"/>
          <path id="Shape-7" data-name="Shape" d="M52.241,23.12A15.12,15.12,0,1,1,27.586,11.385a14.768,14.768,0,0,1,3.847-2.276,15.123,15.123,0,0,1,11.374,0,14.768,14.768,0,0,1,3.847,2.276A15.08,15.08,0,0,1,52.241,23.12Z" transform="translate(-3.519 -1.954)" fill="#ff5722"/>
          <path id="Shape-8" data-name="Shape" d="M49.294,11.385a14.768,14.768,0,0,0-3.847-2.276A15.175,15.175,0,0,0,41.44,8.092,15.835,15.835,0,0,0,39.76,8c-.428,0-.844.024-1.26.058.14.012.281.019.42.034a15.175,15.175,0,0,1,4.007,1.016,14.768,14.768,0,0,1,3.847,2.276A15.112,15.112,0,0,1,38.5,38.177c.42.034.835.064,1.26.064a15.12,15.12,0,0,0,9.534-26.856Z" transform="translate(-6.159 -1.954)" fill="#d84315"/>
          <ellipse id="Oval" cx="12" cy="11.5" rx="12" ry="11.5" transform="translate(21.361 9.686)" fill="#f5f5f5"/>
          <path id="Shape-9" data-name="Shape" d="M39.76,12a11.779,11.779,0,0,0-1.26.07,11.76,11.76,0,0,1,0,23.381A11.76,11.76,0,1,0,39.76,12Z" transform="translate(-6.159 -2.594)" fill="#cfd8dc"/>
          <rect id="Rectangle-path" width="5" height="3" rx="1" transform="translate(30.361 -0.314)" fill="#7f8e94"/>
          <path id="Shape-10" data-name="Shape" d="M41.36,4V7.452a15.32,15.32,0,0,0-3.36,0V4Z" transform="translate(-6.079 -1.314)" fill="#607d8b"/>
          <path id="Shape-11" data-name="Shape" d="M32.233,8.789a14.768,14.768,0,0,0-3.847,2.276L27.227,9.083a1.692,1.692,0,0,1,.6-2.3l.958-.554a1.68,1.68,0,0,1,2.293.6Z" transform="translate(-4.319 -1.634)" fill="#7f8e94"/>
          <path id="Shape-12" data-name="Shape" d="M51.777,9.083l-1.159,1.982A14.768,14.768,0,0,0,46.77,8.789l1.151-1.957a1.68,1.68,0,0,1,2.293-.6l.958.554a1.692,1.692,0,0,1,.6,2.3Z" transform="translate(-7.482 -1.634)" fill="#7f8e94"/>
          <path id="Shape-13" data-name="Shape" d="M42.04,25.52A2.52,2.52,0,1,1,39.52,23a2.443,2.443,0,0,1,.9.168v.008A2.5,2.5,0,0,1,42.04,25.52Z" transform="translate(-5.919 -4.354)" fill="#f44335"/>
          <path id="Shape-14" data-name="Shape" d="M40.235,22.432a2.443,2.443,0,0,0-.9-.168,2.5,2.5,0,0,0-2.243,1.378l-1.134-2.957a1.689,1.689,0,0,1,.966-2.176,1.661,1.661,0,0,1,.6-.109A1.685,1.685,0,0,1,39.1,19.475Z" transform="translate(-5.735 -3.618)" fill="#607d8b"/>
        </g>
        <g id="Icons">
          <path id="Shape-15" data-name="Shape" d="M14.52,52H12.84a.84.84,0,1,0,0,1.68h1.68a.84.84,0,1,0,0-1.68Z" transform="translate(-1.92 -8.319)"/>
          <ellipse id="Oval-2" data-name="Oval" cx="1" cy="0.5" rx="1" ry="0.5" transform="translate(3.2 44.201)"/>
          <ellipse id="Oval-3" data-name="Oval" cx="1.5" cy="0.5" rx="1.5" ry="0.5" transform="translate(6.2 44.201)"/>
          <path id="Shape-16" data-name="Shape" d="M45.044,10.784l.822-1.4a2.544,2.544,0,0,0-.914-3.444l-.958-.56a2.52,2.52,0,0,0-3.439.906l-.8,1.363a15.876,15.876,0,0,0-2.793-.706V4.807A1.674,1.674,0,0,0,37.8,3.36V1.68A1.68,1.68,0,0,0,36.121,0h-3.36a1.68,1.68,0,0,0-1.68,1.68V3.36a1.674,1.674,0,0,0,.84,1.447V6.939a15.777,15.777,0,0,0-2.792.709l-.8-1.357a2.524,2.524,0,0,0-3.444-.911l-.963.558A2.535,2.535,0,0,0,22.7,8.4H5.88a4.205,4.205,0,0,0-4.2,4.2V40.321A1.68,1.68,0,0,0,0,42v2.52A5.887,5.887,0,0,0,5.88,50.4H41.161a5.887,5.887,0,0,0,5.88-5.88V42a1.68,1.68,0,0,0-1.68-1.68V34.288a15.887,15.887,0,0,0-.318-23.5ZM42.006,7.133a.84.84,0,0,1,1.146-.3l.952.552a.853.853,0,0,1,.307,1.153L43.72,9.72A15.937,15.937,0,0,0,41.32,8.3ZM32.761,1.68h3.36V3.36h-3.36Zm.84,3.36h1.68V6.763c-.28-.015-.556-.043-.84-.043s-.56.028-.84.043ZM24.774,7.392l.957-.554a.84.84,0,0,1,1.15.3L27.564,8.3a15.872,15.872,0,0,0-2.4,1.42l-.686-1.176a.855.855,0,0,1,.3-1.154ZM45.361,44.521a4.205,4.205,0,0,1-4.2,4.2H5.88a4.205,4.205,0,0,1-4.2-4.2V42H15.12v.84a3.36,3.36,0,0,0,3.36,3.36h10.08a3.36,3.36,0,0,0,3.36-3.36V42h13.44ZM16.8,42h13.44v.84a1.68,1.68,0,0,1-1.68,1.68H18.48a1.68,1.68,0,0,1-1.68-1.68Zm26.881-1.68H3.36V12.6a2.52,2.52,0,0,1,2.52-2.52H23.427l.412.7A15.936,15.936,0,0,0,43.681,35.67Zm-9.24-3.36a14.28,14.28,0,1,1,14.28-14.28A14.28,14.28,0,0,1,34.441,36.961Z" transform="translate(0 0)"/>
          <path id="Shape-17" data-name="Shape" d="M38.6,12A12.6,12.6,0,1,0,51.2,24.6,12.6,12.6,0,0,0,38.6,12Zm9.24,13.44h1.637A10.852,10.852,0,0,1,46.884,31.7L45.728,30.54a.84.84,0,0,0-1.188,1.188L45.7,32.884a10.858,10.858,0,0,1-6.256,2.594V33.841a.84.84,0,1,0-1.68,0v1.637A10.857,10.857,0,0,1,31.5,32.885l1.156-1.157a.84.84,0,0,0-1.188-1.188L30.316,31.7a10.857,10.857,0,0,1-2.593-6.256H29.36a.84.84,0,1,0,0-1.68H27.723A10.857,10.857,0,0,1,30.316,17.5l1.157,1.156a.84.84,0,1,0,1.188-1.188L31.5,16.316a10.857,10.857,0,0,1,6.256-2.593V15.36a.84.84,0,1,0,1.68,0V13.723A10.858,10.858,0,0,1,45.7,16.317L44.54,17.473a.84.84,0,1,0,1.188,1.188L46.884,17.5a10.852,10.852,0,0,1,2.594,6.256H47.841a.84.84,0,1,0,0,1.68Z" transform="translate(-4.159 -1.92)"/>
          <path id="Shape-18" data-name="Shape" d="M41.741,22.668l-1.016-2.656a2.524,2.524,0,0,0-4.71,1.815l1.016,2.65a3.322,3.322,0,0,0-.215,1.147,3.36,3.36,0,1,0,4.924-2.956Zm-3.669-2.537a.832.832,0,0,1,.291-.051.84.84,0,0,1,.795.535L39.8,22.3a3.329,3.329,0,0,0-1.576.6l-.639-1.669a.846.846,0,0,1,.485-1.1ZM40.176,27.3a1.68,1.68,0,1,1,1.68-1.68A1.68,1.68,0,0,1,40.176,27.3Z" transform="translate(-5.736 -2.944)"/>
          <path id="Shape-19" data-name="Shape" d="M10.84,17.68h.84a.84.84,0,1,0,0-1.68h-.84a.84.84,0,0,0,0,1.68Z" transform="translate(-1.6 -2.56)"/>
          <path id="Shape-20" data-name="Shape" d="M15.84,17.68h5.04a.84.84,0,1,0,0-1.68H15.84a.84.84,0,1,0,0,1.68Z" transform="translate(-2.4 -2.56)"/>
          <path id="Shape-21" data-name="Shape" d="M7.84,22.68H9.52a.84.84,0,0,0,0-1.68H7.84a.84.84,0,1,0,0,1.68Z" transform="translate(-1.12 -3.36)"/>
          <path id="Shape-22" data-name="Shape" d="M13.84,22.68h5.04a.84.84,0,0,0,0-1.68H13.84a.84.84,0,1,0,0,1.68Z" transform="translate(-2.08 -3.36)"/>
          <path id="Shape-23" data-name="Shape" d="M11.68,36h-.84a.84.84,0,1,0,0,1.68h.84a.84.84,0,1,0,0-1.68Z" transform="translate(-1.6 -5.759)"/>
          <path id="Shape-24" data-name="Shape" d="M20.88,36H15.84a.84.84,0,1,0,0,1.68h5.04a.84.84,0,1,0,0-1.68Z" transform="translate(-2.4 -5.759)"/>
          <path id="Shape-25" data-name="Shape" d="M10.36,31.84A.84.84,0,0,0,9.52,31H7.84a.84.84,0,1,0,0,1.68H9.52A.84.84,0,0,0,10.36,31.84Z" transform="translate(-1.12 -4.959)"/>
          <path id="Shape-26" data-name="Shape" d="M19.72,31.84a.84.84,0,0,0-.84-.84H13.84a.84.84,0,1,0,0,1.68h5.04A.84.84,0,0,0,19.72,31.84Z" transform="translate(-2.08 -4.959)"/>
          <path id="Shape-27" data-name="Shape" d="M16.92,27.68a.84.84,0,1,0,0-1.68H6.84a.84.84,0,1,0,0,1.68Z" transform="translate(-0.96 -4.159)"/>
        </g>
      </g>
    </g>
  </g>
</svg>
