<svg xmlns="http://www.w3.org/2000/svg" xmlns:xlink="http://www.w3.org/1999/xlink" width="119" height="119" viewBox="0 0 119 119">
  <defs>
    <filter id="Trazado_836132" x="0" y="0" width="119" height="119" filterUnits="userSpaceOnUse">
      <feOffset input="SourceAlpha"/>
      <feGaussianBlur stdDeviation="5.5" result="blur"/>
      <feFlood flood-color="#fff" flood-opacity="0.659"/>
      <feComposite operator="in" in2="blur"/>
      <feComposite in="SourceGraphic"/>
    </filter>
    <clipPath id="clip-path">
      <rect id="Rectángulo_386995" data-name="Rectángulo 386995" width="53" height="55" transform="translate(1386 4512)" fill="#0f6bd2" opacity="0.38"/>
    </clipPath>
  </defs>
  <g id="Grupo_1093897" data-name="Grupo 1093897" transform="translate(-1112.5 -4478.5)">
    <g transform="matrix(1, 0, 0, 1, 1112.5, 4478.5)" filter="url(#Trazado_836132)">
      <path id="Trazado_836132-2" data-name="Trazado 836132" d="M43,0A43,43,0,1,1,0,43,43,43,0,0,1,43,0Z" transform="translate(16.5 16.5)" fill="#ffce00"/>
    </g>
    <g id="Enmascarar_grupo_239" data-name="Enmascarar grupo 239" transform="translate(-240)" clip-path="url(#clip-path)">
      <g id="working-hours_10269885" transform="translate(1369.871 4494.208)">
        <g id="Grupo_1093869" data-name="Grupo 1093869" transform="translate(16 20.904)">
          <path id="Trazado_836200" data-name="Trazado 836200" d="M86.139,21.033h22.119a4.09,4.09,0,0,1,4.078,4.078V36.727H109.2V25.111a.95.95,0,0,0-.939-.939H86.139a.95.95,0,0,0-.939.939V36.727H82.061V25.111a4.09,4.09,0,0,1,4.078-4.078Z" transform="translate(-74.897 -21.033)" fill="#663e15" fill-rule="evenodd"/>
          <path id="Trazado_836201" data-name="Trazado 836201" d="M19.41,117.924H57.193a3.42,3.42,0,0,1,3.41,3.41v21.552a3.42,3.42,0,0,1-3.41,3.41H19.41a3.42,3.42,0,0,1-3.41-3.41V121.334A3.42,3.42,0,0,1,19.41,117.924Z" transform="translate(-16 -107.416)" fill="#bf7428" fill-rule="evenodd"/>
          <path id="Trazado_836202" data-name="Trazado 836202" d="M19.411,117.924H57.194a3.42,3.42,0,0,1,3.41,3.41V130.1a8.38,8.38,0,0,1-3.819.918H19.82A8.379,8.379,0,0,1,16,130.1v-8.767a3.42,3.42,0,0,1,3.41-3.41Z" transform="translate(-16.001 -107.416)" fill="#8c551d" fill-rule="evenodd"/>
          <path id="Trazado_836203" data-name="Trazado 836203" d="M88.635,186.54h5.456v9.029a1.984,1.984,0,0,1-1.978,1.978h-1.5a1.984,1.984,0,0,1-1.978-1.978Z" transform="translate(-80.758 -168.591)" fill="#dc9954" fill-rule="evenodd"/>
          <ellipse id="Elipse_11155" data-name="Elipse 11155" cx="17.08" cy="17.08" rx="17.08" ry="17.08" transform="translate(10.818 33.885) rotate(-45)" fill="#fc0005"/>
          <path id="Trazado_836204" data-name="Trazado 836204" d="M88.635,186.54h5.456v3.182H88.635Z" transform="translate(-80.758 -168.591)" fill="#b27c44" fill-rule="evenodd"/>
          <ellipse id="Elipse_11156" data-name="Elipse 11156" cx="13.573" cy="13.572" rx="13.573" ry="13.572" transform="translate(19.059 23.181) rotate(-11.007)" fill="#cbffff"/>
          <path id="Trazado_836205" data-name="Trazado 836205" d="M321.035,318.128A2.126,2.126,0,1,0,318.909,316,2.13,2.13,0,0,0,321.035,318.128Z" transform="translate(-286.059 -282.117)" fill="#fc0005" fill-rule="evenodd"/>
        </g>
        <path id="Trazado_836206" data-name="Trazado 836206" d="M51.46,51.845a2.8,2.8,0,1,1-2.722,4.685L45.79,58.214a.736.736,0,0,1-.726-1.279l2.945-1.682a2.807,2.807,0,0,1,1.977-3.408v-4.6a.738.738,0,1,1,1.475,0ZM22.961,31.1h-2.91c-2.4.137-3.81,1.519-4.051,4.051V56.09a4.061,4.061,0,0,0,4.051,4.051h14.26a17.335,17.335,0,1,0,26.5-19.684V35.149A4.069,4.069,0,0,0,56.764,31.1h-2.91v-5.51a4.712,4.712,0,0,0-4.7-4.7H27.661a4.712,4.712,0,0,0-4.7,4.7Zm29.417,0H50.8v-5.51a1.661,1.661,0,0,0-1.65-1.65H27.661a1.661,1.661,0,0,0-1.65,1.65V31.1H24.437v-5.51a3.236,3.236,0,0,1,3.225-3.225H49.154a3.236,3.236,0,0,1,3.225,3.225V31.1Zm-3.05,0H27.486v-5.51a.186.186,0,0,1,.175-.175H49.154a.186.186,0,0,1,.175.175V31.1ZM17.475,44.784a8.98,8.98,0,0,0,2.973.513h3.205V47.84A2.665,2.665,0,0,0,26.313,50.5h1.458a2.665,2.665,0,0,0,2.659-2.659V45.3h5.633a17.349,17.349,0,0,0-2.183,13.369H20.051a2.585,2.585,0,0,1-2.576-2.576ZM59.34,39.507a17.339,17.339,0,0,0-22.232,4.315H30.431V39.066c-.072-.411-.251-.738-.738-.738h-5.3a.743.743,0,0,0-.737.719v4.774H20.449a7.292,7.292,0,0,1-2.973-.62V35.149a2.582,2.582,0,0,1,2.576-2.576H56.764a2.585,2.585,0,0,1,2.576,2.576v4.358ZM25.129,42.9h3.826V47.84a1.19,1.19,0,0,1-1.184,1.184H26.314a1.19,1.19,0,0,1-1.184-1.184V42.9Zm36.807.441a15.858,15.858,0,1,0,0,22.427A15.858,15.858,0,0,0,61.936,43.337ZM28.956,39.8V41.42H25.129V39.8Zm21.767.821A13.926,13.926,0,1,0,64.648,54.55,13.926,13.926,0,0,0,50.723,40.625Zm8.8,5.122a12.41,12.41,0,0,0-8.066-3.625v1.543a.738.738,0,0,1-1.475,0V42.122A12.451,12.451,0,0,0,38.294,53.813h1.521a.738.738,0,1,1,0,1.475H38.294A12.451,12.451,0,0,0,49.985,66.979V65.416a.738.738,0,0,1,1.475,0v1.563A12.451,12.451,0,0,0,63.151,55.288H61.631a.738.738,0,1,1,0-1.475h1.521a12.41,12.41,0,0,0-3.625-8.066Zm-7.865,7.865a1.328,1.328,0,1,0,0,1.878A1.329,1.329,0,0,0,51.662,53.611Z" transform="translate(0)" fill-rule="evenodd"/>
      </g>
    </g>
  </g>
</svg>
