<svg xmlns="http://www.w3.org/2000/svg" xmlns:xlink="http://www.w3.org/1999/xlink" width="119" height="119" viewBox="0 0 119 119">
  <defs>
    <filter id="Trazado_836180" x="0" y="0" width="119" height="119" filterUnits="userSpaceOnUse">
      <feOffset input="SourceAlpha"/>
      <feGaussianBlur stdDeviation="5.5" result="blur"/>
      <feFlood flood-color="#fff" flood-opacity="0.659"/>
      <feComposite operator="in" in2="blur"/>
      <feComposite in="SourceGraphic"/>
    </filter>
  </defs>
  <g id="Grupo_1093895" data-name="Grupo 1093895" transform="translate(-797.5 -4823.5)">
    <g transform="matrix(1, 0, 0, 1, 797.5, 4823.5)" filter="url(#Trazado_836180)">
      <path id="Trazado_836180-2" data-name="Trazado 836180" d="M43,0A43,43,0,1,1,0,43,43,43,0,0,1,43,0Z" transform="translate(16.5 16.5)" fill="#ffce00"/>
    </g>
    <g id="experto" transform="translate(825.51 4850.995)">
      <g id="Grupo_1093870" data-name="Grupo 1093870">
        <path id="Trazado_836207" data-name="Trazado 836207" d="M63.03,36.52H42.31V27.31a.972.972,0,0,0-.5-.85l-7.03-3.95.52-.94a.969.969,0,1,0-1.69-.95l-1,1.78v.01l-1,1.78a.967.967,0,0,0,.37,1.32.938.938,0,0,0,.48.13.958.958,0,0,0,.84-.49l.52-.94,6.55,3.67v8.65H38c-.23-2.21-1.26-7.63-5.83-9.01a33.77,33.77,0,0,1-6.28-2.89,11.01,11.01,0,0,0,1.89-3.8,5.779,5.779,0,0,0,1.98-3.45,4.8,4.8,0,0,0,.1-.95,2.51,2.51,0,0,0-1.15-2.31l.04-1.04a7.027,7.027,0,0,0-.06-1.22v-.04a6.351,6.351,0,0,0-1.7-3.6A7.031,7.031,0,0,0,21.8,6.11H20.55a7.076,7.076,0,0,0-5.2,2.11,6.6,6.6,0,0,0-1.76,4.85l.04,1.04c-.8.48-1.4,1.51-1.06,3.27a5.687,5.687,0,0,0,1.97,3.45,11.2,11.2,0,0,0,1.9,3.8,32.843,32.843,0,0,1-6.28,2.89c-4.57,1.38-5.39,6.76-5.55,9.01H.97a.962.962,0,0,0-.97.96v3.49a.977.977,0,0,0,.97.97H6.5L3.47,56.74a.957.957,0,0,0,.19.8.972.972,0,0,0,.76.36H7.83a.972.972,0,0,0,.95-.78l3.1-15.18H52.11L55.2,57.12a.972.972,0,0,0,.95.78h3.41a.987.987,0,0,0,.76-.36.957.957,0,0,0,.19-.8L57.49,41.95h5.52a.977.977,0,0,0,.97-.97V37.49a.948.948,0,0,0-.95-.97ZM16.76,9.55a5.138,5.138,0,0,1,3.79-1.51H21.8a5.114,5.114,0,0,1,3.78,1.51,1.4,1.4,0,0,1,.16.2,6.7,6.7,0,0,0-4.15.58c-.46.17-.88.34-1.32.46a5.925,5.925,0,0,1-4.06-.54,4.138,4.138,0,0,1,.55-.7Zm-.45,10.34a.907.907,0,0,0-.73-.71A4.048,4.048,0,0,1,14.48,17c-.04-.19-.2-1.18.22-1.27.05-.01.12-.02.16-.03a.97.97,0,0,0,.74-.98l-.07-1.74a6.555,6.555,0,0,1,.04-.89,8.4,8.4,0,0,0,3.46.8,6.924,6.924,0,0,0,1.76-.23c.53-.15,1.02-.34,1.49-.51,1.59-.61,2.76-1.04,4.49.26a3.694,3.694,0,0,1,.03.58l-.07,1.73a.97.97,0,0,0,.74.98c.02,0,.1.02.12.02.48.1.3,1.09.26,1.28a3.929,3.929,0,0,1-1.06,2.16.992.992,0,0,0-.77.73c-.79,3.19-2.73,5.34-4.86,5.34s-4.07-2.15-4.85-5.34Zm9.04,6.65a5.319,5.319,0,0,1-8.36,0c.32-.18.62-.36.89-.51a5.537,5.537,0,0,0,3.29,1.14,5.6,5.6,0,0,0,3.28-1.14C24.73,26.18,25.03,26.36,25.35,26.54ZM10.72,29.36a29.188,29.188,0,0,0,4.52-1.89,7.284,7.284,0,0,0,11.84,0,28.243,28.243,0,0,0,4.52,1.89c3.31,1,4.2,5.22,4.43,7.16H6.56c.16-1.91.86-6.16,4.16-7.16ZM7.04,55.96H5.6L8.47,41.95H9.9Zm51.36,0H56.96L54.1,41.95h1.44Zm3.66-15.95H1.94V38.46H62.06Z" fill="#12263f"/>
        <path id="Trazado_836208" data-name="Trazado 836208" d="M25.75,9.76a6.7,6.7,0,0,0-4.15.58c-.46.17-.88.34-1.32.46a5.925,5.925,0,0,1-4.06-.54,5.22,5.22,0,0,1,.54-.7,5.137,5.137,0,0,1,3.79-1.51H21.8a5.114,5.114,0,0,1,3.78,1.51,1.12,1.12,0,0,1,.17.2Z" fill="#4ebce5"/>
        <path id="Trazado_836209" data-name="Trazado 836209" d="M36.04,36.52H6.56c.16-1.91.85-6.16,4.16-7.16a29.188,29.188,0,0,0,4.52-1.89,7.284,7.284,0,0,0,11.84,0,28.243,28.243,0,0,0,4.52,1.89C34.92,30.36,35.81,34.58,36.04,36.52Z" fill="#50be9e"/>
        <path id="Trazado_836210" data-name="Trazado 836210" d="M36.04,36.52H33.4c-.19-1.73-.92-5.48-3.64-6.36a23,23,0,0,1-3.62-1.64,7.325,7.325,0,0,0,.95-1.05,28.243,28.243,0,0,0,4.52,1.89c3.31,1,4.2,5.22,4.43,7.16Z" fill="#3ca480"/>
        <path id="Trazado_836211" data-name="Trazado 836211" d="M16.21,28.54a23.093,23.093,0,0,1-3.59,1.62c-2.72.88-3.29,4.66-3.41,6.36H6.56c.16-1.91.85-6.16,4.16-7.16a29.188,29.188,0,0,0,4.52-1.89A7.618,7.618,0,0,0,16.21,28.54Z" fill="#3ca480"/>
        <path id="Trazado_836212" data-name="Trazado 836212" d="M25.35,26.54a5.319,5.319,0,0,1-8.36,0c.32-.18.62-.36.89-.51a5.537,5.537,0,0,0,3.29,1.14,5.6,5.6,0,0,0,3.28-1.14c.28.15.58.33.9.51Z" fill="#f0d299"/>
        <path id="Trazado_836213" data-name="Trazado 836213" d="M27.85,17a3.929,3.929,0,0,1-1.06,2.16.992.992,0,0,0-.77.73c-.79,3.19-2.73,5.34-4.86,5.34s-4.08-2.15-4.86-5.34a.907.907,0,0,0-.73-.71A4.048,4.048,0,0,1,14.47,17c-.04-.19-.2-1.18.22-1.27.05-.01.12-.02.16-.03a.97.97,0,0,0,.74-.98l-.07-1.74a6.555,6.555,0,0,1,.04-.89,8.4,8.4,0,0,0,3.46.8,6.924,6.924,0,0,0,1.76-.23c.53-.15,1.02-.34,1.49-.51,1.59-.61,2.76-1.04,4.49.26a3.694,3.694,0,0,1,.03.58l-.07,1.73a.97.97,0,0,0,.74.98c.02,0,.1.02.12.02.48.1.31,1.08.27,1.28Z" fill="#ffe4aa"/>
        <path id="Trazado_836214" data-name="Trazado 836214" d="M27.85,17a3.929,3.929,0,0,1-1.06,2.16.992.992,0,0,0-.77.73c-.79,3.19-2.73,5.34-4.86,5.34s-4.08-2.15-4.86-5.34a.907.907,0,0,0-.73-.71A4.048,4.048,0,0,1,14.47,17c-.04-.19-.2-1.18.22-1.27.05-.01.12-.02.16-.03a.97.97,0,0,0,.74-.98l-.07-1.74a6.555,6.555,0,0,1,.04-.89,11.833,11.833,0,0,0,1.27.48,3.15,3.15,0,0,0-.15.89l.06,1.46a.811.811,0,0,1-.58.83c-.03.01-.09.01-.13.02-.34.08-.2.91-.17,1.08a3.4,3.4,0,0,0,.86,1.84.748.748,0,0,1,.58.6c.61,2.7,2.16,4.52,3.85,4.52s3.23-1.82,3.85-4.52a.794.794,0,0,1,.61-.61,3.544,3.544,0,0,0,.83-1.83c.03-.16.17-1-.2-1.09-.02,0-.08-.01-.1-.01a.827.827,0,0,1-.58-.83l.06-1.45a7.3,7.3,0,0,0-.11-1.75,4.465,4.465,0,0,1,1.24.69,3.694,3.694,0,0,1,.03.58l-.07,1.73a.97.97,0,0,0,.74.98c.02,0,.1.02.12.02.49.1.32,1.08.28,1.28Z" fill="#f0d299"/>
        <path id="Trazado_836215" data-name="Trazado 836215" d="M9.9,41.95,7.04,55.96H5.6L8.48,41.95Z" fill="#ecc25d"/>
        <path id="Trazado_836216" data-name="Trazado 836216" d="M58.4,55.96H56.96L54.1,41.95h1.43Z" fill="#ecc25d"/>
        <path id="Trazado_836217" data-name="Trazado 836217" d="M1.94,38.46H62.06v1.55H1.94Z" fill="#ffdb7c"/>
        <path id="Trazado_836218" data-name="Trazado 836218" d="M53.97,8.53a8.9,8.9,0,1,0,8.9,8.9,8.907,8.907,0,0,0-8.9-8.9Zm0,15.87a6.96,6.96,0,1,1,6.96-6.96,6.965,6.965,0,0,1-6.96,6.96Z" fill="#2b2e63"/>
        <path id="Trazado_836219" data-name="Trazado 836219" d="M53.97,10.47a6.96,6.96,0,1,0,6.96,6.96A6.965,6.965,0,0,0,53.97,10.47Zm.97,6.97a.97.97,0,0,1-.28.68L51.1,21.69a1.012,1.012,0,0,1-.69.28,1.05,1.05,0,0,1-.69-.28.978.978,0,0,1,0-1.38L53,17.03V14.25a.97.97,0,0,1,1.94,0Z" fill="#d6e9f2"/>
        <path id="Trazado_836220" data-name="Trazado 836220" d="M53.97,10.47a6.96,6.96,0,1,0,6.96,6.96A6.965,6.965,0,0,0,53.97,10.47Zm0,12.33a5.28,5.28,0,0,1-3.06-.97.986.986,0,0,1-.49.14,1.05,1.05,0,0,1-.69-.28.959.959,0,0,1-.15-1.17,5.362,5.362,0,1,1,4.39,2.28Z" fill="#b5d9e6"/>
        <path id="Trazado_836221" data-name="Trazado 836221" d="M54.94,14.24v3.19a.97.97,0,0,1-.28.68L51.1,21.68a1.012,1.012,0,0,1-.69.28,1.05,1.05,0,0,1-.69-.28.978.978,0,0,1,0-1.38L53,17.03V14.25a.977.977,0,0,1,.97-.97.956.956,0,0,1,.97.96Z" fill="#2b2e63"/>
      </g>
    </g>
  </g>
</svg>
