<svg xmlns="http://www.w3.org/2000/svg" xmlns:xlink="http://www.w3.org/1999/xlink" width="119" height="119" viewBox="0 0 119 119">
  <defs>
    <filter id="Trazado_836182" x="0" y="0" width="119" height="119" filterUnits="userSpaceOnUse">
      <feOffset input="SourceAlpha"/>
      <feGaussianBlur stdDeviation="5.5" result="blur"/>
      <feFlood flood-color="#fff" flood-opacity="0.659"/>
      <feComposite operator="in" in2="blur"/>
      <feComposite in="SourceGraphic"/>
    </filter>
  </defs>
  <g id="Grupo_1093892" data-name="Grupo 1093892" transform="translate(-797.5 -5153.5)">
    <g transform="matrix(1, 0, 0, 1, 797.5, 5153.5)" filter="url(#Trazado_836182)">
      <path id="Trazado_836182-2" data-name="Trazado 836182" d="M43,0A43,43,0,1,1,0,43,43,43,0,0,1,43,0Z" transform="translate(16.5 16.5)" fill="#ffce00"/>
    </g>
    <g id="correccion-de-pruebas" transform="translate(829.565 5185.565)">
      <g id="Grupo_1093883" data-name="Grupo 1093883" transform="translate(0.885 0.885)">
        <g id="Grupo_1093871" data-name="Grupo 1093871" transform="translate(32.744 28.32)">
          <path id="Trazado_836222" data-name="Trazado 836222" d="M58.355,40.08V54.24H39.77V52.231a1.767,1.767,0,0,0,.885-1.531V48.93a1.775,1.775,0,0,0-1.77-1.77H38A7.08,7.08,0,1,0,38,33H52.16v7.08Z" transform="translate(-38 -33)" fill="#ffeaa7"/>
        </g>
        <g id="Grupo_1093872" data-name="Grupo 1093872" transform="translate(46.904 28.32)">
          <path id="Trazado_836223" data-name="Trazado 836223" d="M54,33l6.195,7.08H54Z" transform="translate(-54 -33)" fill="#ef7385"/>
        </g>
        <g id="Grupo_1093873" data-name="Grupo 1093873" transform="translate(14.16 35.399)">
          <path id="Trazado_836224" data-name="Trazado 836224" d="M32.93,49.85v3.54a1.775,1.775,0,0,1-1.77,1.77H27.4A10.413,10.413,0,0,1,17,44.761a3.758,3.758,0,0,1,7.487-.469,4.327,4.327,0,0,0,4.292,3.788H31.16a1.775,1.775,0,0,1,1.77,1.77Z" transform="translate(-17 -41)" fill="#fcd770"/>
        </g>
        <g id="Grupo_1093874" data-name="Grupo 1093874">
          <path id="Trazado_836225" data-name="Trazado 836225" d="M13.885,9.08h-.009l-1.947.558a5.31,5.31,0,0,0-3.85,5.106V25.78A10.617,10.617,0,0,0,18.7,36.4h.221a3.747,3.747,0,0,0-3.761,3.761,10.3,10.3,0,0,0,1.894,5.974H13.39a4.415,4.415,0,0,1-4.071-2.69c-.115.009-.23.035-.354.035A4.427,4.427,0,0,1,4.54,39.054,3.539,3.539,0,0,1,1,35.514a3.5,3.5,0,0,1,.681-2.071A5.427,5.427,0,0,0,2.77,30.231V18.7a17.7,17.7,0,1,1,35.4,0V29.32H33.744a7.414,7.414,0,0,0-1.549.168,10.682,10.682,0,0,0,.664-3.708V16.93A4.427,4.427,0,0,0,28.435,12.5H20.717A8.528,8.528,0,0,1,13.885,9.08Z" transform="translate(-1 -1)" fill="#656d78"/>
        </g>
        <g id="Grupo_1093875" data-name="Grupo 1093875" transform="translate(37.169 0)">
          <path id="Trazado_836226" data-name="Trazado 836226" d="M44.77,1H55.39a1.775,1.775,0,0,1,1.77,1.77V16.93a1.775,1.775,0,0,1-1.77,1.77H51.85l-3.177,3.177a1.252,1.252,0,0,1-2.133-.885V18.7H44.77A1.775,1.775,0,0,1,43,16.93V2.77A1.775,1.775,0,0,1,44.77,1Z" transform="translate(-43 -1)" fill="#e6e9ed"/>
        </g>
        <g id="Grupo_1093876" data-name="Grupo 1093876" transform="translate(30.975 47.55)">
          <path id="Trazado_836227" data-name="Trazado 836227" d="M39.54,56.739v2.655a.888.888,0,0,1-.885.885h-1.77A.888.888,0,0,1,36,59.394V54.969h2.655a1.765,1.765,0,0,0,.885-.239Z" transform="translate(-36 -54.73)" fill="#969faa"/>
        </g>
        <g id="Grupo_1093877" data-name="Grupo 1093877" transform="translate(30.09 42.479)">
          <path id="Trazado_836228" data-name="Trazado 836228" d="M40.31,50.77v1.77a1.774,1.774,0,0,1-1.77,1.77H35V50.77l.4-.8A1.778,1.778,0,0,1,36.982,49H38.54A1.775,1.775,0,0,1,40.31,50.77Z" transform="translate(-35 -49)" fill="#f0d0b4"/>
        </g>
        <g id="Grupo_1093878" data-name="Grupo 1093878" transform="translate(25.665 28.32)">
          <path id="Trazado_836229" data-name="Trazado 836229" d="M37.08,33A7.08,7.08,0,1,1,30,40.08a7.361,7.361,0,0,1,.071-.991,7.084,7.084,0,0,1,5.46-5.921A7.414,7.414,0,0,1,37.08,33Z" transform="translate(-30 -33)" fill="#ccd1d9"/>
        </g>
        <g id="Grupo_1093879" data-name="Grupo 1093879" transform="translate(28.623 31.734)">
          <ellipse id="Elipse_11157" data-name="Elipse 11157" cx="4" cy="3.5" rx="4" ry="3.5" transform="translate(-0.074 -0.185)" fill="#69d6f4"/>
        </g>
        <g id="Grupo_1093880" data-name="Grupo 1093880" transform="translate(7.08 8.08)">
          <path id="Trazado_836230" data-name="Trazado 836230" d="M29.355,13.555H21.638a8.528,8.528,0,0,1-6.832-3.425H14.8l-1.947.558A5.31,5.31,0,0,0,9,15.794V22.4a5.31,5.31,0,1,1,5.31,5.31A5.314,5.314,0,0,1,9,22.4V26.83A10.617,10.617,0,0,0,19.62,37.45h3.54a10.581,10.581,0,0,0,4.5-.991,7.084,7.084,0,0,1,5.46-5.921,10.682,10.682,0,0,0,.664-3.708V22.4a5.31,5.31,0,1,1-5.31-5.31,5.314,5.314,0,0,1,5.31,5.31V17.98a4.427,4.427,0,0,0-4.425-4.425Z" transform="translate(-9 -10.13)" fill="#f0d0b4"/>
        </g>
        <g id="Grupo_1093881" data-name="Grupo 1093881" transform="translate(21.365 15.144)">
          <circle id="Elipse_11158" data-name="Elipse 11158" cx="5" cy="5" r="5" transform="translate(0.185 0.406)" fill="#69d6f4"/>
        </g>
        <g id="Grupo_1093882" data-name="Grupo 1093882" transform="translate(6.849 15.144)">
          <ellipse id="Elipse_11159" data-name="Elipse 11159" cx="6" cy="5" rx="6" ry="5" transform="translate(-0.299 0.406)" fill="#69d6f4"/>
        </g>
      </g>
      <g id="Grupo_1093884" data-name="Grupo 1093884">
        <path id="Trazado_836233" data-name="Trazado 836233" d="M37.425,44.85A4.425,4.425,0,1,0,33,40.425,4.43,4.43,0,0,0,37.425,44.85Zm0-7.08a2.655,2.655,0,1,1-2.655,2.655A2.658,2.658,0,0,1,37.425,37.77Z" transform="translate(-3.795 -4.141)"/>
        <path id="Trazado_836234" data-name="Trazado 836234" d="M26.85,33H25.08a2.655,2.655,0,0,1-5.31,0H18a4.425,4.425,0,0,0,8.85,0Z" transform="translate(-2.07 -3.795)"/>
        <path id="Trazado_836235" data-name="Trazado 836235" d="M54.869,35.952,48.191,28.32H38.939V19.307a2.625,2.625,0,0,0,.885.163h.885v1.4a2.136,2.136,0,0,0,3.647,1.511l2.914-2.914h3.174A2.658,2.658,0,0,0,53.1,16.815V2.655A2.658,2.658,0,0,0,50.444,0H39.824a2.658,2.658,0,0,0-2.655,2.655v8.066a18.57,18.57,0,0,0-35.4,7.864V30.113A4.534,4.534,0,0,1,.851,32.8,4.358,4.358,0,0,0,0,35.4a4.432,4.432,0,0,0,3.6,4.348,5.319,5.319,0,0,0,5.073,4.5,5.3,5.3,0,0,0,4.6,2.658H16.5a11.263,11.263,0,0,0,8.938,4.425H29.2a2.635,2.635,0,0,0,1.771-.691V53.1a1.772,1.772,0,0,0,1.77,1.77h1.77a1.772,1.772,0,0,0,1.77-1.77v-1.77H54.868V35.952Zm-6.195-4.392,3.359,3.84H48.674Zm-8.85,4.725a6.195,6.195,0,1,1-6.195-6.195A6.2,6.2,0,0,1,39.824,36.284Zm-5.31,7.965a.886.886,0,0,1,.885.885V46.9a.886.886,0,0,1-.885.885H31.859V45.343l.3-.6a.88.88,0,0,1,.791-.489ZM18.585,35.4A9.746,9.746,0,0,1,8.85,25.665v-.1A6.189,6.189,0,0,0,19.47,21.24v-.885a.885.885,0,1,1,1.77,0v.885a6.189,6.189,0,0,0,10.62,4.327v.1a9.713,9.713,0,0,1-.475,2.982,7.987,7.987,0,0,0-5.55,6.006,9.647,9.647,0,0,1-3.71.747ZM20.6,13.275H28.32a3.544,3.544,0,0,1,3.54,3.54v.1a6.185,6.185,0,0,0-9.867,1.369,2.6,2.6,0,0,0-3.276,0A6.185,6.185,0,0,0,8.85,16.913V14.625a4.443,4.443,0,0,1,3.209-4.254l1.395-.4a9.454,9.454,0,0,0,7.149,3.3Zm6.832,3.54A4.425,4.425,0,1,1,23.01,21.24,4.43,4.43,0,0,1,27.435,16.815Zm-14.16,0A4.425,4.425,0,1,1,8.85,21.24,4.43,4.43,0,0,1,13.275,16.815ZM25.681,36.6a7.951,7.951,0,0,0,2.953,5.877h-1.81a3.442,3.442,0,0,1-3.411-3.011,4.618,4.618,0,0,0-.978-2.316,11.388,11.388,0,0,0,3.245-.55ZM38.939,2.655a.886.886,0,0,1,.885-.885h10.62a.886.886,0,0,1,.885.885v14.16a.886.886,0,0,1-.885.885H46.538l-3.432,3.432a.38.38,0,0,1-.627-.258V17.7H39.824a.886.886,0,0,1-.885-.885ZM13.275,45.134a3.536,3.536,0,0,1-3.257-2.153l-.25-.585-.635.05c-.063.005-.125.013-.186.021a.725.725,0,0,1-.1.012,3.544,3.544,0,0,1-3.54-3.54v-.885H4.425A2.658,2.658,0,0,1,1.77,35.4a2.587,2.587,0,0,1,.508-1.546,6.3,6.3,0,0,0,1.262-3.74V18.585a16.815,16.815,0,1,1,33.629,0V28.32h-3.54c-.109,0-.215.012-.323.016a11.478,11.478,0,0,0,.323-2.671v-8.85a5.315,5.315,0,0,0-5.31-5.31H20.6A7.688,7.688,0,0,1,13.24,5.952l-1.7.486a9.32,9.32,0,0,0,.839,2l-.8.23A6.22,6.22,0,0,0,7.08,14.624v11.04a11.516,11.516,0,0,0,8.46,11.083,4.63,4.63,0,0,0-1.38,3.3,11.2,11.2,0,0,0,1.227,5.09Zm16.814,3.54a.886.886,0,0,1-.885.885h-3.76a9.526,9.526,0,0,1-9.514-9.514,2.875,2.875,0,0,1,5.728-.357,5.215,5.215,0,0,0,5.167,4.561H29.2a.886.886,0,0,1,.885.885ZM34.514,53.1h-1.77v-3.54h1.77Zm1.77-3.54v-.69a2.64,2.64,0,0,0,.885-1.965v-1.77a2.637,2.637,0,0,0-.469-1.5A7.956,7.956,0,0,0,38.624,30.09H46.9v7.08H53.1v12.39Z"/>
        <path id="Trazado_836236" data-name="Trazado 836236" d="M54.739,12.544l-1.251-1.251-3.8,3.8-1.144-1.144L47.293,15.2l2.4,2.4Z" transform="translate(-5.439 -1.299)"/>
        <path id="Trazado_836237" data-name="Trazado 836237" d="M48.544,9.854l2.029-2.029L52.6,9.854,53.854,8.6,51.825,6.574l2.029-2.029L52.6,3.293,50.574,5.322,48.544,3.293,47.293,4.544l2.029,2.029L47.293,8.6Z" transform="translate(-5.439 -0.379)"/>
        <path id="Trazado_836238" data-name="Trazado 836238" d="M49,44h7.965v1.77H49Z" transform="translate(-5.636 -5.061)"/>
        <path id="Trazado_836239" data-name="Trazado 836239" d="M49,48h7.965v1.77H49Z" transform="translate(-5.636 -5.521)"/>
        <path id="Trazado_836240" data-name="Trazado 836240" d="M49,52h7.965v1.77H49Z" transform="translate(-5.636 -5.981)"/>
      </g>
    </g>
  </g>
</svg>
