<svg xmlns="http://www.w3.org/2000/svg" xmlns:xlink="http://www.w3.org/1999/xlink" width="119" height="119" viewBox="0 0 119 119">
  <defs>
    <filter id="Trazado_836184" x="0" y="0" width="119" height="119" filterUnits="userSpaceOnUse">
      <feOffset input="SourceAlpha"/>
      <feGaussianBlur stdDeviation="5.5" result="blur"/>
      <feFlood flood-color="#fff" flood-opacity="0.659"/>
      <feComposite operator="in" in2="blur"/>
      <feComposite in="SourceGraphic"/>
    </filter>
  </defs>
  <g id="Grupo_1093891" data-name="Grupo 1093891" transform="translate(-797.5 -5485.5)">
    <g transform="matrix(1, 0, 0, 1, 797.5, 5485.5)" filter="url(#Trazado_836184)">
      <path id="Trazado_836184-2" data-name="Trazado 836184" d="M43,0A43,43,0,1,1,0,43,43,43,0,0,1,43,0Z" transform="translate(16.5 16.5)" fill="#ffce00"/>
    </g>
    <g id="Grupo_1093888" data-name="Grupo 1093888" transform="translate(2.188 1)">
      <g id="_5_Manual_Book" data-name="5 Manual Book" transform="translate(777.319 5515.318)">
        <path id="Trazado_836294" data-name="Trazado 836294" d="M135.442,396a3.838,3.838,0,0,0-1.633,3.2,3.751,3.751,0,0,0,1.633,2.8h-29.6a2.908,2.908,0,0,1-2.8-3,3.086,3.086,0,0,1,.821-2.119,2.7,2.7,0,0,1,1.985-.878Z" transform="translate(-42.533 -352.551)" fill="#f7f5fa"/>
        <path id="Trazado_836295" data-name="Trazado 836295" d="M100.048,15.281V44.532H68.723a6.6,6.6,0,0,0-4.848,2.148,7.549,7.549,0,0,0-2.007,5.182V15.282A4.281,4.281,0,0,1,66.15,11H95.767a4.281,4.281,0,0,1,4.281,4.281Z" transform="translate(-5.41 -5.41)" fill="#90d1bb"/>
        <path id="Trazado_836296" data-name="Trazado 836296" d="M100.047,365.233a1.419,1.419,0,0,1-1.419,1.419h-29.9a7.111,7.111,0,0,1-6.855-7.328,7.549,7.549,0,0,1,2.007-5.181A6.6,6.6,0,0,1,68.723,352h31.324v2.655a1.681,1.681,0,0,1-1.684,1.672H68.723a2.7,2.7,0,0,0-1.982.878,3.088,3.088,0,0,0-.82,2.118,2.908,2.908,0,0,0,2.8,3h29.9a1.419,1.419,0,0,1,1.419,1.419Z" transform="translate(-5.41 -312.878)" fill="#75b59f"/>
        <path id="Trazado_836297" data-name="Trazado 836297" d="M183.291,54.62V53.184a.5.5,0,0,0-.5-.5h-1.1a.492.492,0,0,1-.486-.381,6.95,6.95,0,0,0-.867-2.093.5.5,0,0,1,.073-.614l.777-.776a.5.5,0,0,0,0-.706L180.176,47.1a.5.5,0,0,0-.706,0l-.777.777a.5.5,0,0,1-.614.073,6.982,6.982,0,0,0-2.091-.867.492.492,0,0,1-.382-.485V45.5a.5.5,0,0,0-.5-.5h-1.436a.5.5,0,0,0-.5.5v1.1a.492.492,0,0,1-.382.485,6.982,6.982,0,0,0-2.091.866.5.5,0,0,1-.614-.073l-.777-.777a.5.5,0,0,0-.706,0l-1.015,1.017a.5.5,0,0,0,0,.706l.777.776a.5.5,0,0,1,.073.614,6.95,6.95,0,0,0-.867,2.092.492.492,0,0,1-.486.381h-1.1a.5.5,0,0,0-.5.5V54.62a.5.5,0,0,0,.5.5h1.1a.5.5,0,0,1,.486.382,6.955,6.955,0,0,0,.867,2.091.5.5,0,0,1-.073.614l-.777.777a.5.5,0,0,0,0,.706L168.6,60.7a.5.5,0,0,0,.706,0l.777-.776a.5.5,0,0,1,.614-.073,6.952,6.952,0,0,0,2.091.866.492.492,0,0,1,.382.486v1.1a.5.5,0,0,0,.5.492h1.436a.5.5,0,0,0,.5-.5V61.207a.492.492,0,0,1,.382-.486,6.952,6.952,0,0,0,2.091-.866.5.5,0,0,1,.614.073l.777.776a.5.5,0,0,0,.706,0l1.015-1.015a.5.5,0,0,0,0-.706l-.777-.777a.5.5,0,0,1-.073-.614,6.955,6.955,0,0,0,.867-2.091.5.5,0,0,1,.486-.382h1.1A.5.5,0,0,0,183.291,54.62Z" transform="translate(-98.842 -36.067)" fill="#4a5159"/>
        <circle id="Elipse_11161" data-name="Elipse 11161" cx="4.116" cy="4.116" r="4.116" transform="translate(71.144 21.419) rotate(-84.289)" fill="#f7f5fa"/>
        <path id="Trazado_836298" data-name="Trazado 836298" d="M117.189,402H105.873a2.909,2.909,0,0,1-2.8-3,3.086,3.086,0,0,1,.821-2.119,2.7,2.7,0,0,1,1.982-.884h4.14a49.35,49.35,0,0,0,7.177,6Z" transform="translate(-42.56 -352.551)" fill="#e4e4e8"/>
        <path id="Trazado_836299" data-name="Trazado 836299" d="M69.048,235.568h-.325a6.6,6.6,0,0,0-4.848,2.148,7.549,7.549,0,0,0-2.007,5.182V222.87a49.092,49.092,0,0,0,7.179,12.7Z" transform="translate(-5.41 -196.446)" fill="#89c0ac"/>
        <path id="Trazado_836300" data-name="Trazado 836300" d="M87.772,366.652H68.723a7.112,7.112,0,0,1-6.855-7.328,7.549,7.549,0,0,1,2.007-5.181A6.6,6.6,0,0,1,68.723,352h.326a49.12,49.12,0,0,0,3.814,4.327h-4.14a2.7,2.7,0,0,0-1.982.878,3.088,3.088,0,0,0-.82,2.118,2.908,2.908,0,0,0,2.8,3H80.039a48.841,48.841,0,0,0,7.732,4.333Z" transform="translate(-5.41 -312.878)" fill="#63a38b"/>
        <g id="Grupo_1093885" data-name="Grupo 1093885" transform="translate(55.868 5)">
          <path id="Trazado_836301" data-name="Trazado 836301" d="M130.032,397.178h-29.6a3.5,3.5,0,0,1-3.394-3.585,3.677,3.677,0,0,1,.983-2.522A3.289,3.289,0,0,1,100.436,390h29.6a.59.59,0,0,1,.325,1.082,3.267,3.267,0,0,0-1.37,2.671,3.151,3.151,0,0,0,1.368,2.336.59.59,0,0,1-.324,1.082Zm-29.6-6a2.119,2.119,0,0,0-1.553.688,2.5,2.5,0,0,0-.661,1.716,2.318,2.318,0,0,0,2.214,2.405h28.157a4.017,4.017,0,0,1,.022-4.813Z" transform="translate(-92.991 -352.141)" fill="#010101"/>
          <path id="Trazado_836302" data-name="Trazado 836302" d="M56.46,47.037a.59.59,0,0,1-.59-.59V24.814a.59.59,0,0,1,1.18,0v17.35a7.928,7.928,0,0,1,.983-1.3,7.192,7.192,0,0,1,5.282-2.33H94.05V9.871A3.7,3.7,0,0,0,90.359,6.18H60.74A3.7,3.7,0,0,0,57.05,9.871V20.209a.59.59,0,0,1-1.18,0V9.871A4.876,4.876,0,0,1,60.74,5H90.359A4.876,4.876,0,0,1,95.23,9.871V39.122a.59.59,0,0,1-.59.59H63.315A6.019,6.019,0,0,0,58.9,41.673a6.959,6.959,0,0,0-1.848,4.779.59.59,0,0,1-.59.585Z" transform="translate(-55.87 -5)" fill="#010101"/>
          <path id="Trazado_836303" data-name="Trazado 836303" d="M56.46,174.635a.59.59,0,0,1-.59-.59v-.885a.59.59,0,0,1,1.18,0v.885A.59.59,0,0,1,56.46,174.635Z" transform="translate(-55.87 -156.092)" fill="#010101"/>
          <path id="Trazado_836304" data-name="Trazado 836304" d="M93.218,361.832h-29.9a7.7,7.7,0,0,1-7.445-7.918,8.139,8.139,0,0,1,2.163-5.584A7.19,7.19,0,0,1,63.313,346H94.637a.59.59,0,0,1,.59.59v2.655a2.273,2.273,0,0,1-2.274,2.262H63.313a2.116,2.116,0,0,0-1.552.688,2.5,2.5,0,0,0-.661,1.715,2.318,2.318,0,0,0,2.213,2.406h29.9a2.011,2.011,0,0,1,2.009,2.009v1.494A2.011,2.011,0,0,1,93.218,361.832Zm-29.9-14.652a6.018,6.018,0,0,0-4.417,1.96,6.963,6.963,0,0,0-1.848,4.778,6.522,6.522,0,0,0,6.265,6.738h29.9a.83.83,0,0,0,.829-.829v-1.5a.83.83,0,0,0-.829-.829h-29.9a3.5,3.5,0,0,1-3.393-3.586,3.671,3.671,0,0,1,.983-2.52,3.286,3.286,0,0,1,2.409-1.067h29.64a1.091,1.091,0,0,0,1.09-1.091V347.18Z" transform="translate(-55.868 -312.468)" fill="#010101"/>
          <path id="Trazado_836305" data-name="Trazado 836305" d="M169.7,57.979h-1.436a1.091,1.091,0,0,1-1.09-1.082v-1.03a7.519,7.519,0,0,1-2.129-.885l-.726.725a1.091,1.091,0,0,1-1.541,0L161.762,54.7a1.09,1.09,0,0,1,0-1.54l.726-.726a7.51,7.51,0,0,1-.885-2.13h-1.024a1.091,1.091,0,0,1-1.09-1.09V47.774a1.091,1.091,0,0,1,1.09-1.09h1.026a7.5,7.5,0,0,1,.885-2.129l-.726-.726a1.089,1.089,0,0,1,0-1.541l1.015-1.015a1.091,1.091,0,0,1,1.541,0l.727.726a7.521,7.521,0,0,1,2.129-.885V40.091A1.09,1.09,0,0,1,168.262,39H169.7a1.091,1.091,0,0,1,1.09,1.092v1.026a7.533,7.533,0,0,1,2.129.885l.726-.726a1.091,1.091,0,0,1,1.541,0l1.015,1.013a1.089,1.089,0,0,1,0,1.541l-.728.726a7.505,7.505,0,0,1,.885,2.129h1.026a1.091,1.091,0,0,1,1.09,1.09V49.21a1.091,1.091,0,0,1-1.09,1.09h-1.026a7.511,7.511,0,0,1-.885,2.13l.728.731a1.09,1.09,0,0,1,0,1.54l-1.015,1.015a1.091,1.091,0,0,1-1.541,0l-.729-.73a7.531,7.531,0,0,1-2.129.885V56.9A1.091,1.091,0,0,1,169.7,57.979Zm-1.345-1.18h1.255v-1a1.082,1.082,0,0,1,.837-1.063,6.356,6.356,0,0,0,1.915-.787,1.082,1.082,0,0,1,1.341.152l.713.713.885-.885-.713-.714a1.082,1.082,0,0,1-.156-1.342,6.382,6.382,0,0,0,.794-1.915,1.082,1.082,0,0,1,1.06-.837h1.006V47.865h-1a1.082,1.082,0,0,1-1.06-.837,6.365,6.365,0,0,0-.794-1.914,1.082,1.082,0,0,1,.154-1.342l.712-.712-.885-.885-.712.71a1.082,1.082,0,0,1-1.341.156,6.353,6.353,0,0,0-1.915-.8,1.082,1.082,0,0,1-.837-1.06v-1h-1.255v1.009a1.082,1.082,0,0,1-.837,1.056,6.337,6.337,0,0,0-1.914.793,1.082,1.082,0,0,1-1.342-.152l-.713-.712-.885.885.713.714a1.082,1.082,0,0,1,.156,1.342,6.365,6.365,0,0,0-.794,1.914,1.082,1.082,0,0,1-1.06.837H160.67V49.12h1.006a1.082,1.082,0,0,1,1.06.837,6.381,6.381,0,0,0,.794,1.915,1.082,1.082,0,0,1-.154,1.342l-.712.712.885.885.713-.713a1.082,1.082,0,0,1,1.341-.15,6.341,6.341,0,0,0,1.914.787,1.082,1.082,0,0,1,.837,1.06Z" transform="translate(-149.3 -35.657)" fill="#010101"/>
          <path id="Trazado_836306" data-name="Trazado 836306" d="M213.036,97.251a4.686,4.686,0,1,1,4.686-4.686A4.686,4.686,0,0,1,213.036,97.251Zm0-8.191a3.506,3.506,0,1,0,3.506,3.506A3.506,3.506,0,0,0,213.036,89.06Z" transform="translate(-193.356 -79.73)" fill="#010101"/>
          <path id="Trazado_836307" data-name="Trazado 836307" d="M181.857,264.87H165.03a.59.59,0,1,1,0-1.18h16.827a.59.59,0,1,1,0,1.18Z" transform="translate(-153.764 -238.252)" fill="#010101"/>
          <path id="Trazado_836308" data-name="Trazado 836308" d="M215.693,302.87H207.15a.59.59,0,0,1,0-1.18h8.543a.59.59,0,0,1,0,1.18Z" transform="translate(-191.742 -272.515)" fill="#010101"/>
          <path id="Trazado_836309" data-name="Trazado 836309" d="M333.18,428.67a.59.59,0,0,1,0-1.18h4.34a.59.59,0,1,1,0,1.18Z" transform="translate(-305.378 -385.944)" fill="#010101"/>
          <path id="Trazado_836310" data-name="Trazado 836310" d="M133.19,421.67a.59.59,0,1,1,0-1.18h12a.59.59,0,1,1,0,1.18Z" transform="translate(-125.055 -379.633)" fill="#010101"/>
        </g>
      </g>
      <g id="ahorrar-tiempo_1_" data-name="ahorrar-tiempo (1)" transform="translate(811.357 5540.355)">
        <g id="Grupo_1093886" data-name="Grupo 1093886" transform="translate(51.475 4.955)">
          <path id="Trazado_836311" data-name="Trazado 836311" d="M0,0H2.463V2.463H0Z" transform="translate(16.232 3.481) rotate(-137.796)" fill="#ffda8f"/>
          <path id="Trazado_836312" data-name="Trazado 836312" d="M0,0H2.463V2.463H0Z" transform="translate(0.678 1.662) rotate(-42.204)" fill="#ffda8f"/>
          <ellipse id="Elipse_11162" data-name="Elipse 11162" cx="9.253" cy="9.248" rx="9.253" ry="9.248" transform="translate(0 0.377)" fill="#ffda8f"/>
        </g>
        <ellipse id="Elipse_11163" data-name="Elipse 11163" cx="7.355" cy="7.351" rx="7.355" ry="7.351" transform="translate(53.373 7.229)" fill="#fff"/>
        <path id="Trazado_836313" data-name="Trazado 836313" d="M191.092,11.123V12.6l1.232.616.616,1.847H195.4l.616-1.847,1.232-.616V11.123a.985.985,0,0,0-.986-.985h-4.189a.985.985,0,0,0-.986.985Z" transform="translate(-133.444 -9.657)" fill="#ffda8f"/>
        <path id="Trazado_836314" data-name="Trazado 836314" d="M263.355,159.689a7.344,7.344,0,0,1-3.425,6.214L256,159.676v-7.338A7.353,7.353,0,0,1,263.355,159.689Z" transform="translate(-195.272 -145.109)" fill="#ff7a7a"/>
        <g id="Grupo_1093887" data-name="Grupo 1093887" transform="translate(51 0)">
          <path id="Trazado_836315" data-name="Trazado 836315" d="M98.83,157.987A7.826,7.826,0,1,0,91,150.162,7.837,7.837,0,0,0,98.83,157.987Zm6.881-7.826A6.87,6.87,0,0,1,102.9,155.7l-3.366-5.333,4.51-1.871a.475.475,0,0,0-.364-.877L99.3,149.438V143.3A6.9,6.9,0,0,1,105.71,150.162Zm-7.355-6.86v6.984l3.741,5.927A6.877,6.877,0,1,1,98.355,143.3Z" transform="translate(-89.102 -135.582)"/>
          <path id="Trazado_836316" data-name="Trazado 836316" d="M70.258,12.62a9.66,9.66,0,0,0-1.463-3.476q-.229-.338-.486-.656l1.411-1.553a.474.474,0,0,0-.032-.671L67.862,4.609a.475.475,0,0,0-.67.032l-1.456,1.6a9.657,9.657,0,0,0-3.048-1.189l-.1-.02L62.964,3.9l1.058-.528a.477.477,0,0,0,.265-.425V1.466A1.471,1.471,0,0,0,62.822,0H58.633a1.471,1.471,0,0,0-1.465,1.466V2.944a.477.477,0,0,0,.265.424l1.057.528.38,1.139-.1.019A9.649,9.649,0,0,0,55.76,6.22L54.326,4.641a.474.474,0,0,0-.67-.032L51.831,6.264a.474.474,0,0,0-.033.67l1.378,1.517c-.182.223-.354.454-.515.692a9.736,9.736,0,0,0-1,8.979.473.473,0,0,0,.177.221.474.474,0,0,0,.706-.567,8.778,8.778,0,0,1,7-11.893H61.9a8.774,8.774,0,1,1-7.07,15.2.475.475,0,1,0-.638.7,9.643,9.643,0,0,0,2.972,1.844,9.681,9.681,0,0,0,3.562.67h0a9.77,9.77,0,0,0,1.96-.195,9.666,9.666,0,0,0,3.478-1.46,9.742,9.742,0,0,0,3.525-4.277,9.656,9.656,0,0,0,.567-1.825,9.8,9.8,0,0,0,0-3.919ZM53.85,7.7l-.036.037L52.82,6.648,53.942,5.63,54.96,6.751A9.8,9.8,0,0,0,53.85,7.7Zm7.768-2.77h-1.78l-.355-1.067a4.981,4.981,0,0,1,2.49,0ZM58.91,3.045l-.792-.394V1.466a.521.521,0,0,1,.515-.517h4.189a.521.521,0,0,1,.515.517V2.65l-.795.4A5.858,5.858,0,0,0,58.91,3.045Zm7.648,3.706L67.575,5.63,68.7,6.648,67.679,7.769Z" transform="translate(-51 0)"/>
          <path id="Trazado_836317" data-name="Trazado 836317" d="M131.474,297.38a.475.475,0,1,0,.475.474A.475.475,0,0,0,131.474,297.38Z" transform="translate(-127.204 -283.268)"/>
          <path id="Trazado_836318" data-name="Trazado 836318" d="M246.544,413.129a.475.475,0,1,0-.475-.474A.475.475,0,0,0,246.544,413.129Z" transform="translate(-236.813 -392.621)"/>
          <path id="Trazado_836319" data-name="Trazado 836319" d="M361,297.465v.011a.475.475,0,0,0,.949,0v-.014a.475.475,0,0,0-.949,0Z" transform="translate(-346.29 -282.897)"/>
          <circle id="Elipse_11164" data-name="Elipse 11164" cx="0.475" cy="0.475" r="0.475" transform="translate(1.634 19.355)"/>
        </g>
      </g>
    </g>
  </g>
</svg>
