<svg xmlns="http://www.w3.org/2000/svg" xmlns:xlink="http://www.w3.org/1999/xlink" width="119" height="119" viewBox="0 0 119 119">
  <defs>
    <filter id="Trazado_836185" x="0" y="0" width="119" height="119" filterUnits="userSpaceOnUse">
      <feOffset input="SourceAlpha"/>
      <feGaussianBlur stdDeviation="5.5" result="blur"/>
      <feFlood flood-color="#fff" flood-opacity="0.659"/>
      <feComposite operator="in" in2="blur"/>
      <feComposite in="SourceGraphic"/>
    </filter>
  </defs>
  <g id="Grupo_1093890" data-name="Grupo 1093890" transform="translate(-1112.5 -5485.5)">
    <g transform="matrix(1, 0, 0, 1, 1112.5, 5485.5)" filter="url(#Trazado_836185)">
      <path id="Trazado_836185-2" data-name="Trazado 836185" d="M43,0A43,43,0,1,1,0,43,43,43,0,0,1,43,0Z" transform="translate(16.5 16.5)" fill="#ffce00"/>
    </g>
    <g id="aprendiendo" transform="translate(1114.259 5509.104)">
      <path id="Trazado_836320" data-name="Trazado 836320" d="M43.869,340.358a2.1,2.1,0,1,1,0-4.2h40.64a5.465,5.465,0,0,1,5.458,5.458v7.065a5.465,5.465,0,0,1-5.458,5.457H43.869a2.1,2.1,0,0,1,0-4.2h40.64a1.266,1.266,0,0,0,1.26-1.259v-7.064a1.266,1.266,0,0,0-1.26-1.26Z" transform="translate(-7.126 -291.248)" fill="#8bcaff" fill-rule="evenodd"/>
      <path id="Trazado_836321" data-name="Trazado 836321" d="M101.07,373.48H60.43v9.584h40.64a1.266,1.266,0,0,0,1.26-1.259V374.74A1.266,1.266,0,0,0,101.07,373.48Z" transform="translate(-23.687 -324.37)" fill="#f4f4f4" fill-rule="evenodd"/>
      <path id="Trazado_836322" data-name="Trazado 836322" d="M60.43,400.51H91.9a1.213,1.213,0,0,1,1.215,1.21V402.8a1.212,1.212,0,0,1-1.21,1.209H60.43Z" transform="translate(-23.687 -348.359)" fill="#e7e7e7" fill-rule="evenodd"/>
      <g id="Grupo_1093889" data-name="Grupo 1093889" transform="translate(47.807 12.089)">
        <path id="Trazado_836323" data-name="Trazado 836323" d="M0,0H8.625V2.488H0Z" transform="matrix(0.5, -0.866, 0.866, 0.5, 14.851, 7.469)" fill="#423e42"/>
        <path id="Trazado_836324" data-name="Trazado 836324" d="M0,0H2.488V7.34H0Z" transform="matrix(0.866, -0.5, 0.5, 0.866, 0.599, 1.93)" fill="#423e42"/>
        <rect id="Rectángulo_386997" data-name="Rectángulo 386997" width="8.316" height="3.514" rx="1.757" transform="matrix(0.5, -0.866, 0.866, 0.5, 0, 31.938)" fill="#423e42"/>
        <path id="Trazado_836325" data-name="Trazado 836325" d="M284.854,270.064l.169-.1a1.665,1.665,0,0,1,2.264.607l2.5,4.326a1.667,1.667,0,0,1-.609,2.269l-.168.1a1.665,1.665,0,0,1-2.268-.607l-2.492-4.327A1.665,1.665,0,0,1,284.854,270.064Z" transform="translate(-269.939 -244.396)" fill="#423e42" fill-rule="evenodd"/>
      </g>
      <circle id="Elipse_11165" data-name="Elipse 11165" cx="12.675" cy="12.675" r="12.675" transform="translate(45.891 16.456)" fill="#ffe177"/>
      <circle id="Elipse_11166" data-name="Elipse 11166" cx="9.772" cy="9.772" r="9.772" transform="translate(48.795 19.36)" fill="#f4f4f4"/>
      <path id="Trazado_836326" data-name="Trazado 836326" d="M304.507,16.275l3.862,2.23a2.116,2.116,0,0,1,.768,2.888l-.774,1.342a.562.562,0,0,1-.768.206l-6.545-3.783a.562.562,0,0,1-.206-.768l.775-1.342A2.116,2.116,0,0,1,304.507,16.275Z" transform="translate(-236.991 -7.095)" fill="#ffe177" fill-rule="evenodd"/>
      <path id="Trazado_836327" data-name="Trazado 836327" d="M135.4,24.822l3.858-2.23a2.116,2.116,0,0,1,2.883.773l.775,1.342a.562.562,0,0,1-.206.768l-6.54,3.775a.562.562,0,0,1-.768-.206l-.775-1.341A2.118,2.118,0,0,1,135.4,24.822Z" transform="translate(-89.286 -12.704)" fill="#ffe177" fill-rule="evenodd"/>
      <path id="Trazado_836328" data-name="Trazado 836328" d="M81.941,57.434a4.565,4.565,0,0,1-4.558,4.558H36.743a1.2,1.2,0,1,1,0-2.4h40.64a2.167,2.167,0,0,0,2.16-2.161V50.369a2.168,2.168,0,0,0-2.16-2.16H36.743a1.2,1.2,0,1,1,0-2.4h40.64a4.565,4.565,0,0,1,4.558,4.557Zm-13.724-.881H37.642v1.237h39.74a.364.364,0,0,0,.36-.36V50.369a.353.353,0,0,0-.112-.251.358.358,0,0,0-.253-.112H37.642v1.237H68.214a2.114,2.114,0,0,1,2.115,2.117v1.083a2.114,2.114,0,0,1-2.11,2.11Zm-30.575-3.5v1.7H68.214a.314.314,0,0,0,.31-.31V53.36a.315.315,0,0,0-.31-.309Zm11.7-9.429a.759.759,0,0,1,.074-.577L50.96,40.37a13.289,13.289,0,0,0,1.483.872L50.9,43.9a.705.705,0,0,1-.078.112H49.587a.758.758,0,0,1-.25-.389Zm-2.55-14.491A11.777,11.777,0,1,0,58.567,17.356,11.777,11.777,0,0,0,46.791,29.131ZM58.567,42.706a13.586,13.586,0,0,0,3.752-.526l1.057,1.831H52.914L54.1,41.953a13.511,13.511,0,0,0,4.461.753Zm8.31.337a.764.764,0,0,1-.175.966H65.469a.7.7,0,0,1-.078-.112l-1.355-2.345a13.854,13.854,0,0,0,1.523-.793l1.317,2.281Zm-15.931-27.8L52.077,17.2l-.6.345-1.133-1.963.6-.337Zm-4.223.36,5.962-3.441-.605-1.048a1.214,1.214,0,0,0-1.661-.444L46.56,12.9a1.219,1.219,0,0,0-.443,1.656Zm18.93,1.946-.6-.345,1.526-2.645.6.343ZM65.407,10.4l-.605,1.05,5.962,3.441.6-1.045a1.213,1.213,0,0,0-.443-1.654L67.067,9.958a1.213,1.213,0,0,0-1.655.443Zm16.47,35.474a6.324,6.324,0,0,0-4.5-1.864H68.706a2.54,2.54,0,0,0-.271-1.866l-1.394-2.415a13.557,13.557,0,0,0,.082-21.13l1.616-2.8,1.9,1.1a.9.9,0,0,0,1.23-.33l1.055-1.825a3.012,3.012,0,0,0-1.1-4.112L67.966,8.4a3.012,3.012,0,0,0-4.113,1.1l-1.062,1.827a.9.9,0,0,0,.33,1.23l1.9,1.1-1.612,2.794a13.543,13.543,0,0,0-9.691,0L52.5,14.34l1.858-1.072a.9.9,0,0,0,.331-1.23l-1.057-1.827a3.012,3.012,0,0,0-4.117-1.1L45.66,11.338a3.017,3.017,0,0,0-1.1,4.114l1.055,1.829a.9.9,0,0,0,.547.418.865.865,0,0,0,.233.03.9.9,0,0,0,.45-.119l1.947-1.125L50.012,18.6a13.554,13.554,0,0,0-.483,20.651l-1.67,2.894a2.54,2.54,0,0,0-.271,1.866H36.743a3,3,0,0,0-.9,5.861v8.061a3,3,0,0,0,.9,5.861h40.64a6.364,6.364,0,0,0,6.358-6.359V50.369a6.322,6.322,0,0,0-1.864-4.494Zm-26.37-13.9,2.16-3.122v-5.34a.9.9,0,1,1,1.8,0v5.9l-2.475,3.583a.9.9,0,1,1-1.48-1.024Zm3.06-11.712A8.872,8.872,0,1,1,49.7,29.13,8.872,8.872,0,0,1,58.567,20.259Zm0,19.543A10.671,10.671,0,1,1,69.239,29.13,10.671,10.671,0,0,1,58.567,39.8Z" fill="#242222" fill-rule="evenodd"/>
    </g>
  </g>
</svg>
