<svg xmlns="http://www.w3.org/2000/svg" xmlns:xlink="http://www.w3.org/1999/xlink" width="119" height="119" viewBox="0 0 119 119">
  <defs>
    <filter id="Trazado_822180" x="0" y="0" width="119" height="119" filterUnits="userSpaceOnUse">
      <feOffset input="SourceAlpha"/>
      <feGaussianBlur stdDeviation="5.5" result="blur"/>
      <feFlood flood-color="#fff" flood-opacity="0.659"/>
      <feComposite operator="in" in2="blur"/>
      <feComposite in="SourceGraphic"/>
    </filter>
  </defs>
  <g id="Grupo_1094136" data-name="Grupo 1094136" transform="translate(-503.5 -5546.5)">
    <g transform="matrix(1, 0, 0, 1, 503.5, 5546.5)" filter="url(#Trazado_822180)">
      <path id="Trazado_822180-2" data-name="Trazado 822180" d="M43,0A43,43,0,1,1,0,43,43,43,0,0,1,43,0Z" transform="translate(16.5 16.5)" fill="#ffce00"/>
    </g>
    <g id="continuo" transform="translate(526.975 5576.207)">
      <g id="Grupo_1094135" data-name="Grupo 1094135" transform="translate(20.954 0.901)">
        <g id="Grupo_1094133" data-name="Grupo 1094133" transform="translate(0 14.712)">
          <path id="Trazado_836955" data-name="Trazado 836955" d="M136.949,145.258a10.569,10.569,0,0,1,2.774,1.15l3.472-2.514,2.778,2.778-2.514,3.472a10.575,10.575,0,0,1,1.15,2.774l4.231.677v3.929l-4.231.677a10.57,10.57,0,0,1-1.15,2.774l2.514,3.472-2.778,2.778-3.472-2.514a10.575,10.575,0,0,1-2.774,1.15l-.677,4.231h-3.929l-.677-4.231a10.567,10.567,0,0,1-2.774-1.15l-3.472,2.514-2.778-2.778,2.514-3.472a10.576,10.576,0,0,1-1.15-2.774l-4.231-.677V153.6l4.231-.677a10.566,10.566,0,0,1,1.15-2.774l-2.514-3.472,2.778-2.778,3.472,2.514a10.573,10.573,0,0,1,2.774-1.15l.677-4.231h3.929Z" transform="translate(-119.774 -141.027)" fill="#0bdb3c" fill-rule="evenodd"/>
          <path id="Trazado_836956" data-name="Trazado 836956" d="M323.52,181.256a10.566,10.566,0,0,1-1.15,2.774l2.514,3.472-2.244,2.244.738.534,2.778-2.778-2.514-3.472a10.567,10.567,0,0,0,1.15-2.774l4.231-.677v-3.929l-4.231-.677a10.576,10.576,0,0,0-1.15-2.774l2.514-3.472-2.778-2.778-.738.534,2.244,2.244L322.37,173.2a10.575,10.575,0,0,1,1.15,2.774l4.231.677v3.929Z" transform="translate(-299.957 -164.08)" fill="#00831f" fill-rule="evenodd"/>
          <circle id="Elipse_11179" data-name="Elipse 11179" cx="5.805" cy="5.805" r="5.805" transform="translate(7.881 9.735) rotate(-9.321)" fill="#eceff1"/>
          <path id="Trazado_836957" data-name="Trazado 836957" d="M199.938,225.727a5.806,5.806,0,0,0,5.169,5.771,5.81,5.81,0,0,1-6.441-5.771,5.8,5.8,0,0,1,5.805-5.805,5.887,5.887,0,0,1,.636.034,5.8,5.8,0,0,0-5.169,5.771Z" transform="translate(-189.938 -211.194)" fill="#d1d1d6" fill-rule="evenodd"/>
        </g>
        <g id="Grupo_1094134" data-name="Grupo 1094134" transform="translate(9.404)">
          <path id="Trazado_836958" data-name="Trazado 836958" d="M205.838,8.042h8.135A1.065,1.065,0,0,1,215.035,9.1v8.135a1.065,1.065,0,0,1-1.062,1.062h-8.135a1.065,1.065,0,0,1-1.062-1.062V9.1A1.065,1.065,0,0,1,205.838,8.042Z" transform="translate(-204.776 -8.042)" fill="#8ac9fe" fill-rule="evenodd"/>
          <path id="Trazado_836959" data-name="Trazado 836959" d="M213.928,8.042h.044A1.065,1.065,0,0,1,215.034,9.1v8.135a1.065,1.065,0,0,1-1.062,1.062h-8.135a1.065,1.065,0,0,1-1.062-1.062v-.044h8.091a1.065,1.065,0,0,0,1.062-1.062Z" transform="translate(-204.775 -8.042)" fill="#60b7ff" fill-rule="evenodd"/>
        </g>
      </g>
      <path id="Trazado_836960" data-name="Trazado 836960" d="M38.338,5.011,35.793,8.157a.881.881,0,0,1-.64.327l-.048,0a.883.883,0,0,1-.625-.259L32.7,6.443a.885.885,0,1,1,1.251-1.252l1.089,1.088L36.962,3.9a.885.885,0,1,1,1.376,1.113Zm25.05,48.082a.888.888,0,0,1-.341.7l-3.428,2.677a.885.885,0,0,1-1.09-1.395l1.4-1.095h-9.04a.885.885,0,1,1,0-1.77h9.04l-1.4-1.095a.885.885,0,0,1,1.09-1.395L63.047,52.4a.887.887,0,0,1,.341.7Zm-23.658-43V1.96a.179.179,0,0,0-.177-.177H31.418a.179.179,0,0,0-.177.177v8.135a.179.179,0,0,0,.177.177h8.135A.179.179,0,0,0,39.73,10.095ZM59.322,30.141a23.584,23.584,0,0,0-5.194-14.856A23.965,23.965,0,0,0,41.5,7.071V1.96A1.949,1.949,0,0,0,39.553.013H31.418A1.949,1.949,0,0,0,29.471,1.96V7.075a.815.815,0,0,0-.093.019A23.841,23.841,0,0,0,20.3,48.513a.885.885,0,0,0,1.128-1.364A22.071,22.071,0,0,1,29.471,8.9v1.19a1.949,1.949,0,0,0,1.947,1.947h8.135A1.949,1.949,0,0,0,41.5,10.095V8.9a22.07,22.07,0,0,1-6.014,43.3H9.547a.885.885,0,1,0,0,1.77H35.486A23.837,23.837,0,0,0,59.322,30.141ZM35.486,25.223a4.92,4.92,0,1,1-4.921,4.92,4.925,4.925,0,0,1,4.921-4.92Zm0,11.611a6.69,6.69,0,1,1,6.69-6.691,6.7,6.7,0,0,1-6.69,6.691Zm-8.435-.756a.883.883,0,0,0,.044-.97,9.712,9.712,0,0,1-1.054-2.542.884.884,0,0,0-.717-.654l-3.487-.558v-2.42l3.487-.558a.883.883,0,0,0,.717-.654,9.715,9.715,0,0,1,1.054-2.542.885.885,0,0,0-.044-.971L24.98,21.348l1.71-1.711,2.861,2.071a.884.884,0,0,0,.97.044A9.7,9.7,0,0,1,33.063,20.7a.885.885,0,0,0,.655-.718l.558-3.486H36.7l.558,3.486a.885.885,0,0,0,.654.718,9.705,9.705,0,0,1,2.542,1.054.883.883,0,0,0,.97-.044l2.861-2.071,1.712,1.711L43.92,24.209a.886.886,0,0,0-.044.971,9.7,9.7,0,0,1,1.054,2.541.886.886,0,0,0,.717.655l3.487.558v2.42l-3.486.558a.885.885,0,0,0-.718.655,9.712,9.712,0,0,1-1.054,2.542.886.886,0,0,0,.044.97l2.072,2.861L44.281,40.65,41.42,38.579a.885.885,0,0,0-.97-.044,9.7,9.7,0,0,1-2.542,1.054.885.885,0,0,0-.654.718L36.7,43.792H34.276l-.558-3.486a.887.887,0,0,0-.655-.718,9.677,9.677,0,0,1-2.542-1.054.885.885,0,0,0-.97.044L26.69,40.65l-1.71-1.711Zm-3.857,3.579a.885.885,0,0,1-.091-1.145L25.286,35.5a11.436,11.436,0,0,1-.8-1.927l-3.674-.589a.885.885,0,0,1-.746-.874V28.179a.886.886,0,0,1,.746-.874l3.674-.588a11.474,11.474,0,0,1,.8-1.928L23.1,21.775a.885.885,0,0,1,.091-1.145l2.778-2.778a.885.885,0,0,1,1.145-.091l3.015,2.182a11.443,11.443,0,0,1,1.927-.8l.589-3.674a.885.885,0,0,1,.874-.745H37.45a.884.884,0,0,1,.874.745l.589,3.674a11.435,11.435,0,0,1,1.927.8l3.015-2.182A.885.885,0,0,1,45,17.852l2.778,2.778a.885.885,0,0,1,.092,1.145L45.686,24.79a11.529,11.529,0,0,1,.8,1.927l3.674.588a.886.886,0,0,1,.746.874v3.929a.885.885,0,0,1-.746.874l-3.674.588a11.554,11.554,0,0,1-.8,1.928l2.182,3.014a.885.885,0,0,1-.092,1.145L45,42.435a.886.886,0,0,1-1.145.091l-3.015-2.183a11.486,11.486,0,0,1-1.927.8l-.588,3.674a.884.884,0,0,1-.874.745H33.522a.885.885,0,0,1-.874-.745l-.589-3.674a11.394,11.394,0,0,1-1.927-.8l-3.015,2.183a.886.886,0,0,1-1.145-.091Z" fill-rule="evenodd"/>
    </g>
  </g>
</svg>
