<svg xmlns="http://www.w3.org/2000/svg" xmlns:xlink="http://www.w3.org/1999/xlink" width="119" height="119" viewBox="0 0 119 119">
  <defs>
    <filter id="Trazado_822180" x="0" y="0" width="119" height="119" filterUnits="userSpaceOnUse">
      <feOffset input="SourceAlpha"/>
      <feGaussianBlur stdDeviation="5.5" result="blur"/>
      <feFlood flood-color="#fff" flood-opacity="0.659"/>
      <feComposite operator="in" in2="blur"/>
      <feComposite in="SourceGraphic"/>
    </filter>
  </defs>
  <g id="Grupo_1094144" data-name="Grupo 1094144" transform="translate(16.5 16.5)">
    <g transform="matrix(1, 0, 0, 1, -16.5, -16.5)" filter="url(#Trazado_822180)">
      <path id="Trazado_822180-2" data-name="Trazado 822180" d="M43,0A43,43,0,1,1,0,43,43,43,0,0,1,43,0Z" transform="translate(16.5 16.5)" fill="#ffce00"/>
    </g>
    <g id="progresivo" transform="translate(16.411 16.44)">
      <path id="Trazado_836979" data-name="Trazado 836979" d="M62.158,236.564l-3.226,1.613-4.839-1.613V210.7a1.558,1.558,0,0,1,1.558-1.558H60.6a1.558,1.558,0,0,1,1.558,1.558v25.864Z" transform="translate(-48.475 -187.448)" fill="#80d261"/>
      <path id="Trazado_836980" data-name="Trazado 836980" d="M170.878,153.531l-3.226,1.613-4.839-1.613V118.043a1.558,1.558,0,0,1,1.558-1.558h4.95a1.558,1.558,0,0,1,1.558,1.558Z" transform="translate(-145.903 -104.415)" fill="#f6db55"/>
      <path id="Trazado_836981" data-name="Trazado 836981" d="M279.6,97.858l-3.226,1.613-4.839-1.613V55.918a1.558,1.558,0,0,1,1.558-1.558h4.95a1.558,1.558,0,0,1,1.558,1.558Z" transform="translate(-243.331 -48.742)" fill="#fd6930"/>
      <path id="Trazado_836982" data-name="Trazado 836982" d="M388.315,56.1l-3.226,1.613L380.25,56.1V9.325a1.558,1.558,0,0,1,1.558-1.558h4.95a1.558,1.558,0,0,1,1.558,1.558Z" transform="translate(-340.757 -6.988)" fill="#e53950"/>
      <path id="Trazado_836983" data-name="Trazado 836983" d="M170.878,174.872V170.36a2.6,2.6,0,0,0-3.339.282l-4.726,4.726v4.563l6.562-6.562Z" transform="translate(-145.903 -152.265)" fill="#fac600"/>
      <path id="Trazado_836984" data-name="Trazado 836984" d="M279.6,209.444l-1.842,1.842-6.224-6.224v4.564l4.387,4.387a2.6,2.6,0,0,0,3.672,0l.007-.007v-4.562Z" transform="translate(-243.331 -183.792)" fill="#fd5426"/>
      <path id="Trazado_836985" data-name="Trazado 836985" d="M54.094,266.4l8.065-8.065v-4.563l-8.065,8.066Z" transform="translate(-48.476 -227.446)" fill="#68ca44"/>
      <path id="Trazado_836986" data-name="Trazado 836986" d="M388.315,122.945l-3.255.631,2.592,1.649-7.4,7.4v4.562l8.065-8.065Z" transform="translate(-340.757 -110.204)" fill="#ca2e43"/>
      <path id="Trazado_836987" data-name="Trazado 836987" d="M60.6,209.142H59.044v22.1a3.247,3.247,0,0,1-3.247,3.247h-1.7v2.077l4.839,1.613,3.226-1.613V210.7a1.558,1.558,0,0,0-1.558-1.558Z" transform="translate(-48.476 -187.448)" fill="#68ca44"/>
      <path id="Trazado_836988" data-name="Trazado 836988" d="M169.32,116.485h-1.558v31.722a3.247,3.247,0,0,1-3.247,3.247h-1.7v2.077l4.839,1.613,3.226-1.613V118.043A1.558,1.558,0,0,0,169.32,116.485Z" transform="translate(-145.903 -104.415)" fill="#fac600"/>
      <path id="Trazado_836989" data-name="Trazado 836989" d="M278.039,54.36h-1.558V92.534a3.247,3.247,0,0,1-3.247,3.247h-1.7v2.077l4.839,1.613,3.226-1.613V55.918A1.558,1.558,0,0,0,278.039,54.36Z" transform="translate(-243.331 -48.742)" fill="#fd5426"/>
      <path id="Trazado_836990" data-name="Trazado 836990" d="M386.757,7.767H385.2V50.78a3.247,3.247,0,0,1-3.247,3.247h-1.7V56.1l4.839,1.613,3.226-1.613V9.325a1.558,1.558,0,0,0-1.558-1.558Z" transform="translate(-340.757 -6.988)" fill="#ca2e43"/>
      <path id="Trazado_836991" data-name="Trazado 836991" d="M59.124,93.9,57.552,102,55.9,99.406,42.986,112.323a2.6,2.6,0,0,1-3.672,0L30.2,103.207,9.786,123.617,7.5,121.337l20.856-20.857a2.6,2.6,0,0,1,3.672,0l9.117,9.117L53.621,97.125l-2.592-1.649Z" transform="translate(-6.726 -84.18)" fill="#0055a3"/>
      <circle id="Elipse_11180" data-name="Elipse 11180" cx="9.679" cy="9.679" r="9.679" transform="translate(16.91 29.759)" fill="#e53950"/>
      <path id="Trazado_836992" data-name="Trazado 836992" d="M203.971,289.044a9.682,9.682,0,0,1-8.4,16.813,9.679,9.679,0,1,0,8.4-16.813Z" transform="translate(-175.261 -259.052)" fill="#ca2e43"/>
      <path id="Trazado_836993" data-name="Trazado 836993" d="M58.34,476.4H8.279a.779.779,0,0,1-.779-.779v-1.668a.779.779,0,0,1,.779-.779H58.34a.779.779,0,0,1,.779.779v1.668A.779.779,0,0,1,58.34,476.4Z" transform="translate(-6.721 -424.057)" fill="#c8effe"/>
      <path id="Trazado_836994" data-name="Trazado 836994" d="M206.691,328.284a2.392,2.392,0,1,0-2.392,2.392A2.395,2.395,0,0,0,206.691,328.284Zm-3.226,0a.834.834,0,1,1,.834.834A.835.835,0,0,1,203.465,328.284Z" transform="translate(-180.937 -292.073)"/>
      <path id="Trazado_836995" data-name="Trazado 836995" d="M266.423,388.017a2.392,2.392,0,1,0,2.392,2.392A2.395,2.395,0,0,0,266.423,388.017Zm0,3.226a.834.834,0,1,1,.834-.834A.835.835,0,0,1,266.423,391.243Z" transform="translate(-236.609 -347.745)"/>
      <path id="Trazado_836996" data-name="Trazado 836996" d="M219.067,333.886a.779.779,0,0,0-1.1,0l-8.065,8.065a.779.779,0,1,0,1.1,1.1l8.065-8.065A.779.779,0,0,0,219.067,333.886Z" transform="translate(-187.896 -299.032)"/>
      <path id="Trazado_836997" data-name="Trazado 836997" d="M51.619,48.607H48.337V17.438l.7-.7,1.128,1.773a.779.779,0,0,0,1.422-.27l1.571-8.094a.779.779,0,0,0-.913-.913l-3.913.759V2.607A2.34,2.34,0,0,0,46,.27H41.05a2.34,2.34,0,0,0-2.337,2.337V20.3l-1.668,1.668V7.446a2.34,2.34,0,0,0-2.337-2.337H29.76a2.34,2.34,0,0,0-2.337,2.337V9.67a.779.779,0,0,0,1.558,0V7.446a.78.78,0,0,1,.779-.779h4.949a.78.78,0,0,1,.779.779V23.522l-1.062,1.062L28.981,19.14V13.305a.779.779,0,1,0-1.558,0v4.277l-1.564-1.564q-.052-.052-.105-.1V13.9a2.34,2.34,0,0,0-2.337-2.337H18.468A2.34,2.34,0,0,0,16.131,13.9v7.074l-1.794,1.794a2.341,2.341,0,0,0-2.212-1.583H7.176a2.34,2.34,0,0,0-2.337,2.337v8.744L.229,36.876a.779.779,0,0,0,0,1.1L2.51,40.258a.779.779,0,0,0,1.1,0L4.839,39.03v9.577H1.558A1.56,1.56,0,0,0,0,50.165v1.668a1.56,1.56,0,0,0,1.558,1.558H51.619a1.56,1.56,0,0,0,1.558-1.558V50.165a1.56,1.56,0,0,0-1.558-1.558Zm-11.347-46a.78.78,0,0,1,.779-.779H46a.78.78,0,0,1,.779.779v7.685l-2.625.509a.779.779,0,0,0-.27,1.422l1.773,1.128-5.387,5.387ZM17.689,13.9a.78.78,0,0,1,.779-.779h4.949a.78.78,0,0,1,.779.779v1.211a3.376,3.376,0,0,0-3.111.909l-3.4,3.4ZM6.4,23.521a.78.78,0,0,1,.779-.779h4.949a.78.78,0,0,1,.779.779V24.2L6.4,30.707ZM3.06,38.606,1.881,37.427,22.187,17.12a1.82,1.82,0,0,1,2.57,0l9.117,9.117a.779.779,0,0,0,1.1,0L47.446,13.765a.779.779,0,0,0-.133-1.208l-.943-.6,5.042-.978-.979,5.042-.6-.943a.779.779,0,0,0-1.208-.133l-4.6,4.6a.779.779,0,1,0,1.1,1.1L46.779,19V48.607H40.271V25.5l2.192-2.192a.779.779,0,0,0-1.1-1.1l-5.653,5.652a1.82,1.82,0,0,1-2.57,0l-9.116-9.116a.779.779,0,0,0-1.1,0ZM16.131,27.739V48.607H14.462v-19.2ZM35.488,34.22a10.494,10.494,0,0,0-6.507-4.694V25.907l3.057,3.057a3.38,3.38,0,0,0,3.45.816v4.44Zm-8.065-4.937a10.56,10.56,0,0,0-1.669,0v-6.6l1.669,1.669Zm-3.227.243a10.494,10.494,0,0,0-6.507,4.694V26.181L23.472,20.4l.724.724ZM17.689,45.194A10.539,10.539,0,0,0,21.1,48.607H17.689Zm17.8,0v3.412H32.075A10.539,10.539,0,0,0,35.488,45.194Zm1.558-16.465,1.668-1.668V48.607H37.045Zm14.573,23.1H1.558V50.165h6.93a.779.779,0,0,0,0-1.558H6.4V37.472L12.9,30.966V48.607h-.781a.779.779,0,1,0,0,1.558h39.5ZM35.488,39.707a8.9,8.9,0,1,1-8.9-8.9A8.9,8.9,0,0,1,35.488,39.707Z" transform="translate(0 -0.27)"/>
    </g>
  </g>
</svg>
