<svg xmlns="http://www.w3.org/2000/svg" width="89.179" height="66.884" viewBox="0 0 89.179 66.884">
  <g id="Layer_13" data-name="Layer 13" transform="translate(0)">
    <path id="Trazado_823686" data-name="Trazado 823686" d="M10.574,13h64.1a5.574,5.574,0,0,1,5.574,5.574V63.163H5V18.574A5.574,5.574,0,0,1,10.574,13Z" transform="translate(1.967 -6.033)" fill="#d6e4e8"/>
    <path id="Trazado_823687" data-name="Trazado 823687" d="M11,13H63.95V63.163H11Z" transform="translate(4.327 -6.033)" fill="#baced3"/>
    <path id="Trazado_823688" data-name="Trazado 823688" d="M31.475,58.94A22.3,22.3,0,0,1,9.18,36.646V14.351a5.538,5.538,0,0,1,.15-1.243A5.574,5.574,0,0,0,5,18.531V63.12H80.244V58.94Z" transform="translate(1.967 -5.99)" fill="#baced3"/>
    <path id="Trazado_823689" data-name="Trazado 823689" d="M18.574,9h41.8a5.574,5.574,0,0,1,5.574,5.574V64.737H13V14.574A5.574,5.574,0,0,1,18.574,9Z" transform="translate(5.114 -7.607)" fill="#f8c460"/>
    <path id="Trazado_823690" data-name="Trazado 823690" d="M33.9,60.514A16.721,16.721,0,0,1,17.18,43.793V10.351a5.537,5.537,0,0,1,.15-1.243A5.574,5.574,0,0,0,13,14.531V64.694H65.95v-4.18Z" transform="translate(5.114 -7.564)" fill="#faaf42"/>
    <g id="Grupo_1073683" data-name="Grupo 1073683" transform="translate(23.439 8.034)">
      <ellipse id="Elipse_9845" data-name="Elipse 9845" cx="5.821" cy="4.989" rx="5.821" ry="4.989" transform="translate(0 0)" fill="#3ee2a8"/>
      <circle id="Elipse_9846" data-name="Elipse 9846" cx="5.821" cy="5.821" r="5.821" transform="translate(0 15.799)" fill="#3ee2a8"/>
      <circle id="Elipse_9847" data-name="Elipse 9847" cx="5.821" cy="5.821" r="5.821" transform="translate(0 32.43)" fill="#3ee2a8"/>
    </g>
    <path id="Trazado_823691" data-name="Trazado 823691" d="M1,49H87.392v2.787a5.574,5.574,0,0,1-5.574,5.574H6.574A5.574,5.574,0,0,1,1,51.787Z" transform="translate(0.393 8.13)" fill="#7a838b"/>
    <path id="Trazado_823692" data-name="Trazado 823692" d="M5.18,51.787V49H1v2.787A5.574,5.574,0,0,0,6.574,57.36h4.18A5.574,5.574,0,0,1,5.18,51.787Z" transform="translate(0.393 8.13)" fill="#5d6972"/>
    <path id="Trazado_823693" data-name="Trazado 823693" d="M25,49H44.508v1.393a2.787,2.787,0,0,1-2.787,2.787H27.787A2.787,2.787,0,0,1,25,50.393Z" transform="translate(9.835 8.13)" fill="#d6e4e8"/>
    <path id="Trazado_823694" data-name="Trazado 823694" d="M22.971,25.934a6.956,6.956,0,0,0,5.806-10.8l.752-.752a1.393,1.393,0,1,0-1.97-1.97l-.752.753a6.967,6.967,0,1,0-3.836,12.773Zm0-11.147a4.112,4.112,0,0,1,1.791.418l-4.169,4.169a1.393,1.393,0,1,0,1.97,1.97l4.17-4.168a4.112,4.112,0,0,1,.418,1.791,4.18,4.18,0,1,1-4.18-4.18Z" transform="translate(6.29 -6.426)" fill="#12263f"/>
    <path id="Trazado_823695" data-name="Trazado 823695" d="M22.971,37.934a6.956,6.956,0,0,0,5.806-10.8l.752-.752a1.393,1.393,0,1,0-1.97-1.97l-.752.753a6.967,6.967,0,1,0-3.836,12.773Zm0-11.147a4.112,4.112,0,0,1,1.791.418l-4.169,4.169a1.393,1.393,0,1,0,1.97,1.97l4.17-4.168a4.112,4.112,0,0,1,.418,1.791,4.18,4.18,0,1,1-4.18-4.18Z" transform="translate(6.29 -1.705)" fill="#12263f"/>
    <path id="Trazado_823696" data-name="Trazado 823696" d="M31.393,16.787H53.688a1.393,1.393,0,1,0,0-2.787H31.393a1.393,1.393,0,0,0,0,2.787Z" transform="translate(11.802 -5.64)" fill="#12263f"/>
    <path id="Trazado_823697" data-name="Trazado 823697" d="M29.393,20.787H54.475a1.393,1.393,0,1,0,0-2.787H29.393a1.393,1.393,0,1,0,0,2.787Z" transform="translate(11.015 -4.066)" fill="#12263f"/>
    <path id="Trazado_823698" data-name="Trazado 823698" d="M53.688,26H31.393a1.393,1.393,0,0,0,0,2.787H53.688a1.393,1.393,0,1,0,0-2.787Z" transform="translate(11.802 -0.919)" fill="#12263f"/>
    <path id="Trazado_823699" data-name="Trazado 823699" d="M29.393,32.787H54.475a1.393,1.393,0,1,0,0-2.787H29.393a1.393,1.393,0,1,0,0,2.787Z" transform="translate(11.015 0.655)" fill="#12263f"/>
    <path id="Trazado_823700" data-name="Trazado 823700" d="M28.785,39.131l.752-.752a1.393,1.393,0,1,0-1.97-1.97l-.752.753a6.988,6.988,0,1,0,1.97,1.97Zm-5.806,8.016a4.18,4.18,0,1,1,0-8.36,4.112,4.112,0,0,1,1.791.418L20.6,43.374a1.393,1.393,0,1,0,1.97,1.97l4.17-4.168a4.112,4.112,0,0,1,.418,1.791A4.18,4.18,0,0,1,22.979,47.147Z" transform="translate(6.283 3.015)" fill="#12263f"/>
    <path id="Trazado_823701" data-name="Trazado 823701" d="M53.688,38H31.393a1.393,1.393,0,0,0,0,2.787H53.688a1.393,1.393,0,1,0,0-2.787Z" transform="translate(11.802 3.802)" fill="#12263f"/>
    <path id="Trazado_823702" data-name="Trazado 823702" d="M29.393,44.787H54.475a1.393,1.393,0,1,0,0-2.787H29.393a1.393,1.393,0,1,0,0,2.787Z" transform="translate(11.015 5.376)" fill="#12263f"/>
    <path id="Trazado_823703" data-name="Trazado 823703" d="M87.785,63.737H83.6v-43.2a6.975,6.975,0,0,0-6.967-6.967h-4.32A6.98,6.98,0,0,0,65.49,8h-41.8a6.98,6.98,0,0,0-6.828,5.574h-4.32a6.975,6.975,0,0,0-6.967,6.967v43.2H1.393A1.393,1.393,0,0,0,0,65.13v2.787a6.975,6.975,0,0,0,6.967,6.967H82.211a6.975,6.975,0,0,0,6.967-6.967V65.13A1.393,1.393,0,0,0,87.785,63.737ZM19.508,14.967a4.18,4.18,0,0,1,4.18-4.18h41.8a4.18,4.18,0,0,1,4.18,4.18v8.36a1.393,1.393,0,1,0,2.787,0V16.36h4.18a4.18,4.18,0,0,1,4.18,4.18v43.2h-8.36V28.9a1.393,1.393,0,1,0-2.787,0V63.737H19.508ZM52.95,66.523a1.393,1.393,0,0,1-1.393,1.393H37.622a1.393,1.393,0,0,1-1.393-1.393ZM8.36,20.541a4.18,4.18,0,0,1,4.18-4.18h4.18V63.737H8.36ZM86.392,67.917a4.18,4.18,0,0,1-4.18,4.18H6.967a4.18,4.18,0,0,1-4.18-4.18V66.523H33.442a4.18,4.18,0,0,0,4.18,4.18H51.556a4.18,4.18,0,0,0,4.18-4.18H86.392Z" transform="translate(0 -8)" fill="#12263f"/>
  </g>
</svg>
