<svg id="Grupo_1095073" data-name="Grupo 1095073" xmlns="http://www.w3.org/2000/svg" xmlns:xlink="http://www.w3.org/1999/xlink" width="127" height="105" viewBox="0 0 127 105">
  <defs>
    <linearGradient id="linear-gradient" x1="0.5" y1="-0.056" x2="0.5" y2="1" gradientUnits="objectBoundingBox">
      <stop offset="0" stop-color="#3ee2a8"/>
      <stop offset="0.56" stop-color="#3ee2a8"/>
      <stop offset="1" stop-color="#1682fb"/>
    </linearGradient>
  </defs>
  <rect id="Rectángulo_386917" data-name="Rectángulo 386917" width="127" height="105" rx="15" fill="url(#linear-gradient)"/>
  <g id="Layer_74" data-name="Layer 74" transform="translate(25.859 13.697)">
    <path id="Trazado_837007" data-name="Trazado 837007" d="M21.351,225.683v.011H83.672v-.011a4.013,4.013,0,0,0-4.228-3.754H25.58a4.014,4.014,0,0,0-4.229,3.754Z" transform="translate(-17.688 -189.118)" fill="#004960"/>
    <path id="Trazado_837008" data-name="Trazado 837008" d="M16.24,221.472H78.561a.887.887,0,0,0,.887-.887,4.9,4.9,0,0,0-5.115-4.652H20.468a4.9,4.9,0,0,0-5.116,4.641v.011A.887.887,0,0,0,16.24,221.472ZM77.515,219.7H17.287a3.337,3.337,0,0,1,3.183-1.991H74.334A3.333,3.333,0,0,1,77.515,219.7Z" transform="translate(-12.577 -184.008)"/>
    <path id="Trazado_837009" data-name="Trazado 837009" d="M6,472.438v2.946c0,2.168,2.047,3.925,4.571,3.925H68.8c2.525,0,4.571-1.757,4.571-3.925v-2.946H49.805v1.05a1.693,1.693,0,0,1-1.744,1.635H34.211a1.693,1.693,0,0,1-1.745-1.635v-1.05Z" transform="translate(-5.113 -402.59)" fill="#004960"/>
    <path id="Trazado_837010" data-name="Trazado 837010" d="M5.458,475.084H63.683c3.01,0,5.458-2.159,5.458-4.812v-2.946a.887.887,0,0,0-.887-.887H44.692a.887.887,0,0,0-.887.887v1.05a.809.809,0,0,1-.857.747H29.1a.809.809,0,0,1-.857-.747v-1.05a.887.887,0,0,0-.887-.887H.887a.887.887,0,0,0-.887.887v2.946C0,472.925,2.448,475.084,5.458,475.084Zm61.909-6.872v2.059c0,1.675-1.653,3.038-3.684,3.038H5.458c-2.031,0-3.684-1.363-3.684-3.038v-2.059H26.467v.163A2.581,2.581,0,0,0,29.1,470.9h13.85a2.581,2.581,0,0,0,2.631-2.522v-.163Z" transform="translate(0 -397.477)"/>
    <path id="Trazado_837011" data-name="Trazado 837011" d="M21.348,247.4v33.271H45.04v1.05a1.693,1.693,0,0,0,1.745,1.635h13.85a1.693,1.693,0,0,0,1.744-1.635v-1.05H83.67V247.4Z" transform="translate(-17.685 -210.823)" fill="#f6f6f6"/>
    <path id="Trazado_837012" data-name="Trazado 837012" d="M41.671,279.13h13.85a2.581,2.581,0,0,0,2.631-2.522v-.163h20.4a.887.887,0,0,0,.887-.887V242.287a.887.887,0,0,0-.887-.887H16.235a.887.887,0,0,0-.887.887v33.271a.887.887,0,0,0,.887.887h22.8v.163A2.581,2.581,0,0,0,41.671,279.13Zm36-4.459h-20.4a.887.887,0,0,0-.887.887v1.05a.809.809,0,0,1-.857.747H41.671a.809.809,0,0,1-.857-.747v-1.05a.887.887,0,0,0-.887-.887h-22.8v-31.5H77.67Z" transform="translate(-12.572 -205.71)"/>
    <path id="Trazado_837013" data-name="Trazado 837013" d="M109.531,48.821h-42.4v55.4h42.4Z" transform="translate(-50.315 -41.603)" fill="#33bbeb"/>
    <path id="Trazado_837014" data-name="Trazado 837014" d="M62.02,100h42.4a.887.887,0,0,0,.887-.887v-55.4a.887.887,0,0,0-.887-.887H62.02a.887.887,0,0,0-.887.887v55.4A.887.887,0,0,0,62.02,100Zm41.512-1.774H62.907V44.6h40.625Z" transform="translate(-45.203 -36.49)"/>
    <path id="Trazado_837015" data-name="Trazado 837015" d="M92.728,76.858v47.681h39.62V69.462H100.124Z" transform="translate(-76.917 -59.192)" fill="#98e4ff"/>
    <path id="Trazado_837016" data-name="Trazado 837016" d="M87.616,120.313h39.62a.887.887,0,0,0,.887-.887V64.349a.887.887,0,0,0-.887-.887H95.012a.887.887,0,0,0-.627.26l-7.4,7.4a.887.887,0,0,0-.26.627v47.681A.887.887,0,0,0,87.616,120.313Zm38.733-1.774H88.5V72.112l6.877-6.876h30.969Z" transform="translate(-71.805 -54.079)"/>
    <path id="Trazado_837017" data-name="Trazado 837017" d="M310.688,76.858h7.4v-7.4Z" transform="translate(-294.877 -59.192)" fill="#33bbeb"/>
    <path id="Trazado_837018" data-name="Trazado 837018" d="M305.575,72.632h7.4a.887.887,0,0,0,.887-.887v-7.4a.887.887,0,0,0-1.514-.627l-7.4,7.4a.887.887,0,0,0,.627,1.514Zm6.509-1.774h-4.367l4.367-4.367Z" transform="translate(-289.764 -54.08)"/>
    <path id="Trazado_837019" data-name="Trazado 837019" d="M339.407,381.145l0,.259,1.613,2.743,1.3,2.214a1.212,1.212,0,0,0,1.9-.007l1.244-2.224,1.54-2.754,0-.259Z" transform="translate(-328.045 -324.77)" fill="#ffda2d"/>
    <path id="Trazado_837020" data-name="Trazado 837020" d="M338.161,382.588h.026a1.911,1.911,0,0,0,1.7-.915l2.785-4.978a.887.887,0,0,0,.113-.445l0-.259a.887.887,0,0,0-.887-.875h0l-7.6.029a.887.887,0,0,0-.884.9l0,.259a.887.887,0,0,0,.122.438l2.915,4.956A1.957,1.957,0,0,0,338.161,382.588Zm.19-1.81a.52.52,0,0,1-.388,0l-2.271-3.862,4.831-.018Z" transform="translate(-322.932 -319.657)"/>
    <path id="Trazado_837021" data-name="Trazado 837021" d="M346.913,184.467H339.3v29.1h7.617Z" transform="translate(-327.935 -157.194)" fill="#fff2b2"/>
    <path id="Trazado_837022" data-name="Trazado 837022" d="M334.188,209.342H341.8a.887.887,0,0,0,.887-.887v-29.1a.887.887,0,0,0-.887-.887h-7.617a.887.887,0,0,0-.887.887v29.1a.887.887,0,0,0,.888.887Zm6.729-1.774h-5.842V180.241h5.842Z" transform="translate(-322.827 -152.082)"/>
    <path id="Trazado_837023" data-name="Trazado 837023" d="M339.3,153.831l.019,2.917h7.6l-.032-2.961a2.749,2.749,0,0,0-2.978-2.425l-1.664.008A2.733,2.733,0,0,0,339.3,153.831Z" transform="translate(-327.939 -128.984)" fill="#ffda2d"/>
    <path id="Trazado_837024" data-name="Trazado 837024" d="M334.207,152.519h7.6a.887.887,0,0,0,.887-.9l-.032-2.961a3.63,3.63,0,0,0-3.845-3.3h-.024l-1.663.008a4.115,4.115,0,0,0-2.9,1.164,3.086,3.086,0,0,0-.923,2.191l.02,2.917A.887.887,0,0,0,334.207,152.519Zm6.7-1.774h-5.819l-.014-2.036a1.322,1.322,0,0,1,.411-.931,2.333,2.333,0,0,1,1.649-.637l1.663-.008h.014c1.117,0,2.064.706,2.072,1.548Z" transform="translate(-322.826 -123.868)"/>
    <path id="Trazado_837025" data-name="Trazado 837025" d="M360.882,187.789h-1.774v28.074h1.774Z" transform="translate(-344.834 -160.025)"/>
    <path id="Trazado_837026" data-name="Trazado 837026" d="M130.982,215.887a3.387,3.387,0,1,0-3.387-3.387A3.387,3.387,0,0,0,130.982,215.887Zm0-5a1.613,1.613,0,1,1-1.613,1.613A1.613,1.613,0,0,1,130.982,210.887Z" transform="translate(-84.093 -178.197)"/>
    <path id="Trazado_837027" data-name="Trazado 837027" d="M130.982,289.943a3.387,3.387,0,1,0-3.387-3.387,3.387,3.387,0,0,0,3.387,3.387Zm0-5a1.613,1.613,0,1,1-1.613,1.613A1.613,1.613,0,0,1,130.982,284.943Z" transform="translate(-84.093 -241.304)"/>
    <path id="Trazado_837028" data-name="Trazado 837028" d="M225.225,124.453H213.988v1.774h11.237Z" transform="translate(-187.722 -106.053)"/>
    <path id="Trazado_837029" data-name="Trazado 837029" d="M225.225,154.471H213.988v1.774h11.237Z" transform="translate(-187.722 -131.633)"/>
    <path id="Trazado_837030" data-name="Trazado 837030" d="M207.328,209.113H189.395v1.774h17.933Z" transform="translate(-166.188 -178.197)"/>
    <path id="Trazado_837031" data-name="Trazado 837031" d="M203.855,236.691H189.4v1.774h14.46Z" transform="translate(-162.715 -201.697)"/>
    <path id="Trazado_837032" data-name="Trazado 837032" d="M207.328,283.17H189.395v1.774h17.933Z" transform="translate(-166.188 -241.305)"/>
    <path id="Trazado_837033" data-name="Trazado 837033" d="M203.855,310.748H189.4v1.774h14.46Z" transform="translate(-162.715 -264.805)"/>
    <path id="Trazado_837034" data-name="Trazado 837034" d="M207.328,365.375H189.395v1.774h17.933Z" transform="translate(-166.188 -311.356)"/>
    <path id="Trazado_837035" data-name="Trazado 837035" d="M203.855,392.954H189.4v1.774h14.46Z" transform="translate(-162.715 -334.858)"/>
    <path id="Trazado_837036" data-name="Trazado 837036" d="M130.982,372.148a3.387,3.387,0,1,0-3.387-3.387A3.387,3.387,0,0,0,130.982,372.148Zm0-5a1.613,1.613,0,1,1-1.613,1.613A1.613,1.613,0,0,1,130.982,367.148Z" transform="translate(-84.093 -311.355)"/>
    <path id="Trazado_837037" data-name="Trazado 837037" d="M39.634,33.323h-4l-6.3,7.671V33.323H20.352a4.361,4.361,0,0,1-4.361-4.361l.086-18.6A4.361,4.361,0,0,1,20.439,6H39.72a4.361,4.361,0,0,1,4.361,4.361L44,28.96a4.361,4.361,0,0,1-4.362,4.363Z" transform="translate(22.695 -5.113)" fill="#fdc00f"/>
    <path id="Trazado_837038" data-name="Trazado 837038" d="M24.209,36.768a.887.887,0,0,0,.686-.324L30.932,29.1h3.584a5.255,5.255,0,0,0,5.249-5.249l.086-18.6A5.256,5.256,0,0,0,34.6,0H15.321a5.255,5.255,0,0,0-5.249,5.249L9.987,23.843A5.256,5.256,0,0,0,15.236,29.1h8.087V35.88a.887.887,0,0,0,.887.887ZM34.6,1.774a3.479,3.479,0,0,1,3.474,3.474l-.085,18.595a3.48,3.48,0,0,1-3.474,3.479h-4a.887.887,0,0,0-.685.325L25.1,33.4V28.21a.887.887,0,0,0-.887-.887H15.236a3.479,3.479,0,0,1-3.474-3.474l.085-18.595a3.48,3.48,0,0,1,3.474-3.48Z" transform="translate(27.813 0)"/>
    <path id="Trazado_837039" data-name="Trazado 837039" d="M71.862,44.491h3.206q.013-.769.013-.936a6.827,6.827,0,0,0-.516-2.85A8.446,8.446,0,0,0,72.5,38.19a16.15,16.15,0,0,1-1.848-1.83,2.627,2.627,0,0,1-.465-1.509,2.668,2.668,0,0,1,.824-1.963,3.011,3.011,0,0,1,2.219-.817,3.157,3.157,0,0,1,2.251.852,4.7,4.7,0,0,1,1.245,2.6l3.244-.448a6.237,6.237,0,0,0-1.917-4.247,6.382,6.382,0,0,0-4.671-1.746,6.606,6.606,0,0,0-4.841,1.767,5.6,5.6,0,0,0-1.8,4.115,4.894,4.894,0,0,0,.66,2.459,15.448,15.448,0,0,0,2.823,3.158,5.838,5.838,0,0,1,1.39,1.663,6.134,6.134,0,0,1,.245,2.249Zm3.206,5.281V46.9H71.879v2.875Z" transform="translate(-20.7 -24.781)" fill="#58595b"/>
    <path id="Trazado_837040" data-name="Trazado 837040" d="M66.765,45.546h3.189a.887.887,0,0,0,.887-.887V41.784a.887.887,0,0,0-.887-.887H66.765a.887.887,0,0,0-.887.887v2.875A.887.887,0,0,0,66.765,45.546Zm2.3-1.774H67.653v-1.1h1.415Zm-2.319-3.507h3.206a.887.887,0,0,0,.887-.872q.013-.78.013-.951a7.721,7.721,0,0,0-.6-3.222,9.2,9.2,0,0,0-2.273-2.8A14.712,14.712,0,0,1,66.27,30.74a1.735,1.735,0,0,1-.306-1,1.775,1.775,0,0,1,.562-1.334,2.147,2.147,0,0,1,1.594-.56,2.282,2.282,0,0,1,1.643.611,3.884,3.884,0,0,1,.982,2.122.885.885,0,0,0,.992.71l3.244-.448a.887.887,0,0,0,.765-.928,7.128,7.128,0,0,0-2.182-4.831,7.266,7.266,0,0,0-5.293-2A7.487,7.487,0,0,0,62.807,25.1a6.476,6.476,0,0,0-2.063,4.747,5.794,5.794,0,0,0,.777,2.9,16.063,16.063,0,0,0,2.991,3.37,4.877,4.877,0,0,1,1.176,1.361,5.207,5.207,0,0,1,.173,1.885.887.887,0,0,0,.887.9ZM69.08,38.49H67.625a4.991,4.991,0,0,0-.307-1.713,6.406,6.406,0,0,0-1.6-1.964,14.194,14.194,0,0,1-2.654-2.945,3.984,3.984,0,0,1-.544-2.02,4.7,4.7,0,0,1,1.533-3.482,5.71,5.71,0,0,1,4.219-1.513,5.482,5.482,0,0,1,4.05,1.492A5.292,5.292,0,0,1,73.874,29.2l-1.591.219a5.021,5.021,0,0,0-1.306-2.257,4.032,4.032,0,0,0-2.859-1.094,3.879,3.879,0,0,0-2.844,1.074,3.607,3.607,0,0,0-.467,4.6,14.011,14.011,0,0,0,1.987,1.99,7.68,7.68,0,0,1,1.851,2.228,6,6,0,0,1,.434,2.479c0,.014,0,.03,0,.05Z" transform="translate(-15.586 -19.668)"/>
  </g>
</svg>
