<svg xmlns="http://www.w3.org/2000/svg" xmlns:xlink="http://www.w3.org/1999/xlink" width="127" height="105" viewBox="0 0 127 105">
  <defs>
    <linearGradient id="linear-gradient" x1="0.5" y1="-0.056" x2="0.5" y2="1" gradientUnits="objectBoundingBox">
      <stop offset="0" stop-color="#3ee2a8"/>
      <stop offset="0.56" stop-color="#3ee2a8"/>
      <stop offset="1" stop-color="#1682fb"/>
    </linearGradient>
  </defs>
  <g id="Grupo_1095137" data-name="Grupo 1095137" transform="translate(-1205 -6859)">
    <rect id="Rectángulo_387071" data-name="Rectángulo 387071" width="127" height="105" rx="15" transform="translate(1205 6859)" fill="url(#linear-gradient)"/>
    <g id="evaluacion_1_" data-name="evaluacion (1)" transform="translate(1216.043 6876.265)">
      <g id="Grupo_1094164" data-name="Grupo 1094164" transform="translate(23.07 1.123)">
        <path id="Trazado_837065" data-name="Trazado 837065" d="M59.436,11.417V31.506a3.915,3.915,0,0,1-3.915,3.917H33.395a3.915,3.915,0,0,1-3.917-3.917V11.417A3.915,3.915,0,0,1,33.395,7.5H55.521A3.915,3.915,0,0,1,59.436,11.417Z" transform="translate(-29.478 -7.5)" fill="#eaf6ff"/>
        <path id="Trazado_837066" data-name="Trazado 837066" d="M182.21,7.5h-3.737a3.915,3.915,0,0,1,3.915,3.916v20.09a3.915,3.915,0,0,1-3.915,3.916h3.737a3.915,3.915,0,0,0,3.915-3.916V11.416A3.915,3.915,0,0,0,182.21,7.5Z" transform="translate(-156.166 -7.5)" fill="#c8effe"/>
        <path id="Trazado_837067" data-name="Trazado 837067" d="M59.435,253.872v30.28a3.914,3.914,0,0,1-3.915,3.915H33.393a3.914,3.914,0,0,1-3.917-3.915v-30.28a3.927,3.927,0,0,1,3.917-3.914H55.52A3.921,3.921,0,0,1,59.435,253.872Z" transform="translate(-29.476 -213.658)" fill="#eaf6ff"/>
        <path id="Trazado_837068" data-name="Trazado 837068" d="M182.207,249.96H178.47a3.921,3.921,0,0,1,3.915,3.914v30.28a3.914,3.914,0,0,1-3.915,3.915h3.737a3.914,3.914,0,0,0,3.915-3.915v-30.28A3.921,3.921,0,0,0,182.207,249.96Z" transform="translate(-156.163 -213.659)" fill="#c8effe"/>
        <path id="Trazado_837069" data-name="Trazado 837069" d="M59.436,11.416v4.636H29.477V11.416A3.916,3.916,0,0,1,33.393,7.5H55.521A3.915,3.915,0,0,1,59.436,11.416Z" transform="translate(-29.477 -7.5)" fill="#99e6fc"/>
        <path id="Trazado_837070" data-name="Trazado 837070" d="M120.869,253.873v4.971a13.967,13.967,0,0,1-19.141-8.884h15.226a3.921,3.921,0,0,1,3.915,3.914Z" transform="translate(-90.911 -213.659)" fill="#c8effe"/>
        <path id="Trazado_837071" data-name="Trazado 837071" d="M182.21,7.5h-3.737a3.915,3.915,0,0,1,3.915,3.916v4.636h3.737V11.416A3.915,3.915,0,0,0,182.21,7.5Z" transform="translate(-156.166 -7.5)" fill="#62dbfb"/>
        <path id="Trazado_837072" data-name="Trazado 837072" d="M59.435,253.872v4.677H29.477v-4.677a3.927,3.927,0,0,1,3.917-3.914H55.52A3.921,3.921,0,0,1,59.435,253.872Z" transform="translate(-29.476 -213.658)" fill="#99e6fc"/>
        <path id="Trazado_837073" data-name="Trazado 837073" d="M122.068,132.2v4.3a3.915,3.915,0,0,1-3.915,3.917H103.138a13.968,13.968,0,0,1,18.93-8.212Z" transform="translate(-92.11 -112.492)" fill="#c8effe"/>
        <path id="Trazado_837074" data-name="Trazado 837074" d="M120.869,253.873v4.677H108.814a13.986,13.986,0,0,1-7.086-8.591h15.226A3.921,3.921,0,0,1,120.869,253.873Z" transform="translate(-90.911 -213.659)" fill="#62dbfb"/>
        <g id="Grupo_1094161" data-name="Grupo 1094161" transform="translate(37.988 0.066)">
          <g id="Grupo_1094160" data-name="Grupo 1094160">
            <path id="Trazado_837075" data-name="Trazado 837075" d="M313.057,12.513V31.223a4.572,4.572,0,0,1-4.571,4.573h-9.717l-4.6,7.244a1.22,1.22,0,0,1-2.249-.654V35.8h-4.135a4.573,4.573,0,0,1-4.573-4.573V12.513a4.573,4.573,0,0,1,4.573-4.573h20.7a4.572,4.572,0,0,1,4.571,4.573Z" transform="translate(-283.211 -7.94)" fill="#ffda2d"/>
          </g>
        </g>
        <g id="Grupo_1094162" data-name="Grupo 1094162" transform="translate(46.697 0.066)">
          <path id="Trazado_837076" data-name="Trazado 837076" d="M341.376,198.9v1.688a1.22,1.22,0,0,0,2.249.654l4.6-7.244h-2.1a2.986,2.986,0,0,0-2.521,1.385Z" transform="translate(-341.376 -166.142)" fill="#ffc700"/>
          <path id="Trazado_837077" data-name="Trazado 837077" d="M430.8,7.94h-3.737a4.572,4.572,0,0,1,4.571,4.573V31.223a4.572,4.572,0,0,1-4.571,4.573H430.8a4.572,4.572,0,0,0,4.571-4.573V12.513A4.572,4.572,0,0,0,430.8,7.94Z" transform="translate(-414.238 -7.94)" fill="#ffc700"/>
        </g>
        <g id="Grupo_1094163" data-name="Grupo 1094163" transform="translate(13.265 18.487)">
          <circle id="Elipse_11187" data-name="Elipse 11187" cx="13.961" cy="13.961" r="13.961" fill="#0268b4"/>
          <path id="Trazado_837078" data-name="Trazado 837078" d="M212.709,135.082a13.931,13.931,0,0,0-11.366-4.006,13.958,13.958,0,0,1,0,27.756,13.959,13.959,0,0,0,11.366-23.75Z" transform="translate(-188.876 -130.993)" fill="#015a9a"/>
          <path id="Trazado_837079" data-name="Trazado 837079" d="M157.663,179.994a9.452,9.452,0,1,1,6.684-2.769A9.391,9.391,0,0,1,157.663,179.994Z" transform="translate(-143.703 -156.581)" fill="#c8effe"/>
          <path id="Trazado_837080" data-name="Trazado 837080" d="M207.4,163.858a9.391,9.391,0,0,0-6.684-2.769,9.556,9.556,0,0,0-1.868.184,9.456,9.456,0,0,1,0,18.537,9.543,9.543,0,0,0,1.868.184,9.452,9.452,0,0,0,6.684-16.136Z" transform="translate(-186.751 -156.581)" fill="#99e6fc"/>
          <path id="Trazado_837081" data-name="Trazado 837081" d="M295.1,309.647,296.745,308a3.075,3.075,0,0,1,4.348,0l5.061,5.061a3.075,3.075,0,0,1,0,4.348l-1.644,1.644a3.075,3.075,0,0,1-4.348,0l-5.061-5.061A3.075,3.075,0,0,1,295.1,309.647Z" transform="translate(-267.831 -280.733)" fill="#fa1e38"/>
          <path id="Trazado_837082" data-name="Trazado 837082" d="M318.446,313.064l-5.06-5.06a3.075,3.075,0,0,0-4.348,0l-.38.38a3.064,3.064,0,0,1,2.351.892l3.7,3.788a3.075,3.075,0,0,1,0,4.348l-.781.854a3.055,3.055,0,0,1-1.452.811,3.074,3.074,0,0,0,4.325-.021l1.644-1.644A3.075,3.075,0,0,0,318.446,313.064Z" transform="translate(-280.124 -280.734)" fill="#b80d23"/>
        </g>
      </g>
      <g id="Grupo_1094165" data-name="Grupo 1094165" transform="translate(21.942 0)">
        <path id="Trazado_837083" data-name="Trazado 837083" d="M151.287,153.589a10.575,10.575,0,1,0,5.655,19.516,1.123,1.123,0,1,0-1.2-1.9,8.335,8.335,0,1,1,3.1-3.519,1.123,1.123,0,1,0,2.036.948,10.616,10.616,0,0,0-2.105-11.952,10.508,10.508,0,0,0-7.478-3.1Z" transform="translate(-122.934 -130.594)"/>
        <path id="Trazado_837084" data-name="Trazado 837084" d="M86.334.066h-20.7a5.7,5.7,0,0,0-5.7,5.7V21.968A15.083,15.083,0,0,0,36.31,27.922H26.987a2.8,2.8,0,0,1-2.794-2.794V10.8H51.906v3.647a1.123,1.123,0,0,0,2.246,0V5.039h0A5.044,5.044,0,0,0,49.114,0H26.986a5.045,5.045,0,0,0-5.039,5.039v20.09a5.045,5.045,0,0,0,5.039,5.039h8.619A15.087,15.087,0,0,0,39.63,44.236q.34.34.7.655H24.193V41.324a2.83,2.83,0,0,1,2.794-2.778h4.621a1.123,1.123,0,1,0,0-2.246H27a5.146,5.146,0,0,0-5.053,5.036v30.28a5.044,5.044,0,0,0,5.039,5.038H49.114a5.044,5.044,0,0,0,5.038-5.038V48.158A14.95,14.95,0,0,0,60.138,45l2.7,2.7-.028.028a4.2,4.2,0,0,0,0,5.936l5.06,5.06a4.2,4.2,0,0,0,5.936,0l1.644-1.644a4.2,4.2,0,0,0,0-5.936l-5.061-5.06a4.2,4.2,0,0,0-5.936,0l-.028.028-2.7-2.7a14.971,14.971,0,0,0,3.653-9.843,15.2,15.2,0,0,0-.393-3.442,5.7,5.7,0,0,0,.646.04h3.012v5.468a2.358,2.358,0,0,0,4.319,1.255l4.27-6.722h9.1a5.7,5.7,0,0,0,5.694-5.7V5.761a5.7,5.7,0,0,0-5.694-5.7Zm-37.22,2.18a2.8,2.8,0,0,1,2.792,2.794V8.552H24.193V5.039a2.8,2.8,0,0,1,2.794-2.794ZM67.423,47.1a1.939,1.939,0,0,1,1.38.572l5.061,5.06a1.952,1.952,0,0,1,0,2.76L72.22,57.138a1.952,1.952,0,0,1-2.76,0l-5.06-5.06a1.952,1.952,0,0,1,0-2.76l1.644-1.644a1.938,1.938,0,0,1,1.38-.572ZM51.906,71.617a2.8,2.8,0,0,1-2.792,2.792H26.987a2.8,2.8,0,0,1-2.794-2.792V47.137H43.688a15.292,15.292,0,0,0,8.218,1.431V71.617Zm7.467-28.969a12.832,12.832,0,1,1,0-18.155A12.852,12.852,0,0,1,59.373,42.648ZM89.781,24.473a3.453,3.453,0,0,1-3.448,3.449H76.617a1.123,1.123,0,0,0-.948.521l-4.6,7.244a.094.094,0,0,1-.178-.051V24.556a1.123,1.123,0,0,0-2.246,0v3.367H65.632a3.454,3.454,0,0,1-1.483-.336,14.97,14.97,0,0,0-1.968-3.306V5.761a3.454,3.454,0,0,1,3.451-3.449h20.7a3.453,3.453,0,0,1,3.448,3.449V24.473Z" transform="translate(-21.942 0)"/>
        <path id="Trazado_837085" data-name="Trazado 837085" d="M375.858,154.767A1.143,1.143,0,1,0,377,155.91,1.143,1.143,0,0,0,375.858,154.767Z" transform="translate(-321.9 -131.596)"/>
        <path id="Trazado_837086" data-name="Trazado 837086" d="M348.81,26.8a5.922,5.922,0,0,0-6.048,5.925,1.123,1.123,0,1,0,2.246,0,3.747,3.747,0,0,1,.035-.515,3.68,3.68,0,1,1,3.645,4.2,1.123,1.123,0,0,0-1.123,1.123v5.023a1.123,1.123,0,1,0,2.246,0V38.542a5.935,5.935,0,0,0,4.8-6.135A5.943,5.943,0,0,0,348.81,26.8Z" transform="translate(-294.73 -22.783)"/>
        <path id="Trazado_837087" data-name="Trazado 837087" d="M60.733,30.873a1.142,1.142,0,1,0-1.142-1.142A1.142,1.142,0,0,0,60.733,30.873Z" transform="translate(-53.954 -24.308)"/>
        <path id="Trazado_837088" data-name="Trazado 837088" d="M59.591,271.44a1.142,1.142,0,1,0,1.142-1.143A1.142,1.142,0,0,0,59.591,271.44Z" transform="translate(-53.954 -229.83)"/>
        <path id="Trazado_837089" data-name="Trazado 837089" d="M79.027,358.046H60.845a1.123,1.123,0,1,0,0,2.246H79.027a1.123,1.123,0,0,0,0-2.246Z" transform="translate(-54.066 -304.44)"/>
        <path id="Trazado_837090" data-name="Trazado 837090" d="M79.027,399.909H60.845a1.123,1.123,0,1,0,0,2.246H79.027a1.123,1.123,0,0,0,0-2.246Z" transform="translate(-54.066 -340.036)"/>
        <path id="Trazado_837091" data-name="Trazado 837091" d="M96.242,441.771h-10.4a1.123,1.123,0,1,0,0,2.246h10.4a1.123,1.123,0,0,0,0-2.246Z" transform="translate(-75.323 -375.63)"/>
      </g>
    </g>
  </g>
</svg>
