<svg xmlns="http://www.w3.org/2000/svg" xmlns:xlink="http://www.w3.org/1999/xlink" width="127" height="105" viewBox="0 0 127 105">
  <defs>
    <linearGradient id="linear-gradient" x1="0.5" x2="0.5" y2="1" gradientUnits="objectBoundingBox">
      <stop offset="0" stop-color="#3ee2a8"/>
      <stop offset="0.56" stop-color="#3ee2a8"/>
      <stop offset="1" stop-color="#1682fb"/>
    </linearGradient>
  </defs>
  <g id="Grupo_1093763" data-name="Grupo 1093763" transform="translate(-1173 -1193)">
    <rect id="Rectángulo_386921" data-name="Rectángulo 386921" width="127" height="105" rx="15" transform="translate(1173 1193)" fill="url(#linear-gradient)"/>
    <g id="Grupo_1093748" data-name="Grupo 1093748" transform="translate(-4.551 1.068)">
      <g id="programador_4_" data-name="programador (4)" transform="translate(1203.551 1206.932)">
        <path id="Trazado_835913" data-name="Trazado 835913" d="M130.145,223.856v8.579l9.448.3s0,0,0,0l.011-.007v-8.9A11.322,11.322,0,0,1,130.145,223.856Z" transform="translate(-110.921 -190.746)" fill="#eab883"/>
        <path id="Trazado_835914" data-name="Trazado 835914" d="M134.579,225.1a10.935,10.935,0,0,1-4.434-1.014v8.579l5.424.17-.687-1.9C134.393,229.578,134.652,228.835,134.579,225.1Z" transform="translate(-110.921 -190.971)" fill="#dda36f"/>
        <path id="Trazado_835915" data-name="Trazado 835915" d="M143,268.8a6.763,6.763,0,0,1-7.934-.047l-.061-.045v9.462h8.123V268.7Z" transform="translate(-115.065 -229)" fill="#efefef"/>
        <path id="Trazado_835916" data-name="Trazado 835916" d="M141.691,276.327l-2.271-6.278a7.045,7.045,0,0,1-4.412-1.344v9.462h4.462C140.245,277.6,141.691,276.327,141.691,276.327Z" transform="translate(-115.065 -229.001)" fill="#ddd"/>
        <path id="Trazado_835917" data-name="Trazado 835917" d="M53.174,294.642l-3.9-24.225a5.324,5.324,0,0,0-4.065-4.132h0l-4.353-1.2-.531-.313L31.6,272.591l0-.006a1.3,1.3,0,0,1-2.437,0l0,.006-8.728-7.824-.531.313-4.353,1.2h0a5.324,5.324,0,0,0-4.065,4.132l-3.9,24.225A4.7,4.7,0,0,0,12.2,300.19H48.565A4.7,4.7,0,0,0,53.174,294.642Z" transform="translate(-6.418 -225.645)" fill="#70b5e8"/>
        <g id="Grupo_1093736" data-name="Grupo 1093736" transform="translate(1.105 36.051)">
          <path id="Trazado_835918" data-name="Trazado 835918" d="M12.014,300.848l3.9-26.294a5.109,5.109,0,0,1,1.238-2.506l-1.6.442h0a5.324,5.324,0,0,0-4.065,4.132l-3.9,24.225A4.7,4.7,0,0,0,12.2,306.4h4.424A4.7,4.7,0,0,1,12.014,300.848Z" transform="translate(-7.524 -267.901)" fill="#52a5d8"/>
          <path id="Trazado_835919" data-name="Trazado 835919" d="M100.585,254.88l-9.259-7.511,5.736-3.384v1.8Z" transform="translate(-78.943 -243.985)" fill="#52a5d8"/>
          <path id="Trazado_835920" data-name="Trazado 835920" d="M170.455,254.88l9.259-7.511-5.756-3.384v1.8Z" transform="translate(-146.38 -243.985)" fill="#52a5d8"/>
        </g>
        <path id="Trazado_835921" data-name="Trazado 835921" d="M109.784,417.566v5.394h11.443v-5.394a3.193,3.193,0,0,1,2.419-3.092,6.483,6.483,0,0,1-3.085-4.585,1.332,1.332,0,0,0-1.3-1.065h-7.593a1.333,1.333,0,0,0-1.3,1.067,6.5,6.5,0,0,1-3.056,4.57A3.194,3.194,0,0,1,109.784,417.566Z" transform="translate(-91.458 -348.415)" fill="#a4d9f4"/>
        <path id="Trazado_835922" data-name="Trazado 835922" d="M113.607,422.961v-5.268a3.407,3.407,0,0,0-.645-2,2.786,2.786,0,0,1,.026-3.19,8.714,8.714,0,0,0,1.244-3.066,1.447,1.447,0,0,1,.292-.614h-2.856a1.333,1.333,0,0,0-1.3,1.067,6.5,6.5,0,0,1-3.056,4.57,3.194,3.194,0,0,1,2.475,3.107v5.394Z" transform="translate(-91.459 -348.415)" fill="#84c7ef"/>
        <g id="Grupo_1093737" data-name="Grupo 1093737" transform="translate(17.513 68.367)">
          <path id="Trazado_835923" data-name="Trazado 835923" d="M168.69,462.688H168.4a6.2,6.2,0,0,0-6.178,6.178h6.469v-6.178Z" transform="translate(-155.77 -462.688)" fill="#eab883"/>
          <path id="Trazado_835924" data-name="Trazado 835924" d="M118.563,462.688v6.178h6.451a6.2,6.2,0,0,0-6.178-6.178Z" transform="translate(-118.563 -462.688)" fill="#eab883"/>
        </g>
        <g id="Grupo_1093738" data-name="Grupo 1093738" transform="translate(17.513 71.456)">
          <path id="Trazado_835925" data-name="Trazado 835925" d="M162.222,486.683h6.469v-3.089h-5.634A6.124,6.124,0,0,0,162.222,486.683Z" transform="translate(-155.771 -483.594)" fill="#dda36f"/>
          <path id="Trazado_835926" data-name="Trazado 835926" d="M118.563,483.594v3.089h6.451a6.126,6.126,0,0,0-.835-3.089Z" transform="translate(-118.563 -483.594)" fill="#dda36f"/>
        </g>
        <path id="Trazado_835927" data-name="Trazado 835927" d="M89.09,11.531a1.727,1.727,0,0,1-.982-.6c-3.844-4.791-14.067-4.394-19.382.922-4.9,4.9-2.188,12.713-2.188,12.713H93.621C95.988,14.629,90.907,11.929,89.09,11.531Z" transform="translate(-56.075 -6.465)" fill="#93482b"/>
        <path id="Trazado_835928" data-name="Trazado 835928" d="M75.444,11.854a15.03,15.03,0,0,1,7.522-3.9,15.989,15.989,0,0,0-14.241,3.9c-4.9,4.9-2.188,12.713-2.188,12.713h6.719S70.546,16.752,75.444,11.854Z" transform="translate(-56.075 -6.466)" fill="#843d26"/>
        <g id="Grupo_1093739" data-name="Grupo 1093739" transform="translate(9.158 16.765)">
          <path id="Trazado_835929" data-name="Trazado 835929" d="M63.341,114.111l0,0a2.676,2.676,0,0,0,0,4.612l0,0a3.957,3.957,0,0,0,2.2.649v-5.9h0A3.957,3.957,0,0,0,63.341,114.111Z" transform="translate(-62.018 -113.462)" fill="#eab883"/>
          <path id="Trazado_835930" data-name="Trazado 835930" d="M241.278,114.112l0,0a2.891,2.891,0,0,1,1.277,1.855l0,.012c.008.044.015.088.02.132,0,.012,0,.025,0,.037,0,.038.008.076.01.114s0,.067,0,.1c0,.017,0,.034,0,.051,0,0,0,0,0,0s0,0,0,0c0,.017,0,.034,0,.051,0,.034,0,.068,0,.1s-.006.076-.01.114c0,.012,0,.025,0,.037-.005.044-.012.088-.02.132l0,.012a2.89,2.89,0,0,1-1.277,1.855l0,0a3.957,3.957,0,0,1-2.2.649v-5.9A4,4,0,0,1,241.278,114.112Z" transform="translate(-212.912 -113.464)" fill="#eab883"/>
        </g>
        <g id="Grupo_1093740" data-name="Grupo 1093740" transform="translate(9.157 18.388)">
          <path id="Trazado_835931" data-name="Trazado 835931" d="M63.332,125.424a3.13,3.13,0,0,1-.94-.978,2.651,2.651,0,0,0,.94,3.633l0,0a3.957,3.957,0,0,0,2.2.649v-2.655a3.956,3.956,0,0,1-2.2-.649Z" transform="translate(-62.013 -124.446)" fill="#dda36f"/>
          <path id="Trazado_835932" data-name="Trazado 835932" d="M242.6,125.718c0-.034,0-.068,0-.1s-.006-.076-.01-.114c0-.012,0-.025,0-.037-.005-.044-.012-.088-.02-.132l0-.012a2.608,2.608,0,0,0-.337-.877,3.126,3.126,0,0,1-.94.978l0,0a3.957,3.957,0,0,1-2.2.649v2.655a3.957,3.957,0,0,0,2.2-.649l0,0a2.889,2.889,0,0,0,1.277-1.855l0-.012c.008-.044.015-.088.02-.132,0-.012,0-.025,0-.037,0-.038.008-.076.01-.114s0-.067,0-.1c0-.017,0-.034,0-.051,0,0,0,0,0,0s0,0,0,0C242.6,125.752,242.6,125.735,242.6,125.718Z" transform="translate(-212.911 -124.445)" fill="#dda36f"/>
        </g>
        <path id="Trazado_835933" data-name="Trazado 835933" d="M108.345,104.863v-3.8a4.877,4.877,0,0,1-4.5-1.756,1,1,0,0,0-1.382-.205c-2.679,1.942-10.228,4.946-16.783,1.961v2.171h-.013a46.349,46.349,0,0,0,.318,7.362,11.272,11.272,0,0,0,2.426,4.758c6.881,8,19.935,3.034,19.935-7.379,0-1.283,0-2.3,0-3.111h0Z" transform="translate(-73.007 -84.298)" fill="#f7cf9c"/>
        <path id="Trazado_835934" data-name="Trazado 835934" d="M90.376,123a46.349,46.349,0,0,1-.318-7.362h.013v-1a14.068,14.068,0,0,1-4.394-1.173v2.171h-.013A46.367,46.367,0,0,0,85.983,123a11.249,11.249,0,0,0,13.107,8.5A11.388,11.388,0,0,1,90.376,123Z" transform="translate(-73.007 -96.698)" fill="#eab883"/>
        <path id="Trazado_835935" data-name="Trazado 835935" d="M268.473,229.267c-39.942,0-37.282-.077-37.829.22a1.82,1.82,0,0,0-.953,1.6v29.1a1.821,1.821,0,0,0,1.821,1.821h36.961a1.821,1.821,0,0,0,1.821-1.821v-29.1A2.064,2.064,0,0,0,268.473,229.267Z" transform="translate(-195.758 -195.382)" fill="#efefef"/>
        <path id="Trazado_835936" data-name="Trazado 835936" d="M236.026,260.2V231.1a1.821,1.821,0,0,1,1.821-1.821c-6.417.074-6.491-.167-7.2.22a1.82,1.82,0,0,0-.953,1.6v29.1a1.821,1.821,0,0,0,1.821,1.821h6.335A1.821,1.821,0,0,1,236.026,260.2Z" transform="translate(-195.758 -195.392)" fill="#ddd"/>
        <path id="Trazado_835937" data-name="Trazado 835937" d="M325.02,79.936H301.351a1.778,1.778,0,0,0-1.773,1.773V93.676a1.778,1.778,0,0,0,1.773,1.773h20.834a1.947,1.947,0,0,1,1.31.506l1.727,1.569a.94.94,0,0,0,1.572-.7V81.709A1.779,1.779,0,0,0,325.02,79.936Z" transform="translate(-255.318 -68.125)" fill="#ffb70d"/>
        <path id="Trazado_835938" data-name="Trazado 835938" d="M304.5,93.676V81.709a1.778,1.778,0,0,1,1.773-1.773h-4.925a1.778,1.778,0,0,0-1.773,1.773V93.676a1.778,1.778,0,0,0,1.773,1.773h4.925A1.778,1.778,0,0,1,304.5,93.676Z" transform="translate(-255.319 -68.125)" fill="#f4a403"/>
        <circle id="Elipse_11138" data-name="Elipse 11138" cx="2.404" cy="2.404" r="2.404" transform="translate(51.804 39.829)" fill="#ccc"/>
        <path id="Trazado_835939" data-name="Trazado 835939" d="M353.021,269.56a2.4,2.4,0,1,0,2.079,3.6A2.4,2.4,0,0,1,353.021,269.56Z" transform="translate(-298.812 -229.73)" fill="#bcbbb8"/>
        <path id="Trazado_835940" data-name="Trazado 835940" d="M348.151,360.957V338.426a0,0,0,0,0,0,0h-8.312a0,0,0,0,0,0,0v22.531Z" transform="translate(-289.624 -288.416)" fill="#ddd"/>
        <path id="Trazado_835941" data-name="Trazado 835941" d="M343.991,338.426a0,0,0,0,1,0,0h-4.16a0,0,0,0,0,0,0v22.531h4.16Z" transform="translate(-289.624 -288.416)" fill="#ccc"/>
        <path id="Trazado_835942" data-name="Trazado 835942" d="M329.716,479.363h0a2.005,2.005,0,0,0-2.005-2.005H316.045a2.005,2.005,0,0,0-2.005,2.005h0a2.005,2.005,0,0,0,2.005,2.005H327.71A2.006,2.006,0,0,0,329.716,479.363Z" transform="translate(-267.643 -406.823)" fill="#efefef"/>
        <path id="Trazado_835943" data-name="Trazado 835943" d="M320,479.363h0a2.005,2.005,0,0,1,2.005-2.005h-5.963a2.005,2.005,0,0,0-2.005,2.005h0a2.005,2.005,0,0,0,2.005,2.005h5.963A2.005,2.005,0,0,1,320,479.363Z" transform="translate(-267.644 -406.823)" fill="#ddd"/>
        <path id="Trazado_835944" data-name="Trazado 835944" d="M343.117,265.56a3.512,3.512,0,1,0,3.512-3.512A3.516,3.516,0,0,0,343.117,265.56Zm4.807,0a1.3,1.3,0,1,1-1.3-1.3A1.3,1.3,0,0,1,347.924,265.56Z" transform="translate(-292.424 -223.328)"/>
        <path id="Trazado_835945" data-name="Trazado 835945" d="M254.609,410.5a1.108,1.108,0,1,0,0,2.216h3.411a1.108,1.108,0,1,0,0-2.216Z" transform="translate(-216.05 -349.847)"/>
        <path id="Trazado_835946" data-name="Trazado 835946" d="M303.845,410.829a1.119,1.119,0,0,0-1-.3,1.1,1.1,0,0,0-.207.064,1.136,1.136,0,0,0-.192.1,1.079,1.079,0,0,0-.306.306,1.141,1.141,0,0,0-.165.4,1.1,1.1,0,0,0,.663,1.24,1.105,1.105,0,0,0,1.446-1.446A1.48,1.48,0,0,0,303.845,410.829Z" transform="translate(-257.344 -349.848)"/>
        <path id="Trazado_835947" data-name="Trazado 835947" d="M337.52,105.094a1.108,1.108,0,0,0-1.567,0l-2.735,2.735a1.108,1.108,0,0,0,0,1.567l2.735,2.735a1.108,1.108,0,0,0,1.567-1.567l-1.951-1.951,1.951-1.951A1.108,1.108,0,0,0,337.52,105.094Z" transform="translate(-283.711 -89.288)"/>
        <path id="Trazado_835948" data-name="Trazado 835948" d="M414.342,112.455c.793,0,.858-.543,3.518-3.059a1.108,1.108,0,0,0,0-1.567l-2.735-2.735a1.108,1.108,0,0,0-1.567,1.567l1.951,1.951-1.951,1.951A1.109,1.109,0,0,0,414.342,112.455Z" transform="translate(-352.179 -89.288)"/>
        <path id="Trazado_835949" data-name="Trazado 835949" d="M374.254,97.1l-3.071,8.438a1.108,1.108,0,1,0,2.083.758l3.071-8.438a1.108,1.108,0,1,0-2.083-.758Z" transform="translate(-316.286 -82.132)"/>
        <path id="Trazado_835950" data-name="Trazado 835950" d="M72.755,32.776c-38.518.124-37.137-.309-38.358.354a2.929,2.929,0,0,0-1.532,2.575v1.567l-3.033-1.844v-.78a12.205,12.205,0,0,0,6.632-10.974v-.017a4.912,4.912,0,0,0,1.607-.65,1.1,1.1,0,0,0,.114-.067,3.9,3.9,0,0,0,1.806-3.127A3.73,3.73,0,0,0,38.8,16.984c.879-4.135.583-7.416-.886-9.755a7.284,7.284,0,0,0-4.639-3.246.622.622,0,0,1-.354-.212C29.794-.119,22.862-1.147,16.791,1.38a1.108,1.108,0,0,0,.852,2.046C22.751,1.3,28.7,2.06,31.188,5.16a2.846,2.846,0,0,0,1.609.99,5.082,5.082,0,0,1,3.236,2.26c1.079,1.718,1.322,4.217.73,7.438a4.7,4.7,0,0,0-1.688-.16,3.736,3.736,0,0,1-3.349-1.364,2.112,2.112,0,0,0-2.9-.417c-2.465,1.786-9.471,4.574-15.527,1.913a1.1,1.1,0,0,0-.591-.162.723.723,0,0,0-.093,0,5.224,5.224,0,0,0-1.421.214c-.835-3.619-.258-7.291,2.431-9.868h0a1.108,1.108,0,1,0-1.534-1.6C8.619,7.734,7.918,12.519,9.2,17.036c-2.29,2.29-.979,5.933,2.423,6.63a17.781,17.781,0,0,0,.295,2.887,12.3,12.3,0,0,0,2.665,5.225,12.678,12.678,0,0,0,3.576,2.9v.741l-5.065,2.988L8.8,39.6a6.333,6.333,0,0,0-4.774,4.959c0,.014-.005.027-.007.041L.119,68.822a5.9,5.9,0,0,0,5.821,6.832H42.187a5.768,5.768,0,0,0,3.7-1.34,3.111,3.111,0,0,0,2.556,1.34H60.106a3.113,3.113,0,0,0,0-6.227h-.431V67.734H64.12a1.108,1.108,0,0,0,0-2.216H59.675V50.965a1.109,1.109,0,0,0-.546-2.071H49.555a1.109,1.109,0,0,0-.416,2.135v14.49c-14.732,0-13.576.065-13.85-.209-.3-.3-.209,1.482-.209-29.6a.713.713,0,0,1,.713-.713c39.377.03,37-.076,37.3.085a.714.714,0,0,1,.374.627V64.8a.713.713,0,0,1-.374.628c-.276.15-.19.057-3.8.085a1.108,1.108,0,0,0,0,2.216c3.3-.091,4.327.35,5.535-.858a2.909,2.909,0,0,0,.858-2.071v-29.1A2.929,2.929,0,0,0,72.755,32.776Zm-43.046,34.5A7.29,7.29,0,0,0,24,70.69a7.29,7.29,0,0,0-5.686-3.412,3.21,3.21,0,0,0-.807-1.019,8.244,8.244,0,0,0,2.515-4.743h7.955a8.236,8.236,0,0,0,2.524,4.75A3.207,3.207,0,0,0,29.708,67.276ZM23.816,46.534,22.023,41.9a7.813,7.813,0,0,0,4.024,0l-1.823,4.633a.2.2,0,0,1-.2.138C23.873,46.679,23.853,46.626,23.816,46.534Zm3.8-10.972v2.363L27.2,38.988a5.641,5.641,0,0,1-6.3,0l-.523-1.352V35.6A12.391,12.391,0,0,0,27.616,35.561Zm4.967,4.133L27.8,43.5c2.084-5.3,2.057-5.093,2.03-5.48Zm3.882-18.346V18.083C38.184,18.77,38.234,20.64,36.465,21.348ZM11.581,18.083c-.016.865-.028,2.04-.017,3.258C9.81,20.625,9.866,18.769,11.581,18.083Zm4.68,12.251c-3.045-3.547-2.382-6.809-2.464-11.955,5.522,1.775,12.39.11,16.241-2.616a5.788,5.788,0,0,0,4.21,2.146c0,.54-.007,2.559,0,5.768A10.241,10.241,0,0,1,16.262,30.334Zm1.9,7.653c.039.309.155.412,2.084,5.474l-4.784-3.881ZM8.811,39.594q-.047.016-.092.037A.79.79,0,0,1,8.811,39.594Zm-6.5,29.58L6.2,44.97c.689-3.38,3.856-3.233,7.073-4.315l3.776,3.063v7.117a1.108,1.108,0,1,0,2.216,0V45.517L21.9,47.652a2.435,2.435,0,0,0,4.246.005l2.634-2.1v5.278a1.108,1.108,0,0,0,2.216,0V43.794l1.871-1.49c.011,24.014-.023,22.476.025,22.863a4.194,4.194,0,0,1-2.076-2.085,7.872,7.872,0,0,1-.757-2.73A1.108,1.108,0,0,0,28.948,59.3H19.06a1.111,1.111,0,0,0-1.106,1.048,7.873,7.873,0,0,1-.758,2.734c-1.637,3.253-4.61,2.248-5.776,2.436L13.538,51.2a1.108,1.108,0,1,0-2.192-.324L9.18,65.518H8.037a1.108,1.108,0,0,0,0,2.216h7.434a.975.975,0,0,1,.974.971v4.732H5.939A3.68,3.68,0,0,1,2.307,69.174Zm16.355,4.264V69.544a5.085,5.085,0,0,1,4.113,3.893Zm10.7-3.9v3.9H25.234A5.085,5.085,0,0,1,29.365,69.541ZM61,72.54a.9.9,0,0,1-.9.9H48.442a.9.9,0,1,1,0-1.794H60.106A.9.9,0,0,1,61,72.54Zm-9.648-3.113V51.114h6.1V69.427Zm-2.216,0a7.2,7.2,0,0,0-1.19.043c-.033-.466-.078-.6-.254-1.736h1.445ZM45.45,67.734,45.7,69.31a3.562,3.562,0,0,1-3.516,4.128H31.582V68.705a.975.975,0,0,1,.974-.971Z" transform="translate(-0.042 0)"/>
        <path id="Trazado_835951" data-name="Trazado 835951" d="M294.94,90.166h20.834c.55,0,.661.388,2.292,1.787a2.048,2.048,0,0,0,3.425-1.516v-6.4a1.108,1.108,0,1,0-2.216,0v6.022c-1.072-.825-1.777-2.107-3.5-2.107H294.94a.674.674,0,0,1-.665-.665V75.318a.674.674,0,0,1,.665-.665h23.669a.674.674,0,0,1,.665.665v3.545a1.108,1.108,0,1,0,2.216,0V75.318a2.884,2.884,0,0,0-2.881-2.881H294.94a2.884,2.884,0,0,0-2.881,2.881V87.285A2.884,2.884,0,0,0,294.94,90.166Z" transform="translate(-248.91 -61.734)"/>
      </g>
      <g id="Grupo_1093747" data-name="Grupo 1093747" transform="translate(1224.906 1252.559)">
        <g id="Grupo_1093741" data-name="Grupo 1093741" transform="translate(6.378 0.866)">
          <g id="Grupo_1093611" data-name="Grupo 1093611">
            <circle id="Elipse_11135" data-name="Elipse 11135" cx="7.009" cy="7.009" r="7.009" fill="#f9c33d"/>
          </g>
        </g>
        <g id="Grupo_1093742" data-name="Grupo 1093742" transform="translate(0.868 14.194)">
          <g id="Grupo_1093613" data-name="Grupo 1093613">
            <path id="Trazado_835859" data-name="Trazado 835859" d="M15.257,134.011l-.521-.521a1.513,1.513,0,0,0-2.141,0l-2.651,2.651a1.513,1.513,0,0,0,0,2.141l.521.521a1.513,1.513,0,0,0,2.141,0l2.651-2.651A1.514,1.514,0,0,0,15.257,134.011Z" transform="translate(-9.501 -133.046)" fill="#fc657e"/>
          </g>
        </g>
        <g id="Grupo_1093743" data-name="Grupo 1093743" transform="translate(5.76 12.431)">
          <g id="Grupo_1093664" data-name="Grupo 1093664">
            <path id="Trazado_835881" data-name="Trazado 835881" d="M26.389,128.231a.868.868,0,0,0-1.229,0l-1.331,1.331a.869.869,0,0,0,1.229,1.229l1.331-1.331A.869.869,0,0,0,26.389,128.231Z" transform="translate(-23.574 -127.976)"/>
          </g>
        </g>
        <g id="Grupo_1093744" data-name="Grupo 1093744" transform="translate(10.425 6.177)">
          <g id="Grupo_1093666" data-name="Grupo 1093666">
            <path id="Trazado_835882" data-name="Trazado 835882" d="M42.634,110.239a.868.868,0,0,0-1.229,0l-1.944,1.944-.985-.985a.869.869,0,1,0-1.229,1.229l1.6,1.6a.869.869,0,0,0,1.229,0l2.559-2.559A.869.869,0,0,0,42.634,110.239Z" transform="translate(-36.992 -109.984)"/>
          </g>
        </g>
        <g id="Grupo_1093745" data-name="Grupo 1093745" transform="translate(5.513)">
          <g id="Grupo_1093715" data-name="Grupo 1093715">
            <g id="Grupo_1093714" data-name="Grupo 1093714">
              <path id="Trazado_835905" data-name="Trazado 835905" d="M36.307,94.522a7.874,7.874,0,1,0,0,11.141A7.887,7.887,0,0,0,36.307,94.522Zm-1.229,9.912a6.137,6.137,0,1,1,0-8.683A6.147,6.147,0,0,1,35.077,104.434Z" transform="translate(-22.862 -92.218)"/>
            </g>
          </g>
        </g>
        <g id="Grupo_1093746" data-name="Grupo 1093746" transform="translate(0 13.325)">
          <g id="Grupo_1093718" data-name="Grupo 1093718">
            <g id="Grupo_1093717" data-name="Grupo 1093717">
              <path id="Trazado_835906" data-name="Trazado 835906" d="M14.242,131.766l-.521-.521a2.383,2.383,0,0,0-3.37,0L7.7,133.895a2.386,2.386,0,0,0,0,3.37l.521.521a2.386,2.386,0,0,0,3.37,0l2.651-2.651a2.382,2.382,0,0,0,0-3.37Zm-1.229,2.141-2.651,2.651a.645.645,0,0,1-.912,0l-.521-.521a.646.646,0,0,1,0-.912l2.651-2.651a.645.645,0,0,1,.912,0l.521.521a.644.644,0,0,1,0,.912Z" transform="translate(-7.004 -130.546)"/>
            </g>
          </g>
        </g>
      </g>
    </g>
  </g>
</svg>
