<svg xmlns="http://www.w3.org/2000/svg" xmlns:xlink="http://www.w3.org/1999/xlink" width="127" height="105" viewBox="0 0 127 105">
  <defs>
    <linearGradient id="linear-gradient" x1="0.5" x2="0.5" y2="1" gradientUnits="objectBoundingBox">
      <stop offset="0" stop-color="#3ee2a8"/>
      <stop offset="0.56" stop-color="#3ee2a8"/>
      <stop offset="1" stop-color="#1682fb"/>
    </linearGradient>
  </defs>
  <g id="Grupo_1093779" data-name="Grupo 1093779" transform="translate(-1173 -1901)">
    <rect id="Rectángulo_386927" data-name="Rectángulo 386927" width="127" height="105" rx="15" transform="translate(1173 1901)" fill="url(#linear-gradient)"/>
    <g id="registro-en-linea" transform="translate(1202 1918)">
      <g id="Grupo_1093777" data-name="Grupo 1093777" transform="translate(2.153 2.153)">
        <g id="Grupo_1093765" data-name="Grupo 1093765" transform="translate(6.916)">
          <path id="Trazado_835997" data-name="Trazado 835997" d="M12.611,2H47.189A4.609,4.609,0,0,1,51.8,6.611V18.356a6.841,6.841,0,0,0-3.181,1.81l-1.429,1.429V12.374a1.156,1.156,0,0,0-1.153-1.153H13.763a1.156,1.156,0,0,0-1.153,1.153V46.952a1.156,1.156,0,0,0,1.153,1.153H14.3a34.128,34.128,0,0,1-2.259,5.74A2.137,2.137,0,0,1,8,52.888V6.611A4.609,4.609,0,0,1,12.611,2Z" transform="translate(-8 -2)" fill="#e6e9ed"/>
        </g>
        <g id="Grupo_1093766" data-name="Grupo 1093766" transform="translate(20.102 33.426)">
          <path id="Trazado_835998" data-name="Trazado 835998" d="M20.085,52.52c0-.519-.023-1.026-.058-1.533l-.565-7.308H44.291a1.156,1.156,0,0,0,1.153-1.153V35.611L50.054,31V52.9a4.609,4.609,0,0,1-4.611,4.611h-26A19.7,19.7,0,0,0,20.085,52.52Z" transform="translate(-19.44 -31)" fill="#e6e9ed"/>
        </g>
        <g id="Grupo_1093767" data-name="Grupo 1093767" transform="translate(11.526 9.221)">
          <path id="Trazado_835999" data-name="Trazado 835999" d="M45.426,10H13.153A1.156,1.156,0,0,0,12,11.153V45.731a1.156,1.156,0,0,0,1.153,1.153H45.426a1.156,1.156,0,0,0,1.153-1.153V11.153A1.156,1.156,0,0,0,45.426,10Z" transform="translate(-12 -10)" fill="#69d6f4"/>
        </g>
        <g id="Grupo_1093768" data-name="Grupo 1093768" transform="translate(23.053 50.716)">
          <path id="Trazado_836000" data-name="Trazado 836000" d="M33.526,47.153a3.463,3.463,0,0,1-3.458,3.458H25.458A3.453,3.453,0,0,1,22,47.153,1.156,1.156,0,0,1,23.153,46h9.221A1.156,1.156,0,0,1,33.526,47.153Z" transform="translate(-22 -46)" fill="#e6e9ed"/>
        </g>
        <g id="Grupo_1093769" data-name="Grupo 1093769" transform="translate(16.137 13.832)">
          <path id="Trazado_836001" data-name="Trazado 836001" d="M16,14H41.358v4.611H16Z" transform="translate(-16 -14)" fill="#f9c33d"/>
        </g>
        <g id="Grupo_1093770" data-name="Grupo 1093770" transform="translate(4.611 64.547)">
          <path id="Trazado_836002" data-name="Trazado 836002" d="M6,58H19.832v4.611H6Z" transform="translate(-6 -58)" fill="#f2354d"/>
        </g>
        <g id="Grupo_1093771" data-name="Grupo 1093771" transform="translate(36.884 33.426)">
          <path id="Trazado_836003" data-name="Trazado 836003" d="M42.068,36.763,36.651,38.93a1.933,1.933,0,0,1-2.513-2.513L36.305,31Z" transform="translate(-34 -31)" fill="#cf9e76"/>
        </g>
        <g id="Grupo_1093772" data-name="Grupo 1093772" transform="translate(49.413 9.221)">
          <path id="Trazado_836004" data-name="Trazado 836004" d="M64.615,14.08a4.076,4.076,0,0,1-1.2,2.882l-3.907,3.907-7.573,7.573L48.374,25.6a8,8,0,0,0-3.5-1.614l7.066-7.066L57.653,11.2a4.08,4.08,0,0,1,6.962,2.882Z" transform="translate(-44.87 -10)" fill="#9ae934"/>
        </g>
        <g id="Grupo_1093773" data-name="Grupo 1093773" transform="translate(39.189 27.34)">
          <path id="Trazado_836005" data-name="Trazado 836005" d="M42.086,25.72A8,8,0,0,0,43.192,26.9l5.775,3.469-1.441,1.441-4.611,4.611-1.153,1.153L36,31.806l3.573-3.573Z" transform="translate(-36 -25.72)" fill="#9ae934"/>
        </g>
        <g id="Grupo_1093774" data-name="Grupo 1093774" transform="translate(40.342 16.137)">
          <path id="Trazado_836006" data-name="Trazado 836006" d="M42.475,23.78a2.87,2.87,0,0,0-.864,2.075,2.947,2.947,0,0,0,.323,1.349l-2.513,2.513a3.3,3.3,0,0,1-1.729-1.141A3.228,3.228,0,0,1,37,26.57a3.263,3.263,0,0,1,.957-2.305l4.806-4.806,1.429-1.429a6.841,6.841,0,0,1,3.181-1.81A6.558,6.558,0,0,1,49.091,16h4.046l-7.066,7.066a7.4,7.4,0,0,0-1.521-.15,2.87,2.87,0,0,0-2.075.864Z" transform="translate(-37 -16)" fill="#f0d0b4"/>
        </g>
        <g id="Grupo_1093775" data-name="Grupo 1093775" transform="translate(44.952 20.09)">
          <path id="Trazado_836007" data-name="Trazado 836007" d="M42.429,27.856a8,8,0,0,1-1.107-1.176A2.947,2.947,0,0,1,41,25.331a2.952,2.952,0,0,1,2.939-2.939,7.4,7.4,0,0,1,1.521.15,8,8,0,0,1,3.5,1.614L52.526,27,60.1,19.43l3.954,2.962h1.153v9.221H64.053l-5.3,1.764a10.453,10.453,0,0,1-8.714-.957L48.2,31.325Z" transform="translate(-41 -19.43)" fill="#f0d0b4"/>
        </g>
        <g id="Grupo_1093776" data-name="Grupo 1093776" transform="translate(0 32.274)">
          <path id="Trazado_836008" data-name="Trazado 836008" d="M22.69,51.139c.035.507.058,1.014.058,1.533a19.7,19.7,0,0,1-.645,4.991,20.415,20.415,0,0,1-.784,2.421l-.876,2.19H6.611l-1.5-3.758a19.905,19.905,0,0,1-1.164-4.138L2.161,43.624A11.767,11.767,0,0,1,2,41.722a11.6,11.6,0,0,1,3.4-8.207L8.916,30V48.615a2.137,2.137,0,0,0,4.046.957,34.128,34.128,0,0,0,2.259-5.74l.392-1.418.864-3.446a2.688,2.688,0,0,1,2.616-2.052,2.7,2.7,0,0,1,2.7,2.49l.334,4.426Z" transform="translate(-2 -30)" fill="#f0d0b4"/>
        </g>
      </g>
      <g id="Grupo_1093778" data-name="Grupo 1093778" transform="translate(1 1)">
        <path id="Trazado_836009" data-name="Trazado 836009" d="M32.526,45H23.305A2.308,2.308,0,0,0,21,47.305a4.615,4.615,0,0,0,4.611,4.611h4.611a4.615,4.615,0,0,0,4.611-4.611A2.308,2.308,0,0,0,32.526,45Zm-2.305,4.611H25.611a2.308,2.308,0,0,1-2.305-2.305h9.221A2.308,2.308,0,0,1,30.221,49.611Z" transform="translate(2.053 5.716)"/>
        <circle id="Elipse_11145" data-name="Elipse 11145" cx="1.029" cy="1.029" r="1.029" transform="translate(46.315 4.563)"/>
        <ellipse id="Elipse_11146" data-name="Elipse 11146" cx="1.544" cy="1.029" rx="1.544" ry="1.029" transform="translate(41.169 4.563)"/>
        <path id="Trazado_836010" data-name="Trazado 836010" d="M23,5h9.221V7.305H23Z" transform="translate(2.358 -0.389)"/>
        <path id="Trazado_836011" data-name="Trazado 836011" d="M67.96,22.116l2.971-2.971a5.228,5.228,0,0,0-7.393-7.393l-5.384,5.385H54.58c-.188,0-.373.015-.559.028V6.763A5.77,5.77,0,0,0,48.258,1H13.679A5.77,5.77,0,0,0,7.916,6.763V33.949L4.735,37.131A12.659,12.659,0,0,0,1,46.145a12.915,12.915,0,0,0,.173,2.1L2.966,59a21.074,21.074,0,0,0,1.223,4.371l1.421,3.555v5.541H21.747V66.922l.8-1.988c.222-.557.411-1.123.586-1.692h25.13a5.77,5.77,0,0,0,5.763-5.763V36.056l.467-.467,1.058.635a11.637,11.637,0,0,0,9.676,1.06l5.122-1.706h2.119V24.053H70.541Zm-2.792-8.735A2.923,2.923,0,1,1,69.3,17.515L58.546,28.271l-2.756-2.2a9.145,9.145,0,0,0-2.066-1.24Zm-9.319,6.061-4.687,4.687a9.2,9.2,0,0,0-1.113-.076A4.089,4.089,0,0,0,46.092,29.2L44.65,30.642a2.094,2.094,0,0,1-.385-3.272l6.24-6.24a5.724,5.724,0,0,1,4.075-1.687ZM10.221,6.763a3.462,3.462,0,0,1,3.458-3.458H48.258a3.462,3.462,0,0,1,3.458,3.458v10.9a7.987,7.987,0,0,0-2.305,1.347V12.526a2.308,2.308,0,0,0-2.305-2.305H14.832a2.308,2.308,0,0,0-2.305,2.305V47.105a2.3,2.3,0,0,0,1.334,2.083,33.7,33.7,0,0,1-1.774,4.288.984.984,0,0,1-1.865-.439Zm9.221,63.394H7.916V67.852H19.442Zm.96-6.079-.588,1.468H7.543L6.329,62.511a18.861,18.861,0,0,1-1.089-3.892L3.446,47.862a10.732,10.732,0,0,1-.141-1.717,10.372,10.372,0,0,1,3.059-7.384l1.551-1.553V53.035a3.29,3.29,0,0,0,6.232,1.472,36.168,36.168,0,0,0,2.732-7.384l.864-3.456a1.549,1.549,0,0,1,3.046.257l.9,11.725q.054.719.054,1.443A18.745,18.745,0,0,1,20.4,64.079ZM19.246,40.189a3.85,3.85,0,0,0-3.739,2.92l-.675,2.7V12.526H47.105V21.27l-4.47,4.47A4.392,4.392,0,0,0,43,32.29l-2.642,2.642L38.1,40.567a3.087,3.087,0,0,0,4.011,4.012l4.99-2v4.522H23.347l-.258-3.356a3.872,3.872,0,0,0-3.843-3.559Zm22.517-2.56,3.291,3.291L41.26,42.438a.8.8,0,0,1-1.071-.724.762.762,0,0,1,.056-.29Zm9.953,19.849a3.462,3.462,0,0,1-3.458,3.458H23.694a21.07,21.07,0,0,0,.358-3.844q0-.811-.062-1.619l-.466-6.063h23.58a2.308,2.308,0,0,0,2.305-2.305V40.667l2.305-2.305ZM47.105,39.712l-4.133-4.133,4.37-4.368a3.992,3.992,0,0,0,.6.452l4.509,2.705Zm23.053-6.439h-.187L64.494,35.1a9.415,9.415,0,0,1-7.761-.852l-7.6-4.562a1.791,1.791,0,0,1,.92-3.328,6.9,6.9,0,0,1,4.3,1.51l3.877,3.1h6.168V28.663H61.414l4.9-4.9,3.46,2.595h.384Z" transform="translate(-1 -1)"/>
        <path id="Trazado_836012" data-name="Trazado 836012" d="M42.663,13H15v6.916H42.663Zm-2.305,4.611H17.305V15.305H40.358Z" transform="translate(1.137 0.832)"/>
        <path id="Trazado_836013" data-name="Trazado 836013" d="M21,21H35.984v2.305H21Z" transform="translate(2.053 2.053)"/>
        <path id="Trazado_836014" data-name="Trazado 836014" d="M32,25h2.305v2.305H32Z" transform="translate(3.731 2.663)"/>
        <path id="Trazado_836015" data-name="Trazado 836015" d="M21,25H31.374v2.305H21Z" transform="translate(2.053 2.663)"/>
        <path id="Trazado_836016" data-name="Trazado 836016" d="M21,29H35.984v2.305H21Z" transform="translate(2.053 3.274)"/>
        <path id="Trazado_836017" data-name="Trazado 836017" d="M21,33H33.679v2.305H21Z" transform="translate(2.053 3.884)"/>
        <path id="Trazado_836018" data-name="Trazado 836018" d="M21,37H33.679v2.305H21Z" transform="translate(2.053 4.495)"/>
      </g>
    </g>
  </g>
</svg>
